/* XPM */
static char *_1aeeca4b9274190a2570fe001cfff2eiL6lmt3hIhOMwAWc[] = {
/* columns rows colors chars-per-pixel */
"89 89 96 2 ",
"   c black",
".  c #794100",
"X  c #C37100",
"o  c #FFA200",
"O  c #356190",
"+  c #346091",
"@  c #356192",
"#  c #366092",
"$  c #376C9E",
"%  c #3B7098",
"&  c #3C7199",
"*  c #3C719B",
"=  c #376CA0",
"-  c #4D7B9D",
";  c #4C7D9D",
":  c #4C7D9E",
">  c #4E7C9E",
",  c #477DA1",
"<  c #497DA2",
"1  c #487EA2",
"2  c #417FAE",
"3  c #417FB0",
"4  c #3E82B1",
"5  c #3C82B3",
"6  c #3E81B5",
"7  c #3F83B4",
"8  c #3E85B9",
"9  c #3D87B8",
"0  c #3E86B8",
"q  c #3F8DBE",
"w  c #4880A3",
"e  c #4080AE",
"r  c #4F8FAB",
"t  c #4F8EAD",
"y  c #5D9AAF",
"u  c #408EBF",
"i  c #5E9AB2",
"p  c #609AB2",
"a  c #3F91C1",
"s  c #418FC0",
"d  c #4192C1",
"f  c #4391C2",
"g  c #4292C3",
"h  c #4492C3",
"j  c #4191C4",
"k  c #4292C5",
"l  c #4496C6",
"z  c #479FC7",
"x  c #4496C8",
"c  c #479EC9",
"v  c #479ECB",
"b  c #47A3CC",
"n  c #4DA5CB",
"m  c #4FA4CB",
"M  c #4AA1CC",
"N  c #49A2CC",
"B  c #49A2CE",
"V  c #56AACE",
"C  c #58AFCD",
"Z  c #55B4CA",
"A  c #56B1CC",
"S  c #55B3CC",
"D  c #55B3CD",
"F  c #59B0CE",
"G  c #54B7D6",
"H  c #54B7D7",
"J  c #53B8D6",
"K  c #72B7C6",
"L  c #70B8C4",
"P  c #70B8C6",
"I  c #73B8C7",
"U  c #57C4DB",
"Y  c #5AC3D9",
"T  c #58C2DA",
"R  c #59C3DB",
"E  c #5AC2DB",
"W  c #65CCDF",
"Q  c #75C7D3",
"!  c #75C9D4",
"~  c #7FD7DB",
"^  c #67CCE0",
"/  c #75DAE2",
"(  c #76DBE3",
")  c #71DEE5",
"_  c #71DDE7",
"`  c #7DDAE2",
"'  c #7EDBE2",
"]  c #7EDBE3",
"[  c #82D5DB",
"{  c #81D6DB",
"}  c #86D4D8",
"|  c #81D6DD",
" . c #91F5ED",
".. c #91F4EF",
"X. c #92F5F0",
"o. c white",
/* pixels */
"g g g g g a g g g q g u g u g g g g g u g a g g g g q g k a k k a g g g g g g q g g g g g g j g g a s g a s j a s g a s j a s g a a l q l g q u l a a l a a g g g a h g g a g u s ",
"g g g g g q g a g g g g g a u a g a a g u g a g q g q g a l k a a g q g q g a g g g a s g g l j g g a g g g g g a g g g g g a g l q q g g q l u a l z q g a g a g u u g u g a g g ",
"g g g g g g g g a g g u g u g g u g g u k g u g l u l q a a a q a g g g g g g a j j g g g g g j g g s g g s a g s g a s g s s j l a l u g q a q a a q a g a a g g g g g g g g s g ",
"5 5 5 0 0 0 u u g g g a g g g g g g a g g a g a l q l u q l l q a 9 9 9 5 5 5 6 e 5 5 6 5 5 5 e 0 0 q q q g g g j g g g j a g g q l u g q l a l k k a a u q 0 0 0 5 5 5 5 5 5 6 5 ",
"e 6 6 0 0 0 u u g g j g g g a g g a g g g g g u q q l q l l l q s 0 0 0 4 6 5 u 0 8 5 2 0 e 5 0 0 0 s q s g g g g g j j g g a s g q g g g g a g k g g q q g 0 0 e 5 5 5 5 6 5 e 5 ",
"e 5 6 0 0 0 u u g g g s a g g g g g u g g u u g b q q q a q u q s 0 0 0 5 e u * * u 0 5 5 5 5 0 0 0 q q q g g g g g j j g g g g g q g q u u g g g a g q u q 0 0 q 0 2 0 e 6 5 0 5 ",
"@ @ @ = $ $ 0 0 g g g a a g a s a g g a g g g g q l l l l l q 9 0 $ $ $ @ @ # # O O O O @ # @ $ $ $ 0 0 0 g g g g g a s a s a s g g g h g g g a g a g 0 0 0 $ $ $ @ O @ # # @ @ # ",
"@ @ @ = $ $ 0 0 s a g j s g s a u g u g g q g g u u u q q a l 9 0 $ $ $ @ @ @ @ O # O # # # @ $ $ $ 0 0 0 g a s s a s a s a g g u g g g q g j u g q g 9 0 0 $ $ $ # O O # # O O # ",
": : : , , < 2 2 0 0 0 q s q j g g u g g g a u g g q q q 0 0 0 e % < 1 1 : : : : : : : : : : : < < < 2 2 e 0 0 0 q u q g u l g q g u j g u q q q 0 0 0 e e e < w < : : : ; ; ; : : ",
": : : , w < 2 2 0 0 0 q q s g u q g g a g g g a g q q q 0 0 0 e s , 1 1 : : : : : : : : < ; : < w < 2 e e 0 0 0 u u g g g u a l a g g g g q q q 0 0 0 e e e , , < , : : ; < < : : ",
": : ; , < , 4 e 0 0 0 a g q u g q g g g a g g g g 0 u q 0 0 0 e 3 1 1 1 ; < ; ; : : : : ; ; ; < , < e e e 0 0 0 u q g q g q a l g u g g a q q q 0 0 9 e e e , < < : : : ; ; - - : ",
"} } } I I I , , $ $ $ 0 9 9 u g g g s u g u g u g 9 0 0 $ $ $ , , K K I } } } } } } } } } } } K I I < < < $ $ $ 0 0 g g q l q g a g u g g 0 0 0 $ $ $ , < w K K I } } } } } } } } ",
"} } } I L I : w $ $ $ 5 9 9 g a g g u g j j j j g 0 0 0 $ $ $ w < I K K } } } } } } } } } } } K I K , , , $ $ $ 0 0 g u l q l g a s j g j 0 0 0 $ $ $ < , w I K I } } } } } } } } ",
"} } } I I I , , $ $ $ u 9 9 g g g h g g j j j v g 0 0 0 $ $ $ < , I K I } } } } } } } } } } } K K K w , , $ $ $ 0 0 g h a a q a g g j j g 0 0 0 $ $ $ w < , K K K } } } } } } } } ",
" . . .{ ~ ~ p p < < < e e e 5 5 5 5 5 3 e u 0 $ s e % e w , < i i { { {  ............... . . .~ ~ { i p i w , : 4 2 u 5 5 5 5 5 2 0 e e 5 e 2 2 , < < i i i { { {  . .X.X....... .",
" . . .~ ~ { p i < < < e e e e 5 5 5 5 u u = 0 2 4 e e e < , w i i | { { X............... . . .~ ~ { p p i , , ; 2 2 5 4 5 5 5 5 6 2 u 5 5 2 2 e w w , i i i { { {  .X. .........X.",
" . . .~ ~ ~ i i , , , e e e u = 9 0 e u 3 6 6 5 6 5 e e < , , i i { { | X. .X.X. . . . . . . .~ ~ ~ i i i < < , e 2 u * 0 0 6 6 9 5 u = u e 4 4 ; , , i i i { { | X. . . . . . . .",
"_ _ _ ( ( ( { { K K I , < < @ # @ @ @ @ # # O @ @ < < w L I L { { / / / _ _ _ _ _ _ _ ) _ _ _ ( ( ( { { { K I I < , @ O @ @ @ + @ @ O O @ < ; w K P P { { { / / / _ _ _ _ _ _ ) _ ",
"_ _ _ ( ( ( { { K K I < < , @ # @ @ @ @ @ @ O O @ < < < L L L { { / / / _ _ _ _ _ _ _ _ _ _ _ ( ( ( { { { K K K , , @ @ @ @ @ @ @ @ @ O @ < < < L L L { { { / / / _ _ _ _ _ ) ) _ ",
"_ _ _ ( ( ( { { K K I < w < @ @ @ @ @ @ @ @ @ @ @ < < < L L L ~ { / / / _ _ _ _ _ _ _ _ _ _ _ ( ( ( { { { K K I w < @ @ @ @ @ @ @ @ @ O # < w < L L L { ~ ~ / / / _ _ _ _ _ ) ) _ ",
"R R E ^ W ^ ' ' Q Q Q r r r % % & & & * * & & & * r r t Q Q Q ' ' W W W U U U R R R R R R R R ^ W ^ ] ] ' ! Q Q r r * * % * & & * & & & * t t t Q Q Q ' ' ' W W W U U E R R R R E ",
"R R E ^ ^ ^ ' ' Q Q Q r r r * % & & & * & & & & * r r t Q Q Q ' ' ^ W W U U U R R R R R R E R ^ ^ ^ ] | ' ! Q Q r r & % % * & & * % & & * t t t Q Q Q ' ' ' ^ ^ W U U U R U R R U ",
"B B B m m m V V F F F A Z A S S Z A S S S S Z Z S S A A C C C V V                                               Z A S S S S Z Z S S A Z A V Z C F F F V V V n n M n B B M b M b M ",
"M M B m m m V V F F A Z A Z D D S Z S S S S S S A A A F F F C V V                                               A Z S S S S S A S S A Z Z Z C Z F F F V V V n n n M B M M b M M M ",
"M M M m n m V V A C F A Z Z A Z S S S S Z A S S Z A A A V A C V V                                               Z A S Z A A S S Z Z A A S A Z C F F F V V V n M n n B B B M M M M ",
"h g u g g g g g c c v H J J E E R U R R R R R R R H H H c z c h g                                               J J R R U U R R U E E U E J G G c v v s g g g a g g g j g g g a a ",
"q g g g u k u g v v v H J J E E R R R R R R R R E J H H c b M j g                                               J J R R R R R R R R R R R J J H c b v a g a s g a j j a q g q g g ",
"g g u g a g g g v c B J J J E U R R R R R R R R E J J H c c z j g                                               J J R R R R R R E R R R R J H H z c c g g u g j g a j j g g g a a ",
"g a g g a u u g l x x B c b M M B B b M b M M b M M c c           o.o.o.o.o.o.o o o o o o o o o o o o o o o o o           B B M b M b M B c c c l l l u s g a j g g g g g g a g g ",
"g g u g g g u g x x k c z c M B M B M M M b b b M z c z           o.o.o.o.o.o.o o o o o o o o o o o o o o o o o           B b M M b M b M c c v l l l g g a j j g u u g g q g a g ",
"g q g g a u g g x k x c c z B B M M b B b M M b M b z c           o.o.o.o.o.o.o o o o o o o o o o o o o o o o o           B M b B M b M M c c c l l l u g g a g u g h g g g u g g ",
"4 4 5 0 9 0 u g j g k g s g a u g g g g g g q g q g g a           o.o.o.o.o.o.o o o o o o o o o o o o o o o o o           g g l g g q g g a u g g g g u q g 0 0 0 6 5 4 5 5 5 5 5 ",
"e 0 * u 0 6 u u l q g u g q g g g j j s s a g g g g g g           o.o.o.o.o.o.o o o o o o o o o o o o o o o o o           j j j g g g g g g g g a g a u a u 0 0 0 5 6 6 5 e u = 6 ",
"@ @ @ $ $ $ u 0 g g g g a g a g s g j a g g             o.o.o.o.o.. . . . . . . . . . . . . . . . . X X X X X X o o o o o             h g a u g u g g 0 0 0 $ $ $ # @ @ @ O @ @ + ",
"@ # # $ $ $ 0 0 q l g q g q g g j g g a a a             o.o.o.o.o.. . . . . . . . . . . . . . . . . X X X X X X o o o o o             h h g g g g g g 0 0 0 $ $ $ # # @ @ @ @ @ # ",
"# # O $ $ $ 0 0 a a g u g g j j a g s s a s             o.o.o.o.o.. . . . . . . . . . . . . . . . . X X X X X X o o o o o             g s g u h g q g 0 0 0 $ = $ # O O @ @ @ @ # ",
"< > : < , < e 2 9 9 9 u s q s s s g g g g g             o.o.o.o.o.. . . . . . . . . . . . . . . . . X X X X X X o o o o o             g g u u u 0 0 0 3 3 3 1 1 w w w > w > w > ; ",
"< > : < w < e e 9 9 9 u s s s j g j g g g g             o.o.o.o.o.. . . . . . . . . . . . . . . . . X X X X X X o o o o o             g u u u u 0 0 0 3 3 3 1 < ; - - > w > w > ; ",
": : : w < , e e 0 0 0 u g s j j s g g g g g             o.o.o.o.o.. . . . . . . . . . . . . . . . . X X X X X X o o o o o             u g u u u 0 0 0 2 3 3 , , ; ; > > > > > > - ",
"} } } I I I < < $ $ $ 0 0 9 j j j a g g g g             o o o o o . . . . . . X X X X X X X X X X X o.o.o.o.o.o.o o o o o             g g 0 0 0 $ $ $ , < < K K I } } } } } } } } ",
"} } } K K K < < $ $ $ 0 0 0 j j j g g u g g             o o o o o . . . . . . X X X X X X X X X X X o.o.o.o.o.o.o o o o o             g g 0 0 0 $ $ $ , < < P I I } } } } } } } } ",
"} } } K K K , < $ $ $ 0 8 8 j j a g g g g a             o o o o o . . . . . . X X X X X X X X X X X o.o.o.o.o.o.o o o o o             g g 0 0 0 $ $ $ w < w P I I } } } } } } } } ",
" .X.X.[ { { i i , , < 3 3 2 = e 6 e 6 6 e 5             o o o o o . . . . . . X X X X X X X X X X X o.o.o.o.o.o.o o o o o             5 5 e e e , w , y i i { { [  . . .X. .X.X.X.",
" .X...{ } | i i , , , 2 2 2 q 0 5 5 6 6 6 5             o o o o o . . . . . . X X X X X X X X X X X o.o.o.o.o.o.o o o o o             6 5 e e e < , , y i i { { |  . . .X.X. .X.X.",
"X.X. .| | | i i , , , 4 u * u e = 5 u e 0 5             o o o o o . . . . . . X X X X X X X X X X X o.o.o.o.o.o.o o o o o             6 6 2 a % w , , y i y { { { X. . . . .X.X...",
"_ _ _ / / / { { P P P , < ; O O $ O O # @ @             o o o o o . . . . . . X X X X X X X X X X X o.o.o.o.o.o.o o o o o             @ @ < < < I K I { { { ( ( ( _ _ _ _ _ _ _ _ ",
"_ _ _ / ( / { { I P I < < < O O @ # # # # @             o o o o o . . . . . . X X X X X X X X X X X o.o.o.o.o.o.o o o o o             @ @ , < < K K I { { { ( / ( _ _ _ _ _ _ _ _ ",
"E E E ^ ^ ^ ' ' Q ! ! t t r & & * * & & * *             o o o o o . . . . . . X X X X X X X X X X X o.o.o.o.o.o.o o o o o             * * r r r Q Q Q ' ] | W W ^ E E E R R R H E ",
"U U E W W W ' ] ! ! Q t t t * * * % % & & &             o o o o o . . . . . . X X X X X X X X X X X o.o.o.o.o.o.o o o o o             * & r t t Q Q Q ' ' ' W W W R R R E R E E R ",
"E E E W W W ' ' Q Q ! t t t & & * * % & & &             o o o o o . . . . . . X X X X X X X X X X X o.o.o.o.o.o.o o o o o             * * t r r Q Q ! ' ' ' W W W R R R R R E R Y ",
"b M B n n n V V F F F A J A A Z A S Z S Z S             o o o o o X X X X X X o.o.o.o.o.o.o.o.o.o.o.o.o.o.o.o.o.o o o o o             A A A A A F A V V V V n n n B B M M M b M M ",
"M M B n n n V V F F F A V A S A S S S A A Z             o o o o o X X X X X X o.o.o.o.o.o.o.o.o.o.o.o.o.o.o.o.o.o o o o o             Z S Z A A C F F V V V n n n B b b M b M M M ",
"M b M M n n V V F F F A A A S Z Z S S Z F Z             o o o o o X X X X X X o.o.o.o.o.o.o.o.o.o.o.o.o.o.o.o.o.o o o o o             S Z C Z V C C C V V V M n n b b M b b b M b ",
"g a g a q g q g c c c H H H R U R R R R R E             o o o o o X X X X X X o.o.o.o.o.o.o.o.o.o.o.o.o.o.o.o.o.o o o o o             E R J J G c c v j g j g g g u j g g a g g h ",
"g g a g g u g g c c c H H H R R R R R R U U             o o o o o X X X X X X o.o.o.o.o.o.o.o.o.o.o.o.o.o.o.o.o.o o o o o             E U J G G v v v j g q g q g a h u g q q g h ",
"a g g u g g g a c c c H H H R R R R R R R J             o o o o o X X X X X X o.o.o.o.o.o.o.o.o.o.o.o.o.o.o.o.o.o o o o o             R E G G G v v v s g g g g u g g a a q g g g ",
"g a l q a j j j l l l z c c B M b n B b M b b b c c c c           o o o o o o o o o o o o o o o o o o o o o o o           b b b M b M n B c b c l l l g u g a g g g g g g u g g u ",
"g g a l j a j s j l g b z c M M b b b M b M M M B z b c           o o o o o o o o o o o o o o o o o o o o o o o           b b b B b b M B z c c l l l h g g g j u g g g a g u g h ",
"5 5 5 4 0 0 q s j g g g a g a q a g g g g g a a g g g a           o o o o o o o o o o o o o o o o o o o o o o o           g g g g a u g g g q g g g u u u u 0 0 9 5 5 6 5 e 5 5 5 ",
"5 5 5 0 0 0 s q j g u g g g g g g g q g u a g g g u g g           o o o o o o o o o o o o o o o o o o o o o o o           s a g g k u h g u g g g u g u u u 0 0 0 6 5 e 5 5 4 5 5 ",
"e e 5 u 0 0 a a j s g s q g g g g g g g g g a g g j g a           o o o o o o o o o o o o o o o o o o o o o o o           a g s g g u u a g g g g u g a a q 0 0 0 6 5 5 e u * u 5 ",
"@ # O $ = = 6 0 g g a g g a a a q g q g s j s g s s g s g q g 0 0                                               g g l a g g q g h h g g u g u g g u a 0 9 9 $ $ $ @ @ + # # @ # @ ",
"# # O $ = = 0 0 a g g a j j q a u u g h g h a s s a g a q g g 9 0                                               g g l q q g g g u h g g k g j j g u a 0 0 9 $ $ $ O @ + # O O O @ ",
"@ O O $ = = 0 0 g s s g g s a s g u g h s g g g j g g s g a a 9 9                                               g a q q l u g u g g g u a g u u u a a 0 0 0 $ $ $ @ @ + + O @ @ @ ",
"< : > < < w e 2 s a 2 s 8 a j j s a a j s g g g g q s q 0 0 0 2 e                                               q q a g g a a a g g a u g a q u 0 0 0 u e e w w w > - ; : : : ; ; ",
"> > : < , < 2 2 $ a q s 8 a j s j g a g a g a s g q q s 0 0 0 5 e                                               q q g a g a g a a g g g g q u u 0 0 0 * e e w w w > - ; : : : : ; ",
"> > > < w < 2 2 0 0 0 q s a a s g g g g s g a g g q s q 0 0 0 2 4                                               q q g j g g a g g u g u s u u u 6 6 s e e e w w 1 - - ; ; < ; ; ; ",
"} } } I I I , < $ $ $ 0 8 0 s s s g g a a g g g a 0 0 0 $ $ $ < < K K K } } } } } } } } } } } K K K < , < $ $ $ 0 0 g j a u g g g a g g g 0 0 0 $ $ $ w < < I I K } } } } } } } } ",
"} } } I K K , , $ $ $ 0 8 a a x g g h g g g g g u 0 0 0 $ $ $ < , I I K } } } } } } } } } } } K I I , w w $ $ $ 0 0 a s h u h u u g q g s 0 0 0 $ $ $ < , , I I K } } } } } } } } ",
"} } } K K K w < $ = $ 0 8 0 a c g s g j g u g g h 0 0 0 $ $ $ , , K K K } } } } } } } } } } } K K I < < , $ $ $ 0 0 s j g h h h g g j g j 0 0 0 $ = $ , , : K I K } } } } } } } } ",
"X...X.{ { { i i < 1 < 2 * q 5 $ 6 5 * 6 5 6 6 e 5 e e 2 < < < i i { { { ....X.X. . .X...X.X.X.{ ~ { i i i , < w 3 3 e s * u 5 5 5 5 6 0 6 2 2 2 , < w i i i { { ~ X...............",
"X.X. .{ { { i i , < , 2 3 3 0 0 6 5 u 8 5 2 5 5 5 2 e e < < < i i { { { .... . .X.X.X...X.X.X.{ { { i i i w < , 3 3 s $ 0 0 5 0 e 5 2 5 5 2 2 2 w , , i i i { { |  ...............",
"_ _ _ ' ( ( { { I I I , < < @ @ @ @ @ O O O @ @ @ < < < I P P ~ { ( ( ( _ _ _ _ _ _ _ _ _ _ _ ( / ( { { { I I I w 1 @ @ @ @ @ @ @ O O # # < , , I P P ~ { { ( ( ( _ _ _ _ _ _ _ _ ",
"_ _ _ / ( ( { { I I I , w < @ @ @ @ @ O O O @ @ @ < < < P P P { { ( ( ( _ _ _ _ _ _ _ _ _ _ _ ( / / { { { I I I w < # @ @ @ @ @ @ O O O @ w , w I P P ~ { { ( ( ( _ _ _ _ _ _ _ _ ",
"_ _ _ ( ( ( { { I I I < w < @ @ @ @ @ O O O O O @ < < < P P P { { ( ( / _ _ _ _ _ _ _ _ _ _ _ / ( ( { { { I I I < w @ @ @ @ @ O O O O O @ < w , P P P { { { ( / ( _ _ _ _ _ _ _ _ ",
"E U U ^ ^ ^ ] ] ! ! Q t r r * * * & & & & & & & * r r r Q Q Q ' ' W W W R R R R R R R R R R R W ^ ^ ] ' | ! ! ! t t * * * & & & * * * * * t t t Q Q Q ' ' ' W W W R R R R R R R E ",
"E U R ^ W W ] ] ! ! ! r t t * * * & & & & & & & % t t t Q Q Q ' ' W W W R R R R R R R R R R E W W W ] ] ] ! ! ! t t * * * * & & & & * & & r t t Q Q Q ' ' ' W W W R R R R R R R E ",
"E E R ^ W W ' ' ! ! ! r t t * % * & & & * * & & % t t r Q Q Q ' ' W W W R R R R R R R R E E R W W W ' ' ] ! ! ! t t * * * * * * & & * * * t t t Q Q Q ' ' ' W W W R R R R R R R E ",
"b B B m n m V V F F F A A A S Z S S Z Z S S S H A A A A F F F V V n n n b M b M b M b B B B B m n m V V V F F F A A A Z Z S S S A S Z S A A A A F F F V V V n n M b M b b M b M M ",
"B B B M m m V V F F F A A A S S Z S S S S S S S S A A A F F F V V n n n B n M b M M M M B B B m n n V V V C F F A A Z Z Z Z S S Z Z S S Z A A A F F F V V V n n n M b M M b M M M ",
"B B b n m m V V F C C Z V Z Z Z Z A S Z Z Z S S S Z A A C C F V V n n M M B b B M M M M b B B M n n V V V F C A F Z Z Z Z Z Z Z A Z Z Z A Z V A C C V V V V n M n b b n b b b B M ",
"g g g a g g g u c c c G J J R R R E E U R R E E E H G G z c c g a g g g g g a g g g g q g g g a g q g g g c c c J J R R R E E Y R U E E E J J G z z b g g g g q u h u g q g g g g ",
"g u g g u g g a c c N J G G E R R R R R R R R R E G G G v c c g g s s g a g g g a g g a a g a g g g g a g c c b J G R R R E E Y R R E E E J G G c c c g g a g a g q g g g g g g g ",
"g g k u a g g g l l k z z B M M M M B B b M M M B M z z l l l u a g j a u g u a a a k q g g q g h u g g k k l l c z M b M M b M M B M M M B z z l l l g u g g g g g g g a a q g g ",
"g g g a u g g g l l l b c z c M M b M b M b M b B z z z l l l h j g a g a g g a a a g g a q g g g g g g g l l l z c M B M M M b M b M b B z z z l l l g a q g g q g g a a a g a q ",
"a u j u g j g g l l l c z c B B b M b M b M b M M z z z l l l s s g g s g j u a a a g g g g a g g u g g g l l l c c M M M B b M b M b M B c z z l l l g g g g a a g a q a a g u u ",
"a g g g j h j s u a a g g g g h g g g g h u g h g u g a a g g g g a g j s g g a u a g q a g g g g g g j a j h u u g u g g g u g g u u h g u a u g g u g g g q a g g g g g g a a g ",
"u g u g j j j g g g g a u g h g g u g u h u g h g q a q g g q g s g a s g a u g g g g g g g a q g g j j g g g g g g g g u g g g g g g g g q g a a u g g a g g g g a q g a g g g g ",
"j g g a g g g s u g g g u g g u g g g g g u g g g g u g g a g u u g a g g g g a g a g a g q g g a g j j j g g g j j j g g g g u g u g g u g g q a q g g a g g g g g g g q g g g a "
};
