/* XPM */
static char *_981a8d0237b4657c14f32901759b4bcRR3k3XYx9kNzEQfJ[] = {
/* columns rows colors chars-per-pixel */
"89 89 137 2 ",
"   c #000000",
".  c #0B0601",
"X  c #02000C",
"o  c #130B00",
"O  c #1D0F01",
"+  c #1D1000",
"@  c #040410",
"#  c #251401",
"$  c #2F1D00",
"%  c #321D00",
"&  c #311E0D",
"*  c #3D2501",
"=  c #3F2900",
"-  c #070022",
";  c #09002E",
":  c #0C0C2E",
">  c #170B22",
",  c #0C0433",
"<  c #0C0C30",
"1  c #0F0C3B",
"2  c #110C3C",
"3  c #3A2232",
"4  c #3E2C3C",
"5  c #442501",
"6  c #402900",
"7  c #482801",
"8  c #553100",
"9  c #5B3100",
"0  c #643E00",
"q  c #693A00",
"w  c #4B3530",
"e  c #6D4200",
"r  c #724401",
"t  c #7A4200",
"y  c #0F1040",
"u  c #120151",
"i  c #16016A",
"p  c #181063",
"a  c #1B176B",
"s  c #1C1D70",
"d  c #402F41",
"f  c #471E6A",
"g  c #844C01",
"h  c #8A4D00",
"j  c #8E5B00",
"k  c #925500",
"l  c #985600",
"z  c #905A00",
"x  c #9D5C00",
"c  c #A35D00",
"v  c #A95F00",
"b  c #A76101",
"n  c #A96100",
"m  c #AD6800",
"M  c #B16500",
"N  c #B76A00",
"B  c #BE6D01",
"V  c #B47001",
"C  c #BF7900",
"Z  c #995B24",
"A  c #9C5F33",
"S  c #9D673A",
"D  c #C37101",
"F  c #C87400",
"G  c #C27A01",
"H  c #CE7B00",
"J  c #C27E0F",
"K  c #D27D00",
"L  c #C97A2F",
"P  c #CA7C31",
"I  c #A15B51",
"U  c #A06B41",
"Y  c #A76B63",
"T  c #AD7870",
"R  c #CE8400",
"E  c #D08300",
"W  c #DB8500",
"Q  c #E48E00",
"!  c #EA9100",
"~  c #F09601",
"^  c #F39900",
"/  c #FB9F00",
"(  c #FFA200",
")  c #CA8730",
"_  c #CE863A",
"`  c #CF8A3F",
"'  c #1F008B",
"]  c #1F0197",
"[  c #20018C",
"{  c #210097",
"}  c #220198",
"|  c #230C98",
" . c #331597",
".. c #24258F",
"X. c #2600AF",
"o. c #350AAF",
"O. c #2811A9",
"+. c #2600B0",
"@. c #2701B9",
"#. c #2801BA",
"$. c #2C25B1",
"%. c #3C2FB2",
"&. c #3031BF",
"*. c #501E97",
"=. c #511F98",
"-. c #5F298B",
";. c #522B98",
":. c #623698",
">. c #572FA9",
",. c #413BBF",
"<. c #634D8E",
"1. c #5C43B1",
"2. c #6C4EB2",
"3. c #614FBF",
"4. c #6F5ABF",
"5. c #7159BF",
"6. c #2C0CC7",
"7. c #2E0DC9",
"8. c #2E10CA",
"9. c #2F18C8",
"0. c #321CD7",
"q. c #302AC2",
"w. c #3031C1",
"e. c #3334CE",
"r. c #3626DF",
"t. c #3626E1",
"y. c #3831E1",
"u. c #3C31EF",
"i. c #3C36F2",
"p. c #3E3DF0",
"a. c #3F3CFB",
"s. c #483BE2",
"d. c #614EC1",
"f. c #634FCC",
"g. c #6653D0",
"h. c #4D47EF",
"j. c #4241FF",
/* pixels */
"( ( ( ( ( ( ( ( ( ( ( ( ( ( ( ( ( ( ( ( ( ( ( ( ( ( ( ( ( ( ( ( ( ( ( ( ( ( ( ( ( ( ( ( ( ( ( ( ( ( ( ( ( ( ( ( ( ( ( ( ( ( ( ( ( ( ( ( ( ( ( ( ( ( ( ( ( ( ( ( ( ^ ~ K K K D D D ",
"( ( ( ( ( ( ( ( ( ( ( ( ( ( ( ( ( ( ( ( ( ( ( ( ( ( ( ( ( ( ( ( ( ( ( ( ( ( ( ( ( ( ( ( ( ( ( ( ( ( ( ( ( ( ( ( ( ( ( ( ( ( ( ( ( ( ( ( ( ( ( ( ( ( ( ( ( ( ( ( ( ! ~ K K K D D D ",
"( ( ( ( ( ( ( ( ( ( ( ( / ( ( ( ( ( ( ( ( ( ( ( ( ( ( ( ( ( ( ( ( ( ( ( ( ( ( ( ( ( ( ( ( ( ( ( ( ( ( ( ( ( ( ( ( ( ( / ( ( ( ( ( ( / / ( ( ( ( ( ( ( ( ( ( ( ( ( ! ^ K K K D D D ",
"( ( ( ( ( ( ( ( ( ( ( ( ( ( ( / / ( ( ( ( ( ( ( ( ( ( ( ( ( ( ^ ^ R R R C C C C C C C C G C C C C C C C C C C C C C R R R Q Q Q ~ ~ ~ ~ ~ ~ ~ ~ ! ~ ! ~ ~ ~ ~ ~ ^ Q Q H H H D D D ",
"( ( ( ( ( ( ( ( ( ( ( ( ( ( ( / ( ( ( ( ( ( ( ( ( ( ( ( ( ( ( ^ ^ R R R C C C C C G C C C R G C C C C C C C C C C C C R R Q Q Q ~ ~ ~ ~ ~ ~ ~ ~ ^ ~ ~ ^ ~ ~ ~ ~ ~ Q Q H H H D D D ",
"( ( ( ( ( ( ( ( ( ( ( ( ( ( ( / / ( ( ( ( ( ( ( ( ( ( ( ( ( ( ^ ^ R R R C C C C C G C C C C C C C C C C C C C C C C R R R Q Q Q ~ ~ ~ ~ ~ ~ ~ ~ ^ ! ! ^ ~ ~ ~ ~ ~ Q Q H H H D D D ",
"( ( ( ( ( ( ( ( ( ( ( ( ( ( ( ( ( ( ( ( ( ( ( ( ( ( ( ( ( ( ( R R e e r = = = = = = = = = = 6 6 6 6 6 6 6 = = = = = 0 0 0 m m m K K K K K K K K K K K K K K K K K H H D F D D D D ",
"( ( ( ( ( ( ( ( ( ( ( ( ( ( ( ( ( ( ( ( ( ( ( / ( ( ( ( ( ( ( R R e r e = = = = = = = = = = 6 6 6 6 6 6 6 = = = = = 0 0 0 m m m K K K K K K K K K K K K K K K K K H H F F D D D D ",
"( ( ( ( ( ( ( ( ( ( ( ( / ( / / / ^ ^ ^ ^ ^ / / / ~ ^ ^ R R R j j $ $ $                                             # # $ e e q c x x N N D D F D D D D D B D D D D D D D D D D D ",
"( ( ( ( ( ( ( ( ( ( / ( ( ( / / / ^ ^ ^ ^ ^ / / / ^ ~ ^ R R R j j $ $ $                                             # # # e e e x x x N N D D F D D D D D D D D D D D D D D D D D ",
"( ( ( ( ( ( ( ( ( / ( ( ( ( / / / ^ ^ / ^ ~ / / / ~ / ^ R R R j j $ $ $                                             # # # e e q x x x N N D F D D D D B D D D D D D D D D D D D D ",
"( ( ( ( ( ( ( ( ( ( ( ( ( ( ^ ^ / W W W Q Q ^ ^ ^ R R W r r r $ $ o o o                                             o . . # # # 8 8 8 x x D D D D D D D D D D D D D D D D D D D D ",
"( ( ( ( ( ( ( ( ( ( ( ( ( ( ^ ^ ^ Q W W Q W ^ ^ ^ R R R e r r $ $ o o o               X                             . . . # # # 8 8 8 x x D D D D D D D D D D D D D D D D D D D D ",
"( ( / ( ( ( ( ( ( ( ( ( ( ( ^ ^ ^ W W W W W ^ ^ ^ R R R e e r $ $ o o o                                           . . . . # # # 8 8 8 x x D D D D B D D D D D D D D D D D D D D D ",
"( ( ( ( ( ( / ( ( / / ^ ^ ~ ~ ! ! W W H H H C C R j j j * $ $   .       @ X X - - - - - @ X X X X X - - - - - - @ X     .       # # # e e x x x N N N D D D D D D D D D D D D D B ",
"( ( ( ( ( ( ( ( / / / ^ ^ ~ ! ! Q W W H R H R C C j j j $ $ $   . .     . @ X @ - - - - X @ X X X X - - - - - - X X             # # # e q c x x N N N D D D D D D D D D D D D D D ",
"( ( ( ( ( ( ( ( / / / ~ ~ ^ ! ! ! K W K H K G G R j j j $ $ $           X X X - - - - - X X X X X X - - - - - - @ @             # # # e e c x x N N N D D D D D D D D D D D D D D ",
"( ( ( ( ( ( / ( / ^ ^ Q K Q Q K K ! ! F G G e e e $ $ $ . o o           - - - i i i i i - - - - - - i i i i i i - -             . . . # # 8 8 8 x x x D D D D D D D D D D D D D D ",
"( ( ( ( ( ( ( ( ^ ^ ~ W Q Q K K K ! ! F G G e e e $ $ $ o . o           - - - i i i i i - - - - - - i i i i i i - -             . o . # # 8 8 8 x x x D D D D D D D D D D B D D D ",
"( / / ( ( ( ( / ^ ^ ^ Q K Q K Q Q ! ! F R G e e e $ $ % o o o           - - @ i i i i i - - - - - - i i i i i i - -             . . . # # 8 8 8 x x x D D D D D D D D D D D D D D ",
"~ ~ ~ ~ ~ ~ ~ ~ ! ! ! W W W K K H G R j j j $ $ $             X X - - - u u u { } { ' ' ; - ; ; , , ' ' ' } { { u u - - - @ X X           # # # q r r l l x v n c N M B B B D D D ",
"~ ~ ~ ~ ~ ~ ~ ~ ! ! ! K W W H E H C C j j j $ $ %             X X - - - u u u { { } ' ' ; ; ; ; , ; ' ' ' } { { u u - - - @ X X           # # # r q q x x l v m v N N B B D D D D ",
"K K K K K K K K W K K ! Q ! G G G e e $ $ $ . o o             - - i i i { { { X.X.X.' ' ; ; ; ; ; , ' [ ' +.+.+.] } i i i - - -           o . . # # # 5 5 7 t t q l l M M N D D D ",
"K K K K K K K K W W W Q ! ! G G G e e $ $ $ o . o             - - i i i { { { X.X.X.' ' ; ; ; ; ; ; ' ' [ +.+.+.} ] i i i - - -           o . . # # # 5 7 7 r q t l l M M M D D D ",
"K K K K K K K K W W K ! ! ! G G G e e $ % $ o o o             - - i i i } } } X.X.X.' ' - ; ; ; ; ; [ ' [ X.X.X.{ { i i i @ ; -           . . o # # # 7 7 7 q q t l l N M N D D D ",
"D D D D D D D D H H H Q Q Q N V V = =             X X X - - - u u } } } #.#.#.#.@.@.' ' ; ; ; ; ; ; ' ' [ @.@.@.@.@.{ { { u u u @ - ; X X             # # % q q q l k v v v M m M ",
"F D D D D D D D H H H Q Q Q V V V * *             X X X - - - u u } } } #.#.#.#.@.@.' ' ; ; ; ; ; ; ' ' [ @.@.@.@.@.{ { } u u u - - - X X             # # # q q q k l v b v m M m ",
"D D D D D D D D H H H Q Q Q V V V * *             X X X - - - u u } } } #.#.#.#.@.@.' ' ; ; ; ; ; , ' ' [ @.@.#.@.@.{ { { u u u - - - X X             # # # q q q k l c b v v M m ",
"D D D D D D D D D H F H H H x x x * $             - - - i i i } } X.X.X.#.#.#.#.@.@.' ' ; ; ; ; ; ; ' ] [ #.#.#.@.@.X.X.X.{ { { i i i - -             $ # % t g h v v l k l h h h ",
"D D D D D D D D F D F H H H x x x $ *             - ; @ i i i } } X.X.X.#.#.+.#.@.@.' ' ; ; ; ; ; ; ' ' [ #.#.#.@.@.X.X.X.{ { { i i i - -             $ % % h h g v v h k l h h h ",
"D D D D D D D D F J F K H K x x x % *             - - - i i i } } X.X.X.#.+.#.#.@.@.' ' ; ; ; ; , ; [ [ [ #.@.@.@.@.X.X.X.{ { { i i i - -             $ # % g g g v c l l l h h g ",
"M M M M M M M M M M M n M n g g g $ # X X X - - - u u u } } } #.#.#.#.#.#.#.#.#.@.+.' ' ; ; ; ; ; , ' ' [ @.@.@.@.@.@.@.@.@.@.@.} } } u u - - - X @ @ $ % # g g g c c h h h t q t ",
"M M M N M M M N M M M N M M g h g $ % X X X - - @ u u u } } } +.#.#.#.#.#.#.#.@.@.#.[ [ - ; ; ; ; ; [ [ [ @.@.@.#.#.#.#.#.#.@.#.{ { { u u @ - - @ @ X $ $ $ g g g c v h g h t t t ",
"h h h h h h h h h h h h h h q q q # # - - - i i i } } } X.X.X.#.#.#.#.+.#.#.#.#.@.@.[ [ ; ; ; ; ; ; [ [ [ @.+.@.#.@.#.+.@.#.@.#.X.X.X.{ } i i i - - - # # # q q q g h t t t q t t ",
"h h h h h h h h h h h h h h q q q # # - - - i i i } } } X.X.X.#.#.#.#.#.+.#.@.#.@.@.' ' ; ; ; ; , ; [ ' [ @.@.@.#.#.#.#.#.#.#.#.X.X.X.{ } i i i - - - # # # q q q h h g t h t t t ",
"h h h h h h h h h h h h h h q q q # # - - - i i i } } } +.+.X.#.#.#.#.#.#.#.@.#.@.@.' ' ; ; ; ; ; ; ' ' [ @.@.@.@.#.@.#.@.#.#.+.X.X.X.} } i i i - - - # # # q q q g t t t t t t t ",
"q 9 9 9 9 9 9 9 q 9 9 9 9 9 5 5 5 o O , ; , ' [ { #.#.#.#.#.#.#.#.@.@.#.#.6.#.8.6.6.| | , , , , , , | | | 6.6.6.#.6.#.#.#.@.@.@.#.#.#.#.X.' ' ' , ; ; o o O 5 5 5 9 9 9 9 9 9 9 9 ",
"9 9 9 9 9 9 9 9 9 9 9 9 9 9 5 5 5 o o ; ; ; ' ' [ #.#.#.#.#.#.#.#.@.@.#.#.#.#.7.6.6.| | , , , , , , | | | 6.6.6.6.#.#.#.#.@.@.@.+.#.#.@.+.' ' ' ; ; ; o o o 5 5 5 9 9 9 9 9 9 9 9 ",
"9 9 9 9 9 9 9 9 9 9 9 9 9 9 7 7 5 o O ; ; , [ [ [ #.#.#.#.#.#.#.#.#.#.#.#.#.#.9.7.6.| | , , , , , , | | | 6.6.6.#.#.#.#.#.@.@.@.@.#.#.@.@.[ ' [ ; ; ; o O o 5 5 5 9 9 9 9 9 q 9 9 ",
"O O O O O O O O O O O O O O o o O .   , ; ; [ [ [ +.#.#.#.#.+.#.#.#.#.#.9.7.7.t.t.t.$.$.1 1 1 1 1 1 $.$.$.t.t.t.7.7.@.#.#.#.#.#.#.#.@.@.@.[ ' ' ; ; ; . . . o o O O O O O O O O + ",
"O O + + + + + + O O O O O + O o o . . , ; ; ' ' [ @.#.#.#.@.#.#.@.@.#.#.6.6.6.t.t.t.$.$.1 1 1 1 1 1 $.$.$.t.r.r.7.7.#.#.@.#.#.#.@.#.@.@.#.[ [ ' ; ; ; . . . o o O O O O + + + + + ",
"+ + + O + + + + O + O O + + o o O     , ; , [ [ [ @.#.@.#.#.#.#.#.#.#.@.6.6.6.t.t.t.$.$.1 1 1 1 1 1 $.$.$.r.r.r.7.7.#.#.#.+.#.#.@.@.#.#.@.[ [ [ ; ; ; .   . O o o O O O O O + + + ",
"      o o o % $ $ $ % o o o @ X X - - u u u } } } #.#.6.7.7.7.7.9.9.7.7.0.0.0.i.i.i.w.w.y y y y y y &.&.w.i.i.i.0.0.7.6.7.6.#.#.@.@.#.#.@.} { { u u u - - - X X X . o # # # % $ % ",
"      o o o $ $ $ $ $ . o o X X X - - u u u } } } 6.#.#.7.7.7.7.7.7.7.7.0.0.0.i.i.i.w.w.y y y y y y &.&.w.i.i.i.0.0.6.6.7.#.#.6.@.@.@.#.#.} { { u u u - - - X X X . . # # # % % % ",
"      o o o $ $ $ $ % o o o X X X - - u u u { { ] 6.#.6.7.6.6.8.7.7.8.8.0.0.0.i.i.i.&.&.2 y y y y y &.&.w.i.i.i.0.0.7.7.7.#.#.6.@.@.@.@.@.{ } } u u u @ - - X X X o . # # # % % % ",
"      $ $ $ j j j j j $ $ & @ - - i i [ { { X.X.+.6.7.6.r.r.r.u.u.u.u.u.i.i.a.a.a.j.&.&.y y y y y y w.w.w.a.a.a.i.u.t.t.r.7.6.6.@.@.@.@.@.+.+.+.] ] } i i i - - - # # r q e k k k ",
"      $ $ $ j j j j j $ $ $ - - - i i { { { X.X.+.6.6.6.r.r.r.u.u.u.u.u.i.i.i.s.a.a.w.&.y y y y y y w.w.w.a.a.a.i.i.t.t.t.7.6.6.@.@.@.@.@.+.+.+.] } } i i i - - - # # q r e k k k ",
"      = = = C C C C C 6 = = > > > f f -.-.-.-.-.-.>.>.>.s.s.s.j.j.j.j.j.j.j.j.j.j.j.&.&.y y y y y 1 &.&.w.a.j.j.j.s.u.u.s.7.7.7.o.o.o.=.=.-.-.-.-.-.-.f f f > > > % % k k k D D D ",
"      6 6 6 R C C C C = = = > > > f f -.-.-.-.-.-.>.>.>.s.s.s.j.j.j.j.j.j.j.j.j.j.j.&.&.y y y y y y w.w.&.j.j.j.j.j.u.u.u.8.8.8.o.o.o.=.=.-.-.-.-.-.-.f f f > > > % % k k k D D D ",
"      6 = = C C C C C = = = > > > f f -.-.-.-.-.-.>.>.>.s.s.s.j.j.j.j.j.j.j.j.j.j.j.&.&.y y y y y 1 &.&.&.j.j.j.j.j.u.i.u.6.8.8.o.o.o.=.=.-.-.-.-.-.-.f f f > > > $ % k k k D D D ",
"      6 = = C C C C C = = = & & & Z Z L L L L P L Y Y Y f.f.f.j.j.j.j.j.j.j.j.j.j.j.&.&.y y y y y y &.&.&.j.j.j.j.j.i.u.i.8.8.8.*.*.*.I I P P P L L P Z Z Z & & & % % k k k D D D ",
"      6 = = C C C C C = = = & & & Z Z L L L L L L Y Y Y f.f.f.j.j.j.j.j.j.j.j.j.j.j.w.w.y y y y y y &.&.&.j.j.j.j.j.u.u.u.8.8.8.*.*.*.I I P P P L L P Z Z Z & & & % % k k k D D D ",
"      6 6 6 C C C C C = = = & & & Z Z L L L L P L Y Y Y f.f.f.j.j.j.j.j.j.j.j.j.j.j.&.&.y y y y y y &.&.&.a.a.j.j.j.u.u.u.6.9.8.=.*.*.I I P P P L L L Z Z Z & & & % % k k k D D D ",
"      6 6 6 G G C C C = = = $ $ $ z z G C C C C C U U U 3.3.d.j.j.j.j.j.h.h.h.g.g.g.<.<.w w w w w w <.<.<.g.g.g.h.h.i.i.i.0.0.0.;.;.;.A A C C C C C C j j j $ $ $ $ $ k k z D D D ",
"      6 6 6 C C C C C = = = $ $ $ z z C C C C C C U U U 3.3.3.j.j.j.j.j.h.h.h.g.g.g.<.<.w w w w w w <.<.<.g.g.g.h.h.i.i.i.0.0.0.;.;.;.A A C C C C C C j j j $ $ $ % % k k k D D D ",
"      6 6 6 C C C C J = = = $ $ $ z z C C C C C C U U U 3.3.3.s.j.j.j.j.h.h.h.g.g.g.<.<.w w w w w w <.<.<.g.g.g.h.h.i.i.i.0.0.0.;.;.;.A A C C C C C C j j j $ $ $ % $ k k k D D D ",
"      5 = = C C C C C 6 6 5 o . o % $ 6 6 6 6 6 = d d d ,.,.,.j.j.j.j.j.g.g.g.T T T ) ) J J J J J J ) ) ) T T T g.g.a.a.a.i.i.i.%.%.%.4 4 * 6 6 6 = = $ $ $ o . . % % k k k D D D ",
"      = = = C C C C C = 6 6 o o o % $ 6 6 6 6 6 = d d d ,.,.,.j.j.j.j.j.g.g.g.T T T ) ) J J J J J J ) ) ) T T T g.g.a.a.a.i.i.i.%.%.%.4 4 = = = 6 = = $ $ $ o o . % % k k k D D D ",
"      * = = V V V V V = * * @ X X - - , , , 1 2 2 s s s e.e.e.j.j.j.j.j.4.4.4.` ` ` ^ ^ R R R R R R ~ ~ ^ ` ` ` 4.4.j.j.j.j.j.j.e.q.e.p p ; ; ; ; , ; - - - X X X $ # g g g M M M ",
"      * * * V V V V V = * * X X X - - , , , 2 2 2 s s s e.e.e.j.j.j.j.j.4.4.4.` ` ` ^ ^ R R R R R R ^ ^ ^ ` ` ` 4.4.j.j.j.j.j.j.e.e.w.p p , ; ; ; ; , - - - X @ X $ % g g h M M M ",
"      * * * V V V V V * * * X X X - - , < < 2 2 2 s s s e.e.e.j.j.j.j.j.4.5.5.` ` ` ^ ^ R R R R R R ^ ^ ^ ` ` ` 4.4.j.j.j.j.j.j.e.e.e.p p , ; ; ; ; ; - - - X X X $ # g g g M M M ",
"      * % $ x x x x x $ % * - - - i i | | | $.$.$.e.e.e.p.p.p.j.j.j.j.j.4.5.5.` ` ` R R r r r r e e R R R ` ` ` 4.4.j.j.j.j.j.j.y.y.r.O.O.' ' ] ' ' ' i i i - - - # # q q q h h h ",
"      % $ * x x x x x * $ * - - - i i | | | $.$.&.e.e.e.p.p.h.j.j.j.j.j.5.5.5.` ` ` R R r r r e r r R R R ` ` ` 4.4.j.j.j.j.j.j.y.y.y.O.O.' ' ' ' ' ] i i i - - - # # q q q h h h ",
"      * * * x x x x x % % % - - - i i | | | $.$.$.e.e.e.p.p.p.j.j.j.j.j.5.5.5.` ` ` R R r r r r r r R R R ` ` ` 4.4.j.j.j.j.j.j.y.y.y.O.O.' ' ' ' ' ' i i i - - - # # q q q g h h ",
"      % % % k k k k k % % % > > > f f :.:.:.2.2.2.g.g.g.h.h.h.j.j.j.j.j.3.3.3.U U U j j $ $ $ $ $ $ j j j U U U d.d.j.j.j.j.j.j.h.y.s.>.>.-.-.-.-.-.-.f f f > > > + + 8 9 9 q t t ",
"      % % $ k k k k k & % % > > > f f :.:.:.2.2.2.g.g.g.h.h.h.j.j.j.j.j.3.3.3.U U U j j $ $ $ $ $ $ j j j U U U d.d.j.j.j.j.j.j.s.s.s.>.>.-.-.-.-.-.-.f f f > > > + + 9 9 9 t t t ",
"      % % $ k k k k h % % % > > > f f :.:.:.2.2.2.g.g.g.h.h.h.s.j.a.j.j.3.3.3.U U U j j $ $ $ $ $ $ j j j U U U d.d.j.j.j.j.j.j.s.s.s.>.>.-.-.-.-.-.-.f f f > > > + + 9 9 9 q g t ",
"      % % $ k k k k k % % % & & & Z Z P P P _ _ _ T T T g.g.g.j.j.j.j.j.,.,.,.d d d $ $ o o o o o o $ $ $ d d d w.1.j.j.j.j.j.j.d.g.g.Y Y L L L L L P Z Z Z * & & + + 9 9 9 g q t ",
"      % % % k k k k k $ % % & & & Z Z P P P _ _ _ T T T g.g.g.j.s.j.j.j.,.,.e.d d d $ $ . o o . o o $ $ * d d d ,.,.j.j.j.j.j.j.f.f.f.Y Y L L L L L L Z Z Z & & & + + 9 9 9 t t t ",
"      % $ % k k k k k $ % % & & & Z Z P _ P _ _ _ T T T g.g.g.j.a.s.j.j.,.,.,.w d d $ $ . o o o o o $ $ $ d d d ,.&.j.j.j.j.j.a.f.f.f.Y Y ) L L P P L Z Z Z & & & + + 9 9 9 t t t ",
"      % $ $ k k k k k % $ % $ $ % j k C C C C C C S S S 1.1.1.i.u.u.u.s.q.q.q.a s a : : @ @ @ @ @ @ : : : a s s q.q.u.u.u.u.u.u.1.1.1.S S C C C C C G z j j $ $ $ + + 9 9 9 t t t ",
"      % $ $ k k k k k $ % % $ $ $ k j C C C C C C S S S 1.1.1.i.u.u.u.u.q.q.q.a a a : : @ @ @ @ @ @ : : : a a a q.q.u.u.u.u.u.s.1.1.1.S S C C C G C C z z z $ $ $ + + 9 9 9 t t t ",
"      * % % k k k k k $ % % o o o $ $ 6 = = = = * 3 3 3  . . .8.8.8.8.8.9.9.9.q.q.q.....< < : : : : ......q.q.q.9.9.8.8.8.8.8.8. . . .3 3 6 6 6 6 6 6 $ $ $ o o o O O 9 9 9 t t t ",
"      $ % % k k k k k $ % % . o o $ $ = = = = = * 3 3 3  . . .8.8.8.8.8.9.9.9.q.q.q.....< : , : : : ......q.q.q.9.9.8.8.8.8.8.8. . . .3 3 6 6 6 6 6 6 $ $ $ o o o O O 9 9 9 t t t ",
"      % % % k k k z k % % % o O o $ $ = = = = = = 3 3 3  . . .8.7.7.8.7.9.9.9.q.q.q.....< < : : : : ......q.q.w.9.9.8.8.8.8.8.8. . . .3 3 = = = = = 6 $ $ $ o . o O O 9 9 9 q t q ",
"      # # # e e e q e # # # X X @ - - ; ; ; ; ; ; u u u ] ] ] +.#.#.#.@.9.6.6.r.t.r.$.$.2 2 1 1 1 1 $.$.$.t.t.t.6.6.@.@.#.@.#.#.} } } u u ; ; ; ; , ; - - - X X X o O 5 5 7 9 9 q ",
"      # # # r e q r q # # # X X X - - , ; ; ; ; ; u u u ] ] ] @.#.#.#.#.6.6.6.t.t.t.$.$.2 2 2 1 1 1 $.$.$.t.t.t.7.6.#.#.#.#.#.@.} } { u u ; ; , ; , ; - - - X X X o o 5 5 5 9 9 9 ",
"      # # # e r q e e # # # X @ X - - ; ; ; ; ; ; u u u ] ] ] @.#.#.@.#.6.6.6.r.t.t.$.$.2 2 1 2 1 1 $.$.$.t.t.t.6.6.@.@.#.#.#.@.{ { { u u ; ; , ; ; , @ - - X @ X O O 5 5 5 9 9 9 ",
"      . o . # # # # # o . . - - - i i ' ' ' ' ' ' ] } ] +.+.+.@.#.#.#.#.#.6.6.6.6.6.| | , , , , , , | | | 6.6.6.6.@.@.@.#.@.@.@.X.X.X.{ { ' [ ' ' ' ' i i i - - -   . o o O O O O ",
"      . . . # # # # # . . . - - - i i ' ' ] ' ' ' ] ] ] +.+.+.@.#.#.#.#.#.#.#.6.6.6.| | , , , , , , | | | 6.6.6.#.6.@.@.@.@.@.@.X.X.X.{ { [ ' ' ] ' ] i i i - - - . . o o O O O O ",
"      . . . # # # # # . . . - - - i i [ ' ' ' ' ' ] { { X.X.X.@.@.@.#.+.#.6.#.6.6.6.| | , , , , , , | | | #.6.6.#.#.@.@.@.@.@.@.X.X.X.] ] ' ' ' ' ' ] i i i - - - . . o o O O O O ",
"        .                   - - - i i [ ' ' ' ' ' ' ' ' [ [ [ [ ' ' [ [ [ [ [ [ [ [ i i - - - - - - i i i ' ' ' [ ' ' ' ' ' ' ' ' ' ' ' ' ' ' ' ' ' ' i i i - - -                 ",
"                            - - - i i [ ' ' ' ' ' ' ' ' [ [ [ ' [ [ ' ' [ [ [ [ ' ' i i - - - - - - i i i ' [ ' [ [ [ [ ' [ ' ' ' ' ' ' ' ' ' ' ' ' ' i i i - - -                 ",
"                            X X X - - ; ; ; ; ; ; ; ; ; ; ; ; - - ; ; ; - ; ; ; ; ; - @ X X X @ X X - ; @ : ; ; ; ; ; ; ; - ; ; ; - ; ; ; ; ; ; ; ; ; - - - X X X                 ",
"X                           X X X - - ; ; ; ; ; ; ; ; ; ; ; > ; ; ; ; ; ; ; ; ; ; ; - - X X @ X @ X - - - ; ; ; ; ; ; ; ; ; ; ; ; ; ; ; ; ; ; ; ; ; ; @ - - X X X                 ",
"                            X X X - - ; - ; , ; ; ; ; ; ; ; ; ; ; ; ; ; ; ; ; ; ; ; - - X X X X X @ - - - ; ; ; - ; ; ; ; , ; ; ; , ; ; ; ; ; ; ; ; , - - - X X X                 ",
"                                                                                                                                                                                  ",
"                                                                                                                                                                                  ",
"                                                                                                                                                                                  "
};
