/* XPM */
static char *result[] = {
/* columns rows colors chars-per-pixel */
"36 36 119 2 ",
"   c #323821",
".  c #363821",
"X  c #343B22",
"o  c #353C22",
"O  c #3E3922",
"+  c #463923",
"@  c #473923",
"#  c #4A3924",
"$  c #563A25",
"%  c #6F3B28",
"&  c #743B28",
"*  c #7B3B29",
"=  c #7B3C29",
"-  c #394124",
";  c #3B4325",
":  c #3E4626",
">  c #404926",
",  c #404927",
"<  c #414A27",
"1  c #424B27",
"2  c #444E28",
"3  c #444C2C",
"4  c #48522A",
"5  c #4D592C",
"6  c #505C2D",
"7  c #6C542D",
"8  c #53602E",
"9  c #56632F",
"0  c #566430",
"q  c #5D6C32",
"w  c #5F6F33",
"e  c #637335",
"r  c #647435",
"t  c #647535",
"y  c #687937",
"u  c #687A37",
"i  c #697A37",
"p  c #707C3F",
"a  c #515741",
"s  c #545946",
"d  c #6E7D45",
"f  c #973D2C",
"g  c #AC3E2E",
"h  c #6E8039",
"j  c #6F8239",
"k  c #70833A",
"l  c #72853B",
"z  c #73863B",
"x  c #788D3D",
"c  c #7A8F3D",
"v  c #7E943F",
"b  c #7E9440",
"n  c #788554",
"m  c #80814E",
"M  c #809640",
"N  c #819740",
"B  c #839A41",
"V  c #849B42",
"C  c #90855D",
"Z  c #8A9C57",
"A  c #88A043",
"S  c #8AA145",
"D  c #8AA244",
"F  c #8CA545",
"G  c #8DA646",
"H  c #8FA946",
"J  c #8FA947",
"K  c #8FA249",
"L  c #90AA47",
"P  c #92AC47",
"I  c #93A34E",
"U  c #94AE48",
"Y  c #94AF48",
"T  c #95B049",
"R  c #96B149",
"E  c #99B44A",
"W  c #99B54B",
"Q  c #9BB74B",
"!  c #9CB84C",
"~  c #9DBA4C",
"^  c #9EBB4D",
"/  c #9FBC4D",
"(  c #95A450",
")  c #92A853",
"_  c #A2B256",
"`  c #A4BC52",
"'  c #A4BC53",
"]  c #988764",
"[  c #909E69",
"{  c #9CB062",
"}  c #A9AA63",
"|  c #B7BA68",
" . c #BBBA6E",
".. c #A6B872",
"X. c #C0BB72",
"o. c #C0B078",
"O. c #B7C065",
"+. c #CFCA7B",
"@. c #989B90",
"#. c #B2BF8F",
"$. c #AAACA3",
"%. c #CBB382",
"&. c #D7BD8A",
"*. c #DEBC93",
"=. c #BAC891",
"-. c #DDC38E",
";. c #ECC79C",
":. c #F1D29B",
">. c #C3CFA1",
",. c #F7D2A2",
"<. c #F8D2A4",
"1. c #FFD7A8",
"2. c #CCCDC8",
"3. c #CCD1C0",
"4. c #DDDEDA",
"5. c #E4E7DD",
"6. c #EBEFE0",
"7. c #EEEEED",
"8. c None",
/* pixels */
"8.8.8.8.8.8.8.8.8.8.8.8.8.8.8.8.8.8.8.8.8.8.8.8.8.8.8.8.8.8.8.8.8.8.8.8.",
"8.8.8.8.8.8.8.8.8.8.8.8.8.8.8.8.8.8.8.8.8.8.8.8.8.8.8.8.8.8.8.8.8.8.8.8.",
"8.8.8.8.8.8.8.8.8.8.8.8.8.8.8.8.8.8.8.8.8.8.8.8.8.8.8.8.8.8.8.8.8.8.8.8.",
"8.8.8.8.8.8.8.8.8.8.8.8.8.8.8.8.8.8.8.8.8.8.8.8.8.8.8.8.8.8.8.8.8.8.8.8.",
"8.8.8.8.8.8.8.8.8.8.8.8.8.8.8.8.8.8.8.8.8.8.8.8.8.8.8.8.8.8.8.8.8.8.8.8.",
"8.8.8.8.8.8.8.8.8.8.8.8.8.8.8.8.8.8.8.8.8.8.8.8.8.8.8.8.8.8.8.8.8.8.8.8.",
"8.8.8.8.8.8.8.8.8.                                    8.8.8.8.8.8.8.8.8.",
"8.8.8.8.8.8.8.8.    4 q q q q q e i i i i i i i i i r 1   8.8.8.8.8.8.8.",
"8.8.8.8.8.8.8.@ + . q A A A A A P ! ^ / ^ ! Q Q Q ~ G 2   8.8.8.8.8.8.8.",
"8.8.8.8.8.8.  & f + q A A A A A D H ! / ! H F F F T G 2   8.8.8.8.8.8.8.",
"8.8.8.8.8.8.  = g # q ) =.[ d #...F Q V k F U U U v w ;   8.8.8.8.8.8.8.",
"8.8.8.8.8.8.  % f + q { 6.@.s 4.>.F Q l 8 L / / / l < o   8.8.8.8.8.8.8.",
"8.8.8.8.8.8.  O + . q { 6.@.s 4.>.F Q R L ! / / / R b <   8.8.8.8.8.8.8.",
"8.8.8.8.8.8.8.  O % 7 n 5.2.$.7.>.F Q / / / / / / / G 2   8.8.8.8.8.8.8.",
"8.8.8.8.8.8.8.  # g * a 3.6.6.6.=.F Q / / / / / / / G 2   8.8.8.8.8.8.8.",
"8.8.8.8.8.8.8.  # g * 3 Z { { { ) F Q / / / / / / / G 2   8.8.8.8.8.8.8.",
"8.8.8.8.8.8.8.  O % $ , c A A A A D P W R l u u u u w ;   8.8.8.8.8.8.8.",
"8.8.8.8.8.8.8.8.      : h N A A D F F T L 8 ;             8.8.8.8.8.8.8.",
"8.8.8.8.8.8.8.8.8.8.  X : t A A P Q Q ~ ! L w   8.8.8.8.8.8.8.8.8.8.8.8.",
"8.8.8.8.8.8.8.8.8.8.8.    q K } X.+.+.+.+.+.m   8.8.8.8.8.8.8.8.8.8.8.8.",
"8.8.8.8.8.8.8.8.8.8.8.8.  q ( %.;.1.1.1.1.1.]   8.8.8.8.8.8.8.8.8.8.8.8.",
"8.8.8.8.8.8.8.8.8.        q ( %.;.1.1.1.1.1.]   8.8.8.8.8.8.8.8.8.8.8.8.",
"8.8.8.8.8.8.8.8.8.  5 i i x ( %.;.1.1.1.1.1.]   8.8.8.8.8.8.8.8.8.8.8.8.",
"8.8.8.8.8.8.8.8.8.  w J E P I o.-.:.,.<.,.:.C   8.8.8.8.8.8.8.8.8.8.8.8.",
"8.8.8.8.8.8.8.8.8.  ; 6 M D S I _ O.&.*.&.O.p   8.8.8.8.8.8.8.8.8.8.8.8.",
"8.8.8.8.8.8.8.8.8.8.  - 9 z D P W ' |  .| ` u   8.8.8.8.8.8.8.8.8.8.8.8.",
"8.8.8.8.8.8.8.8.8.8.8.    q F Q R G G Y ! ^ u   8.8.8.8.8.8.8.8.8.8.8.8.",
"8.8.8.8.8.8.8.8.8.8.8.8.  q F Q l 2 2 y H ! u   8.8.8.8.8.8.8.8.8.8.8.8.",
"8.8.8.8.8.8.8.8.8.8.8.8.  q B h 0     q B h 0 8.8.8.8.8.8.8.8.8.8.8.8.8.",
"8.8.8.8.8.8.8.8.8.8.8.8.  9 j > 8.8.  9 j > 8.8.8.8.8.8.8.8.8.8.8.8.8.8.",
"8.8.8.8.8.8.8.8.8.8.8.8.  - > 8.8.8.  - > 8.8.8.8.8.8.8.8.8.8.8.8.8.8.8.",
"8.8.8.8.8.8.8.8.8.8.8.8.      8.8.8.      8.8.8.8.8.8.8.8.8.8.8.8.8.8.8.",
"8.8.8.8.8.8.8.8.8.8.8.8.8.8.8.8.8.8.8.8.8.8.8.8.8.8.8.8.8.8.8.8.8.8.8.8.",
"8.8.8.8.8.8.8.8.8.8.8.8.8.8.8.8.8.8.8.8.8.8.8.8.8.8.8.8.8.8.8.8.8.8.8.8.",
"8.8.8.8.8.8.8.8.8.8.8.8.8.8.8.8.8.8.8.8.8.8.8.8.8.8.8.8.8.8.8.8.8.8.8.8.",
"8.8.8.8.8.8.8.8.8.8.8.8.8.8.8.8.8.8.8.8.8.8.8.8.8.8.8.8.8.8.8.8.8.8.8.8."
};
