/* XPM */
static char *result[] = {
/* columns rows colors chars-per-pixel */
"48 48 29 1 ",
"  c black",
". c #300D02",
"X c #380F02",
"o c #421303",
"O c #481303",
"+ c #4E1503",
"@ c #741F05",
"# c #5F3010",
"$ c #663931",
"% c #484542",
"& c #595652",
"* c #727272",
"= c #872406",
"- c #892405",
"; c #A02A06",
": c #934A19",
"> c #A7630C",
", c #BF710E",
"< c #97492C",
"1 c #B45634",
"2 c #C68910",
"3 c #E28F12",
"4 c #D9A066",
"5 c #FFB66B",
"6 c #FFC37C",
"7 c #858686",
"8 c #A7A9A9",
"9 c #D8D8D8",
"0 c None",
/* pixels */
"000000000000000000000000000000000000000000000000",
"000000000000000000000000000000000000000000000000",
"000000000000000000000000000000000000000000000000",
"000000000000000000000000000000000000000000000000",
"000000000000000000000000000000000000000000000000",
"000000000000000000000000000000000000000000000000",
"000000000000000000000000000000000000000000000000",
"000000000000000000000000000000000000000000000000",
"000000000000000000000000000000000000000000000000",
"000000000000000000000000000000000000000000000000",
"000000000000000000000000000000000000000000000000",
"000000000000000000000000000000000000000000000000",
"000000000000000000000000000000000000000000000000",
"000000000000000000000000000000000000000000000000",
"000000000000000000090000000000000000000000000000",
"000000000000000000090000000000000000000000000000",
"000000000000000000939000000000000000000000000000",
"000000000000000000030000000000000000000000000000",
"000000000000000000030000000000000000000000000000",
"0000000000000000000300&7770000000000000000000000",
"000000000000000000030777778000000000000000000000",
"00000000000000000003&745786800000000000000000000",
"00000000000000000003&74$66$800000000000000000000",
"00000000000000000003&745666800000000000000000000",
"000000000000000000030745666800000000000000000000",
"0000000000000000000300&5668000000000000000000000",
"0000000000000000000300077800000000*0000000000000",
"000000000000000000030&&7787000000**0000000000000",
"00000000000000000003&&7778770000&*88000000000000",
"00000000000000000003007778&&000&*777800000000000",
"000000000000000000&&007778&&000&7*7%780000000000",
"000000000000OX0000&&0#::2:#0,0&*77*7780000000000",
"00000000000XOOX0&&737#>::>#77,7***&*,78000000000",
"0000000000XOOXO&77737#>,>>#7*7,7*80,&80000000000",
"00000000XOOOOO&777737:&77*#***7,,,,0000000000000",
"0000000XOXOX0&7*77*3*88&77**7**88000000000000000",
"0000000OOOX00&*7**737*&777*777***800000000000000",
"000000XOX0000&7*77*77*7777*777*77800000000000000",
"00000XOX0000&77*77*77*7--7*777*77880000000000000",
"000000OX0000&77*77*77--;;--777177000000000000000",
"000000XO0000077177@770111100-;100000000000000000",
"0000000O0000-;;@==@000000000=;;10000000000000000",
"000000000000;;10@==<0000000..-;10000000000000000",
"000000000000XX-00@==000000 .o<;;1000000000000000",
"00000000000 X+0000@=<00000 oo0-;1000000000000000",
"00000000000 ++0000.oo00000 o00X++000000000000000",
"00000000000 +00000..oo00000000XX++00000000000000",
"0000000000000000000   000000000   00000000000000"
};
