/* XPM */
static char *b3fb7f1f682e4e0e8957527d5572e272VyMPfhZ3QHQkP2Ik[] = {
/* columns rows colors chars-per-pixel */
"89 89 203 2 ",
"   c #000000",
".  c #0C0701",
"X  c #02000C",
"o  c #120A00",
"O  c #1C0F03",
"+  c #1D1000",
"@  c #1D100C",
"#  c #050410",
"$  c #1B0D1C",
"%  c #1E1011",
"&  c #251401",
"*  c #2F1D00",
"=  c #24140C",
"-  c #321C00",
";  c #321E0D",
":  c #3B1F0B",
">  c #291713",
",  c #25131B",
"<  c #271618",
"1  c #351E13",
"2  c #3C2503",
"3  c #3B2213",
"4  c #070022",
"5  c #0C0727",
"6  c #09002E",
"7  c #170A23",
"8  c #170C29",
"9  c #0D0933",
"0  c #110B3B",
"q  c #2D1B21",
"w  c #281529",
"e  c #311E24",
"r  c #2B1438",
"t  c #271838",
"y  c #2E2B21",
"u  c #372727",
"i  c #3A262C",
"p  c #383222",
"a  c #373528",
"s  c #2E2331",
"d  c #3C2734",
"f  c #462601",
"g  c #402900",
"h  c #553100",
"j  c #5B3200",
"k  c #57300D",
"l  c #5C340B",
"z  c #492A12",
"x  c #643C03",
"c  c #693A00",
"v  c #50362B",
"b  c #432E38",
"n  c #493531",
"m  c #4B353A",
"M  c #4F393D",
"N  c #523E34",
"B  c #513C3E",
"V  c #6C3C39",
"C  c #294731",
"Z  c #3A4737",
"A  c #2C5839",
"S  c #365639",
"D  c #386839",
"F  c #3B743B",
"G  c #6D4200",
"H  c #724302",
"J  c #794101",
"K  c #75480C",
"L  c #784E19",
"P  c #4A4A33",
"I  c #4A413F",
"U  c #71482E",
"Y  c #4F6F3C",
"T  c #437C3B",
"R  c #657835",
"E  c #190746",
"W  c #120151",
"Q  c #1A0558",
"!  c #231946",
"~  c #27154A",
"^  c #22095A",
"/  c #332352",
"(  c #170267",
")  c #16016A",
"_  c #1A1568",
"`  c #25086C",
"'  c #3E1A62",
"]  c #270971",
"[  c #23097D",
"{  c #34276C",
"}  c #402F41",
"|  c #523B40",
" . c #471E6A",
".. c #574540",
"X. c #5A4742",
"o. c #5E4B44",
"O. c #554454",
"+. c #614D46",
"@. c #68524B",
"#. c #705C52",
"$. c #55714B",
"%. c #776258",
"&. c #7A655A",
"*. c #7D695B",
"=. c #72765A",
"-. c #844C01",
";. c #8B4D00",
":. c #8E5B00",
">. c #89580D",
",. c #925500",
"<. c #935902",
"1. c #9D5C00",
"2. c #865719",
"3. c #A95F00",
"4. c #A96300",
"5. c #B16500",
"6. c #B76A00",
"7. c #BE6D01",
"8. c #B47102",
"9. c #BF7900",
"0. c #985B24",
"q. c #8D5A36",
"w. c #9D673A",
"e. c #A76E36",
"r. c #C37101",
"t. c #C87400",
"y. c #C27A01",
"u. c #CE7B00",
"i. c #D27D00",
"p. c #C97A2F",
"a. c #CB7C32",
"s. c #84675D",
"d. c #A06B41",
"f. c #836F60",
"g. c #8C7766",
"h. c #927D6B",
"j. c #AB736B",
"k. c #45813B",
"l. c #4D843C",
"z. c #52893C",
"x. c #55893C",
"c. c #668D3D",
"v. c #71833F",
"b. c #68953D",
"n. c #739D3E",
"m. c #7B9F3E",
"M. c #7DA13F",
"N. c #4F8043",
"B. c #6E8256",
"V. c #80A53F",
"C. c #CD8400",
"Z. c #D08300",
"A. c #DB8500",
"S. c #E48E00",
"D. c #EA9100",
"F. c #F09601",
"G. c #F39900",
"H. c #FB9F00",
"J. c #FFA200",
"K. c #CE873B",
"L. c #97826F",
"P. c #9A8571",
"I. c #1F008B",
"U. c #1F0197",
"Y. c #20018A",
"T. c #210097",
"R. c #270499",
"E. c #230C98",
"W. c #331597",
"Q. c #24258F",
"!. c #362990",
"~. c #2600AF",
"^. c #2811A9",
"/. c #2701B9",
"(. c #2901BA",
"). c #3630AE",
"_. c #2C25B1",
"`. c #4A2781",
"'. c #5F298B",
"]. c #623698",
"[. c #572FA9",
"{. c #423BBF",
"}. c #594598",
"|. c #604998",
" X c #5744A5",
".X c #5C43B1",
"XX c #684EB7",
"oX c #7159BF",
"OX c #2C0CC7",
"+X c #2E10CA",
"@X c #2F18C8",
"#X c #302AC2",
"$X c #3634CB",
"%X c #3D38D3",
"&X c #3626E1",
"*X c #3A34E1",
"=X c #3C30EF",
"-X c #3D39F0",
";X c #473BE4",
":X c #624FC8",
">X c #6653D0",
",X c #4E47EF",
"<X c #4241FF",
/* pixels */
"J.J.J.J.J.J.J.J.J.J.J.J.J.J.J.J.J.J.J.J.J.J.J.J.J.J.J.J.J.J.J.J.J.J.J.J.J.J.J.J.J.J.J.J.J.J.J.J.J.J.J.J.J.J.J.J.J.J.J.J.J.J.J.J.J.J.J.J.J.J.J.J.J.J.J.J.J.J.J.J.J.G.F.i.i.i.r.r.r.",
"J.J.J.J.J.J.J.J.J.J.J.J.J.J.J.J.J.J.J.J.J.J.J.J.J.J.J.J.J.J.J.J.J.J.J.J.J.J.J.J.J.J.J.J.J.J.J.J.J.J.J.J.J.J.J.J.J.J.J.J.J.J.J.J.J.J.J.J.J.J.J.J.J.J.J.J.J.J.J.J.J.D.F.i.i.i.r.r.r.",
"J.J.J.J.J.J.J.J.J.J.J.J.H.J.J.J.J.J.J.J.J.J.J.J.J.J.J.J.J.J.J.J.J.J.J.J.J.J.J.J.J.J.J.J.J.J.J.J.J.J.J.J.J.J.J.J.J.J.J.J.J.J.J.J.J.J.J.J.J.J.J.J.J.J.J.J.J.J.J.J.J.D.G.i.i.i.r.r.r.",
"J.J.J.J.J.J.J.J.J.J.J.J.J.J.J.H.J.J.J.J.J.J.J.J.J.J.J.J.J.J.J.F.G.C.C.C.9.9.8.C.9.9.9.9.C.9.9.9.9.9.9.9.9.9.9.9.C.8.C.C.C.S.S.S.F.F.F.F.F.F.F.F.D.G.D.F.F.F.F.F.G.S.S.u.u.u.r.r.r.",
"J.J.J.J.J.J.J.J.J.J.J.J.J.J.J.H.J.J.J.J.J.J.J.J.J.J.J.J.J.J.J.F.H.C.C.C.9.9.9.9.9.y.9.9.9.y.y.9.9.9.9.9.9.9.9.9.8.C.C.C.C.S.S.S.F.F.F.F.F.F.F.F.G.D.G.F.F.F.F.F.F.S.S.u.u.u.r.r.r.",
"J.J.J.J.J.J.J.J.J.J.J.J.J.J.J.H.H.J.J.J.J.J.J.J.J.J.J.J.J.J.J.G.G.C.C.C.9.9.9.9.y.y.9.9.9.9.9.9.9.9.9.C.9.9.9.C.C.C.C.C.C.S.S.S.F.F.F.F.F.F.F.F.F.G.D.F.F.F.F.F.F.S.S.u.u.u.r.r.r.",
"J.J.J.J.J.J.J.J.J.J.J.J.J.J.J.J.J.J.J.J.J.J.J.J.J.J.J.J.J.J.J.C.C.G K G g g 2 2 g g g g g g g g 2 g g g 2 2 g g * * G x x 4.4.4.i.i.i.i.i.i.i.i.i.i.i.i.i.i.i.i.i.u.u.t.t.t.r.r.7.",
"J.J.J.J.J.J.J.J.J.J.J.J.J.J.J.J.J.J.J.J.J.J.J.J.J.J.J.J.J.J.J.C.C.G H H g g g 2 g g 2 g g g g g 2 2 g g 2 2 g 2 2 2 x x x 4.8.4.i.i.i.i.i.i.i.i.i.i.i.i.i.i.i.i.i.u.u.t.t.r.7.r.r.",
"J.J.J.J.J.J.J.J.J.J.J.J.H.J.H.H.H.G.G.G.G.G.H.H.H.F.F.G.C.C.C.:.:.* * *                                         . . & & & G G G 1.1.1.6.6.t.r.r.r.r.r.r.r.7.r.r.r.r.r.r.r.r.r.r.r.",
"J.J.J.J.J.J.J.J.J.J.H.J.J.J.H.H.H.G.G.G.G.G.H.H.H.G.G.G.C.C.C.:.:.* * *                                             & & * G G G 1.1.1.6.6.t.r.r.r.r.r.r.r.r.r.r.r.r.r.r.r.r.r.r.r.",
"J.J.J.J.J.J.J.J.J.H.J.J.J.J.H.H.J.G.G.G.G.G.H.H.H.F.J.G.C.C.C.:.:.* * *                                             * & & G G x 1.1.1.6.6.t.r.r.r.r.r.7.r.r.r.r.r.r.r.r.r.r.r.r.r.",
"J.J.J.J.J.J.J.J.J.J.J.J.J.J.G.G.G.A.S.A.S.A.G.G.G.C.C.C.K K K * * o o o                                             . . . & & & h h h 1.1.r.r.r.r.r.r.r.r.r.r.r.r.r.r.r.r.r.r.r.r.",
"J.J.J.J.J.J.J.J.J.J.J.J.J.J.G.G.G.A.A.A.A.A.G.G.G.C.C.C.H H H * * o o o .                                           . . . & & & h h h 1.1.r.r.r.r.r.r.r.r.r.r.r.r.r.r.r.r.r.r.r.r.",
"J.J.H.J.J.J.J.J.J.J.J.J.J.J.G.G.G.A.S.A.S.A.G.G.G.C.C.C.G G H * * o o o                                             . o . & & & h j h 1.1.r.r.t.7.r.r.r.7.r.r.r.r.r.r.r.r.r.r.r.7.",
"J.J.J.J.J.J.J.J.H.H.H.G.G.G.D.D.D.A.A.u.u.u.9.y.C.:.:.:.* * *   . . .   # . X 4 4 4 4 4 # X X X X X 4 4 4 4 4 4 # X             & & & c G 1.1.1.6.6.6.r.r.r.r.r.r.r.r.r.r.r.r.r.r.",
"J.J.J.J.J.J.H.J.H.H.H.G.G.G.D.D.S.A.A.u.C.u.9.C.9.:.:.:.2 * *   . .     X X X # 4 4 4 4 # X X X X X 4 4 4 4 4 4 X X             & & & G G 1.1.1.6.6.6.r.r.r.r.r.r.r.r.r.r.r.r.7.r.",
"J.J.J.J.J.J.J.J.H.H.H.F.F.G.D.D.D.i.A.i.u.i.y.y.9.:.:.:.* * *           X X X 4 4 4 4 4 X X X X X X # 6 6 4 4 4 X X             & & & H c 1.1.1.6.6.6.t.r.r.r.r.r.r.r.7.r.r.r.r.r.",
"J.J.J.J.J.J.H.J.G.G.G.S.A.S.i.S.i.F.D.y.y.y.G G G * * * o o o           4 6 # ) ) ) ) ) 4 4 4 4 4 4 ) ) ) ) ) ) 4 4             . . . & & j h h 1.1.1.y.r.r.r.r.r.r.r.r.r.r.r.r.r.",
"J.J.J.J.J.J.J.J.G.G.F.A.S.A.i.i.S.D.D.t.C.y.G G G * * * o o o           4 4 4 ) ) ) ) ) 4 4 4 4 4 4 ) ) ) ) ) ) 4 4             . . . & & h h h 1.1.1.r.r.r.r.r.r.r.r.r.r.r.r.r.r.",
"J.H.H.J.J.J.J.H.G.G.F.S.i.S.S.i.i.D.D.t.y.y.G G G * * 2 o o o           4 4 4 ( ) ) ) ) 4 4 4 4 4 6 ) ) ) ) ) ) 4 4             . o . & & h h h 1.1.1.r.r.r.r.r.r.r.r.r.r.r.r.r.r.",
"F.F.F.F.F.F.F.F.D.D.D.A.A.A.i.i.C.y.y.:.:.:.* * *             X X 4 4 4 W W W T.T.T.Y.I.6 4 6 6 6 6 Y.Y.I.T.T.T.W W 4 4 4 X X X           & & & c H H ,.1.1.4.3.3.5.6.7.7.7.r.r.r.",
"F.F.F.F.F.F.F.F.D.D.D.i.A.A.u.Z.u.y.y.:.:.:.* * -             X X 4 4 4 W W W T.T.T.I.I.6 6 6 6 6 6 T.Y.I.T.T.T.W W 4 4 6 X X X           & * & H c x 1.,.1.3.4.4.5.6.7.7.r.r.r.r.",
"i.i.i.i.i.i.i.i.i.A.i.D.S.D.y.y.y.G G * * * . o o             4 4 ) ) ) T.T.T.~.~.~.I.I.6 6 6 6 6 6 T.Y.Y.~.~.~.U.T.( ( ) 4 4 4           . . . & & & f f f J J c ,.,.5.5.5.r.r.r.",
"i.i.i.i.i.i.i.i.A.A.A.D.S.D.y.y.y.G G * * * o o o             4 4 ( ( ) T.T.T.~.~.~.I.I.6 6 6 6 6 6 Y.Y.Y.~.~.~.T.U.) ( ) 4 4 4           . o . & & & f f f J J -.1.,.6.5.5.r.r.r.",
"i.i.i.i.i.i.i.i.A.A.i.D.S.D.y.y.y.G G 2 2 * . o o             4 4 ) ) ) T.T.T.~.~.~.Y.Y.6 6 6 6 6 6 I.I.I.~.~.~.T.T.) ) ) 4 4 4           . . . & & & f f f c c c 1.1.5.6.5.r.r.r.",
"r.r.r.r.r.r.r.r.u.u.u.S.S.S.8.6.8.2 2             X X X 4 4 4 W W R.T.T./.(.(./././.Y.Y.6 6 6 6 6 6 I.I.I./././.(.(.T.T.U.W W W 4 4 4 X X             & & - c c c ,.,.3.3.3.5.5.5.",
"t.r.r.r.r.r.r.r.u.u.u.S.S.S.6.8.8.2 2             X X X 4 4 4 W W T.T.T.(.(.(./././.I.I.6 6 6 6 6 6 I.I.I./././.(./.T.T.T.W W W 6 4 4 X X           X & & & c c c ,.,.3.3.3.5.5.5.",
"r.r.r.r.r.r.r.r.u.u.u.S.S.S.8.8.8.2 2             X X X 4 4 4 Q W R.R.T.(.(.(././.~.I.I.6 6 6 6 6 6 I.I.I./././././.T.T.T.W W W # 4 4 X X           . & & & c c c ,.,.3.3.3.5.5.5.",
"r.r.r.r.r.r.r.r.r.u.t.u.u.u.1.1.1.2 -             4 4 4 Q Q E ^ ^ ` ` ` ] ] ] ] ] ] Q ^ 7 7 7 7 8 7 ^ ^ ^ ] ] ] ` ` ` ` ` ` ` U.) ) ) 4 4             * & - ;.;.;.3.3.;.,.,.;.;.;.",
"r.r.r.r.r.r.r.r.t.r.y.u.u.u.1.1.1.- 2             4 4 4 Q Q E ( ` ` ` ` ] ] ] ] ] ] ^ ^ 7 7 8 7 5 8 ^ ^ ^ ] ] ] ] ` ` ` ` ` ` U.) ) ) 4 4             * - - J ;.;.3.3.1.,.,.;.;.;.",
"r.r.r.r.r.r.r.r.t.t.t.u.u.u.1.1.1.- 2           . 5 $ # ! ! y y p p p p p p p p y p u p p p p p p p p y p y y p p p p p p i ! [ Q ( ) 4 4     . . X . = - & K c c ;.;.;.;.,.;.;.-.",
"5.5.5.5.5.5.5.5.5.5.5.5.4.5.>.-.-.* & X X X 4 4 4 E E E ^ ~ y y p p p p p p p p y y p p p p p p p p p y y p y p p p p p p / / R.[ T.T.W W 4 4 7 # # # - > > K J c 2.;.J -.;.J c J ",
"5.5.5.5.5.5.5.5.5.5.5.5.5.5.;.;.-.* * X X # 5 5 $ , , > Z C l.l.m.m.V.m.m.V.b.n.k.b.b.M.M.M.M.M.M.M.M.c.b.l.z.M.M.M.M.M.M.R R $ w [ [ W W $ 7 $ , , , , , , < < < , , c l ;.c J J ",
";.;.;.;.;.;.;.;.;.;.;.;.;.;.c c x & & 4 # 5 W Q , w , > a C l.z.m.m.m.m.V.m.n.b.k.n.n.M.M.M.M.M.M.M.M.x.x.z.l.M.M.M.M.M.M.R R , w T.T.U.T.W Q , , , , , > > < < , < , c l -.J J J ",
";.;.;.;.;.;.;.;.;.;.;.;.;.;.c c c & = $ $ $ s s R R R R x.R z.k.V.V.V.V.V.V.V.m.n.M.M.V.M.V.V.V.V.V.V.M.M.n.M.V.M.V.V.V.V.c.c.a C ! t E r } } &.&.&.%.%.&.&.&.&.%.%.&.v v k k J J ",
";.;.;.;.;.;.;.;.;.;.;.;.;.;.c c c & = 7 $ $ y y R R R R x.T z.k.V.M.V.V.V.V.m.m.n.M.M.V.M.M.V.V.V.M.M.M.n.n.M.V.V.V.V.V.V.x.c.C C t ! t 0 b d &.&.&.&.%.&.&.&.&.s.%.&.v v k k J J ",
"j j j j x j j j j j j j j j : : ; @ n Z P P D h B.M.V.V.n.n.b.b.V.V.V.V.V.V.V.V.M.M.V.V.V.V.V.V.V.V.M.V.V.V.M.V.V.V.V.V.V.c.c.A A a a M M #.#.P.P.P.P.P.P.P.P.P.P.P.P.I | 3 : j j ",
"j j j j j j j j j j j j j j f f : @ p p S P P D V.V.V.V.n.n.b.b.V.V.V.V.V.V.V.V.M.M.V.V.V.V.V.V.V.V.M.M.V.V.M.M.V.V.V.V.V.B.c.A A a d | M #.#.P.P.P.P.P.P.P.P.P.P.P.P.B B 3 : j j ",
"j j j j j j j j j j j j h h : : q 1 c.R b.b.l.z.M.M.V.V.n.n.n.n.V.V.V.V.V.V.V.m.n.M.M.V.V.V.V.V.V.V.V.M.M.n.M.M.V.V.V.V.M.b.c.A A P | *.*.P.P.P.P.P.P.P.P.P.P.P.P.P.P.B | : 3 j j ",
"+ + + + O O O O O O O O + O @ @ q 1 R R b.b.l.l.V.M.V.V.M.M.n.M.V.V.V.V.V.V.m.V.M.M.M.V.V.V.V.V.V.V.V.M.M.M.n.M.V.V.V.V.M.c.c.A A / ..&.*.P.P.P.P.P.P.P.P.P.P.P.P.P.P.B B % % O O ",
"+ + + + + + + + + + + + = % q q M M v.v.b.b.x.l.M.M.V.V.b.b.z.l.m.V.V.V.V.V.n.n.T n.b.V.M.V.V.V.V.M.M.b.b.z.z.M.V.V.V.V.V.c.b.A A I I &.*.P.P.P.P.P.P.P.P.P.P.P.P.P.P.V I = = O O ",
"+ + + + + + + + + + O + = @ q < M M B.R b.b.l.l.M.M.V.V.b.b.z.z.V.M.V.V.V.V.n.n.k.b.n.V.M.M.V.V.V.M.M.z.b.z.z.M.V.V.V.V.V.b.c.A A I I %.&.P.P.P.P.P.P.P.P.P.P.P.P.P.P.I B < = O O ",
"      o o o - 2 * * = @ q < m m B M Y Y l.l.k.k.z.z.z.z.k.l.k.k.z.z.z.z.x.x.k.l.D k.k.x.z.z.z.z.z.z.N.k.F F F k.z.z.z.z.x.T T A A P | *.*.P.P.P.P.P.P.P.P.P.P.h.L.M N 1 < & * * - ",
"      o o . * * * * > @ e e m m | | Y $.l.l.k.k.z.z.z.x.l.k.k.k.z.z.z.z.x.x.k.k.D k.k.x.z.z.z.z.z.z.N.F F F F N.z.z.z.z.x.T T A D / ..*.&.P.P.P.P.P.P.P.P.P.P.h.h.M M 1 1 = * - - ",
"      . . . * * * - > % q q i b u u a Z Y Y =.B.B.B.N.N.F F F F T T T k.T k.F F C D D D D F $.B.B.B.B.B.=.$.$.D D D D D D S D Z I a d B | +.X.U o.+.o.o.o.o.+...I > < & & & - - - ",
"      * 2 * :.:.:.:.z > q q i i i n C a Y P B.B.B.B.N.N.F F D F k.F T T k.T F T A D D D F F Y =.B.B.B.B.=.=.$.D F F D A D D D P Z d a | M o.+.+.o.o.o.+.+.o.o.X...1 1 l l G ,.,.,.",
"      2 * * :.:.:.:.l > < < < < b n a b @.@.P.P.P.P.=.$.D $.S P Y Y D D D D S S C C C S S $.$.P.P.P.P.P.P.=.*.C C A S S S Z Z | | q w w r r ~ ~ r r r 8 w w $ $ $ & = G G x ,.,.,.",
"      g g 2 9.9.9.y.K ; > < , < n i n n @.@.P.P.P.P.$.$.D S S S Y D D D D S D S C C C D S $.$.P.P.P.P.P.P.*.=.C C A S S S Z Z | | < q r w r r r r d r r r w $ $ $ * - ,.:.,.t.r.t.",
"      g g g C.C.8.9.9.g ; ; i i h.h.P.P.P.P.P.P.P.P.@.@.| | | | | | e e , < < < w < , +.+.P.P.P.P.P.P.P.P.*.%., , m b B | | | B | q q ' ' '.'.'.'.'.'. . . .7 7 7 - - ,.,.,.r.r.r.",
"      g g g C.8.9.9.K 1 v N f.f.P.P.P.P.P.P.P.P.P.P.@.@.| | | | | | e e { { $X$X$X! t +.o.P.P.P.P.P.P.P.P.%.*., , m m | | | | B | < q  .' '.'.'.'.'.'. . . .7 7 7 - - ,.,.,.r.r.r.",
"      g g g 9.9.9.9.K : N v f.f.P.P.P.P.P.P.P.P.P.P.@.@.| | | | | | s e { { $X$X$X! t +.+.P.P.P.P.P.P.P.P.*.*.< , m m B | | | M | w 1 V V p.p.p.p.p.p.0.0.0.; ; > - - ,.,.,.r.r.r.",
"      g 2 2 8.8.K K P P %.&.P.P.P.P.P.P.P.P.h.h.&.s.O.| | | M B d d { { $X$X*X,X!.O.O.*.*.P.P.P.P.P.P.P.P.*.f.i i M m B | | | M | q q V V p.p.p.p.p.p.0.0.0.; ; ; - - ,.,.,.r.r.r.",
"      g g g 8.8.K K U P *.%.P.P.P.P.P.P.P.P.h.h.&.&.| O.| | m } i d { { $X).;X*X!.O.O.f.*.P.P.P.P.P.P.P.P.*.*.d b m m | | | | M m 1 w V V p.p.K.p.p.p.0.0.0.; ; ; - - ,.,.,.r.r.r.",
"      g 3 2 >.>.v n *.*.P.P.P.P.P.P.P.P.h.h.*.&.| | | | | | b } / / %X*X,X,X{. X> *.*.P.P.P.P.P.P.P.L.g.g.#.#.| M | | | | M M b n / d V U 9.9.9.9.9.9.:.:.:.* * * - - ,.,.,.r.r.r.",
"      g 2 2 >.>.n v *.*.P.P.P.P.P.P.P.P.h.h.&.&.| | | | } m b b / / %X%X,X,X{. X< *.*.P.P.P.P.P.P.P.P.g.f.#.#.B | | | | | M M b b r d U U y.9.9.9.9.9.:.:.:.* * * - - ,.,.:.r.r.r.",
"      g , , s u h.h.P.P.P.P.P.P.P.P.h.h.%.&.| | | | | | b b r / -X<X<X;X,X,X{. X, *.*.P.P.P.P.P.P.P.P.O.o.s q B M | | M | b b w w `.`.0.w.y.9.y.9.9.9.:.:.:.* * * * - ,.,.,.r.r.r.",
"      g , , e u g.h.P.P.P.P.P.P.P.P.L.L.%.%.| | | | | | a a ! / <X<X<X<X>X>X Xs.< *.*.P.P.P.P.P.P.P.h.+.+.e e | | | B B | b b w w !.!.n d 2 g g g g 2 * * * o o . - - ,.,.,.r.r.t.",
"      g , , i i g.g.P.P.P.P.P.P.P.P.o...u u q q q < w y { / ).*X<X<X<X<X>X>X Xs., *.*.P.P.P.P.P.P.| ..e e e e B | | B b b / / #X!.).)./ d g 2 2 g g g * * * o . . - - ,.,.,.r.r.t.",
"      2 , , u e h.h.P.P.P.P.P.P.P.P.o.o.u u q e q q s , / { ).%X<X<X<X<XoXoX|.e., *.*.P.P.P.P.P.P.B | e e e e B | M | b b { / %X_.#X#X( _ 5 6 9 6 6 9 4 4 4 # X X * * -.-.-.5.5.5.",
"      2 , , q q I I U X.X.X.X.X...o.w s 8 8 8 8 8 ! ! ! !.).$X<X<X<X<X-XoXoX|.e., *.*.P.P.g.g...X.L 2.l l , > u e b e ' { ).#X;X#X$X$X_ _ 9 6 6 6 6 6 4 4 4 X X X * & ;.-.;.5.5.5.",
"      2 , , 1 q I I ....X.X...X.X.X.w s 8 8 9 9 8 ! ! ! ).Q.%X<X<X<X;X<XoXoX|.e.< *.*.P.L.g.h.P I L 2.l k q q b i i d { / ).{.<X#X$X$X_ _ 6 6 6 6 6 6 4 4 4 X X X * * -.-.-.5.5.5.",
"      - > > z z k z z > < > $ $ $ w Q [ E.E._._._.%X$X$X-X-X-X<X<X<X<X<XoXoX|.e.< +.+.&.%.@.@.3 z x 8.>.:.v v v / / / ).).<X<X<X*X*X&X^.^.I.I.I.I.U.I.) ) ) 4 4 4 & + c c c ;.;.-.",
"      2 > > z z z z z > > > $ $ $ 0 Q _ E.E._._.#X$X*X$X,X-X-X<X<X<X<X<XoXoX|.e., +.+.&.%.U @.3 3 G 8.<.>.U k U } } ' ).).<X<X<X&X*X*X^.^.I.Y.I.I.I.I.) ) ) 4 4 4 & & c x c ;.;.;.",
"      - - 2 1.1.1.1.1.2 - 2 4 4 5 ) ) E.E.E._._._.$X$X$X-X-X-X<X<X<X;X;XoXoX|.e., , , , , 3 1 K G K Z.Z.C.K.K.K.>X>X<X<X<X<X<X<X*X*X*X^.^.I.I.U.I.I.I.) ) ) 4 4 4 & & c c c ;.-.;.",
"      - - - ,.,.,.,.,.- - - 7 7 7  . .].].].XXXXXX:X>X>X,X,X,X,X<X<X<X<XXX:X}.U y q $ < < % < * * * :.:.:.d.d.d.XX:X<X<X<X<X<X<X;X;X;X[.[.'.'.'.'.'.'. . . .$ 5 $ + + h j j c c -.",
"      - - - ,.,.,.,.,.- - - 7 7 7  . .].].].XXXXXX>X>X>X,X,X,X<X<X<X<X<X:XXX Xq.< < , , < > > * * * :.:.:.d.d.d.:X:X<X<X<X<X<X<X%X;X%X[.[.'.'.'.'.'.'. . . .7 7 7 + + j j j J J J ",
"      - - - ,.,.,.,.,.- - - 8 7 7  . .].].].XXXXXX>X>XoX,X,X,X<X<X<X<X<XXXXX}.U > > , , < < > * * * :.:.:.d.d.d.:XXX<X<X<X<X<X<X,X;X;X[.[.'.'.'.'.'.'. . . .7 $ 7 + + j j j J J J ",
"      - - * ,.,.,.,.,.- - - > ; ; 0.0.a.p.p.K.K.K.j.j.j.>X>X>X<X<X<X<X<X$X{.$Xd } / * * o o o o o o * * 2 m / Z {.{.<X<X<X<X<X<X:X:X:Xj.j.p.p.a.p.p.p.0.0.0.3 ; ; + + j j x J J J ",
"      - - - ,.,.,.,.,.* * - ; ; ; 0.0.a.a.a.K.K.K.j.j.j.>X>X>X,X<X<X<X<X{.{.{.} } } * * o o o o o o * * * m d } {.{.<X<X<X<X<X<X:X:X:Xj.j.p.p.p.p.p.p.0.0.0.; ; ; + + j j j J J J ",
"      - * - ,.,.,.,.,.* - - ; ; ; 0.0.a.a.a.K.K.K.j.j.j.>X>X>X<X<X<X<X<X{.{.{.} } } * * o o o o o o * * * / } } {.).<X<X<X<X<X<X:X:X:Xj.j.p.p.p.p.a.p.0.0.0.; 3 ; + + j j j J J J ",
"      - * - :.,.,.,.,.- - - * * - :.:.9.y.9.9.9.C.d.w.w..X.XXX;X=X=X=X=X#X#X#X_ _ _ 0 8 # # # # # # 9 9 9 { _ _ #X#X=X=X=X=X=X=X[..X.Xd.w.9.6.9.9.y.9.,.:.:.* * * + + j j j J J J ",
"      - - * ,.,.,.,.,.- * - - - - :.:.y.9.9.9.9.8.d.d.d..X.X[.=X=X=X=X=X#X#X#X_ _ _ 9 9 # # # # # # 9 9 9 _ _ _ #X#X=X=X=X=X=X=X.X.X[.w.w.9.9.9.9.9.y.:.:.:.* * * + + j j h J J J ",
"      2 - - ,.,.,.,.,.* - - o o o * 2 g g g g g 2 d d d R.W.W.+X+X+X+X+X@X@X@X#X$X_.Q.Q.9 5 9 9 9 5 Q.Q.Q.#X#X#X@X@X+X+X+X+X+X+XW.W.W./ d g g g g g g * * * o o o + O j j j J J J ",
"      * - - ,.,.,.,.,.- - - o o . * * g g g g 2 2 d d d W.W.W.+X+X+X+X+X@X@X@X#X#X$XQ.Q.9 9 9 5 9 9 Q.Q.Q.#X#X#X@X@X+X+X+X+X+X+XW.W.W.b d g g g g g g * * * o o o + + j j j J J J ",
"      - - - ,.,.,.,.,.* - - o o o * * 2 g g 2 2 g d d s W.W.W.+X+X+X+X+X@X@X@X#X#X#XQ.Q.9 5 9 9 9 9 Q.Q.Q.#X#X#X@X@X+X+X+X+X+X+XW.W.W.i d g g 2 g g g * * * o . o O + j j j c J J ",
"      & & & G H G c G & & & X X X 4 4 6 9 6 6 6 6 W W W T.T.T.(././././.+XOXOX&X&X&X_._.0 0 0 0 0 9 ).)._.&X&X&XOXOX/./././././.T.T.T.W W 6 6 9 6 6 6 4 4 4 X X X o O f f f j j j ",
"      & & * G G G G G & & & X X X 4 4 6 6 6 6 6 6 W W W T.U.U./.(.(././.OXOXOX&X&X&X_._.0 0 0 0 0 0 _._._.&X&X&XOXOX/./.OX/././.T.T.T.W W 6 6 6 6 6 6 4 4 4 X X X o o f f f j j j ",
"      & & & G G H c G & & & X X X 4 4 6 6 6 6 6 6 W W W U.U.T./././././.OXOXOX&X&X&X_._.0 0 0 0 0 0 _._._.&X&X&XOXOX/./././././.T.T.T.W W 6 6 6 6 6 6 4 4 4 X X X O O f f f j j j ",
"      . . . & & & & & . . . 4 4 4 ) ) Y.I.U.I.I.I.U.T.T.~.~.~././.(./././.OXOXOXOXOXE.E.6 9 9 9 9 9 Q.E.E.OXOXOXOX/././././././.~.~.~.T.T.Y.Y.I.U.U.I.) ) ) 4 4 4 . . o o o O O & ",
"      . . . & & & & & . . . 4 4 4 ) ) Y.I.I.I.I.I.U.T.T.~.~.~././././././././.OXOXOXE.E.9 9 9 9 9 9 U.E.E.OXOXOX/.OX/./././././.~.~.~.T.T.Y.Y.I.I.I.I.) ) ) 4 4 4 . . o O o O + + ",
"      . . . & & & & & . . . 4 4 4 ) ) Y.I.I.I.I.I.T.T.T.~.~.~./.~./.(./.(.(.(.+XOXOXE.E.9 6 9 9 9 9 E.E.E.(.OXOXOX(././././././.~.~.~.U.U.I.I.I.I.I.U.) ) ) 4 4 4 .   O o O O O O ",
"                            4 4 4 ) ) Y.I.I.I.I.I.I.I.I.Y.Y.Y.Y.I.I.Y.Y.Y.Y.Y.Y.Y.I.) ) 4 4 4 4 4 4 ) ) ( I.I.I.Y.I.I.I.Y.Y.Y.I.I.I.I.I.I.I.I.I.I.I.I.) ) ) 4 4 4                 ",
"                            4 4 4 ) ) Y.I.I.I.I.I.I.I.I.Y.Y.Y.I.I.I.I.I.Y.Y.Y.Y.I.I.) ) 6 4 4 4 4 4 ( ) ( I.I.I.I.I.Y.Y.I.I.I.I.I.I.I.I.I.I.I.I.I.I.I.) ) ) 4 4 4                 ",
"                            X X X 4 4 6 6 6 6 6 6 6 6 6 6 6 6 6 6 6 6 6 6 6 6 6 6 6 4 4 X X X X X X 4 4 4 6 6 6 6 6 6 4 6 6 6 6 6 6 6 5 6 6 6 6 6 6 6 4 4 4 X X X                 ",
"  X                         X X X 4 4 6 6 6 6 6 6 6 6 6 6 6 6 6 6 6 6 6 6 6 6 6 6 6 4 4 X X X X X X 6 4 4 6 6 6 6 6 6 6 6 6 6 6 6 6 6 6 6 6 6 6 6 6 6 # 4 4 X X X                 ",
"                            X X X 4 4 6 6 6 6 6 6 6 6 6 6 6 6 6 6 6 6 6 6 6 6 6 6 6 4 4 X X X X X # 4 4 4 6 6 6 6 4 6 6 6 6 6 6 6 6 6 6 6 6 6 6 6 6 6 4 4 4 X X X                 ",
"                                                            .                                                                                                                     ",
"                                                                                                                                                                                  ",
"                                                                                                                                                                                  "
};
