/* XPM */
static char *a9b5dedd042247faa0831585c54fb6aaFa2k6tkR8g0kqR53[] = {
/* columns rows colors chars-per-pixel */
"89 89 186 2 ",
"   c #34608F",
".  c #346091",
"X  c #366293",
"o  c #356593",
"O  c #376394",
"+  c #356596",
"@  c #366696",
"#  c #3A6E96",
"$  c #3B6F97",
"%  c #356498",
"&  c #376B9B",
"*  c #376C9E",
"=  c #3B6E99",
"-  c #3D729A",
";  c #38709F",
":  c #3A709F",
">  c #3D729C",
",  c #3D749D",
"<  c #396EA0",
"1  c #3971A0",
"2  c #3971A2",
"3  c #3870A3",
"4  c #3C7EB0",
"5  c #3D7FB1",
"6  c #49779B",
"7  c #4A769B",
"8  c #4A789C",
"9  c #487A9F",
"0  c #4D7E9F",
"q  c #477BA2",
"w  c #467CA2",
"e  c #487EA2",
"r  c #4A7EA3",
"t  c #497FA5",
"y  c #487FA6",
"u  c #3C80B1",
"i  c #3D81B2",
"p  c #3D80B4",
"a  c #3D83B4",
"s  c #3D83B6",
"d  c #3E84B5",
"f  c #3E86B6",
"g  c #3E88B7",
"h  c #3E86B8",
"j  c #3E88B9",
"k  c #4B81A3",
"l  c #4A82A7",
"z  c #4D83A7",
"x  c #4180AB",
"c  c #4081AB",
"v  c #4180AC",
"b  c #4181AD",
"n  c #4380AC",
"m  c #4281AD",
"M  c #4181AF",
"N  c #4B83A8",
"B  c #4D85A8",
"V  c #4E84A8",
"C  c #5182A2",
"Z  c #5083A2",
"A  c #5184A3",
"S  c #508DAC",
"D  c #5191AD",
"F  c #5190AF",
"G  c #5592AF",
"H  c #4088B8",
"J  c #418DBE",
"K  c #408EBF",
"L  c #5594B3",
"P  c #5495B5",
"I  c #5C98B0",
"U  c #5F9DB4",
"Y  c #5D9EB4",
"T  c #609CB4",
"R  c #61A2B6",
"E  c #69ACBF",
"W  c #418FC0",
"Q  c #428FC3",
"!  c #4192C1",
"~  c #4090C3",
"^  c #4391C2",
"/  c #4092C2",
"(  c #4294C3",
")  c #4191C4",
"_  c #4393C4",
"`  c #4292C5",
"'  c #4496C6",
"]  c #4597C6",
"[  c #4597C7",
"{  c #4498C6",
"}  c #479EC9",
"|  c #489CCA",
" . c #489FCA",
".. c #46A2CB",
"X. c #48A0C8",
"o. c #49A1C9",
"O. c #49A0CB",
"+. c #4FA4CB",
"@. c #49A0CD",
"#. c #4AA3CD",
"$. c #4BA4CC",
"%. c #4AA6CD",
"&. c #4EA6CC",
"*. c #4CA5CF",
"=. c #52A7CC",
"-. c #51AFC8",
";. c #53AFC8",
":. c #55AFCA",
">. c #53A8CD",
",. c #57ABCF",
"<. c #55AECE",
"1. c #58AECF",
"2. c #54B3C9",
"3. c #56B0CB",
"4. c #54B2CB",
"5. c #55B3CD",
"6. c #56B4CE",
"7. c #59B0CE",
"8. c #55B8CF",
"9. c #57ADD0",
"0. c #58ACD0",
"q. c #4FB2D1",
"w. c #51B2D3",
"e. c #50B5D1",
"r. c #52B5D5",
"t. c #54B7D6",
"y. c #58B8D0",
"u. c #57BFD8",
"i. c #57BFDA",
"p. c #6CAFC0",
"a. c #6CB1C1",
"s. c #6DB2C2",
"d. c #6EB3C3",
"f. c #72B7C6",
"g. c #71B9C5",
"h. c #71B9C7",
"j. c #75BEC7",
"k. c #57C0D6",
"l. c #56C3D8",
"z. c #58C0DB",
"x. c #58C2DA",
"c. c #5AC4DC",
"v. c #5CC6DE",
"b. c #73C2CF",
"n. c #63CADD",
"m. c #64C9DD",
"M. c #64CBDE",
"N. c #66CBDF",
"B. c #67CEDF",
"V. c #72C1D0",
"C. c #74C3D2",
"Z. c #72C4D2",
"A. c #75C5D0",
"S. c #7CCFD5",
"D. c #7FCED5",
"F. c #7ED1D7",
"G. c #7ED1D9",
"H. c #7FD4D9",
"J. c #7FD4DB",
"K. c #76DBE3",
"L. c #75DCE1",
"P. c #76DCE1",
"I. c #74DDE3",
"U. c #72DFE6",
"Y. c #79DBE4",
"T. c #7CDAE4",
"R. c #7EDCE4",
"E. c #7FDCE4",
"W. c #7FDEE4",
"Q. c #75E0E8",
"!. c #74E1E8",
"~. c #84D2D4",
"^. c #84D2D6",
"/. c #80D3D9",
"(. c #80D5D8",
"). c #80D5DA",
"_. c #81D9DD",
"`. c #81DADE",
"'. c #88D8D9",
"]. c #81DEE5",
"[. c #8FF2ED",
"{. c #8FF2EF",
"}. c #8EF3EF",
"|. c #91F4EF",
" X c #90F3F0",
".X c #92F5F0",
/* pixels */
"/ / / / / / Q / Q / Q / / J _ _ Q / ^ ` / Q ` / / ` / ^ W / ^ ` / ^ / / / ` / Q / / / / / / / / / ` / W ` / / Q / / ` ^ / ^ / / / / W W / W Q / / ` / Q / / / / Q / / Q / W / / / ",
"/ / / / / / / Q / ^ / ^ ^ / _ _ ` / / W J / J / / W J / / Q / W W / / ` / W J / / / W ` / / / / W / / / W ` / W W / ^ ^ ` / / ^ / Q ` / / ` W / / W J / / / ` / ` W / / / / W / / ",
"/ / / / / / / ` J ^ / / ^ / Q / _ W ` W ` / W ^ W / ` / W / W / ` / W ` / ` ` / / / / / / / / ` ` Q / W / W / W ` / ` ` ` ` / / / W W / ^ / W / / / ` / / ` ` / W ` / ` / ` Q ` ` ",
"d p p H h h J W / / Q / / / Q / / / / / / ^ ` / ` / W W / / ` J J H h h 5 i 5 H p d 5 a 5 d p j d H W W W Q / / / Q J / / J / ^ ` / ` ` / W W ` / ` W W h / h j h d 5 d p 5 5 H 5 ",
"p d d d j h / J ` J / ` W ^ / J / / W W / ` ^ / / J / W ` / / / j j j h h p h p a a a a a d p h h h W W W ` K / / Q W / ^ / ^ / Q / Q / K ) W / J ` W W W J h j j s d i d i d d h ",
"a a d d h h J / / / / W ` / / ` / / ` / ^ J / ` ` W W W J / / J / j j h 5 h p h a a a a a u d h h h W W W ` / / J / ` / / W ` W / / / K / ) ) W ^ / / J h W h h j d p d p d d i y ",
". . . & & & h j W W / / / ^ ^ / K ` / Q ` / / W / / / / ` / W p d < * *     X . . . . . . . . * & & H h H / W ) ` / ` / / / / / ) ) ` K K / / / / / ^ 5 h d < * 3 .   . . . . .   ",
". . . & & & j h W / W ` J / ` W / / / ` ` Q / / / / / / / / ` d d & 3 &     . . . . . . . . X = & & h H h W W ) / ^ J / ^ / / / ) ` / / / / / K W ` / H d d = 3 *     . . . . .   ",
"Z Z B k k k v v 5 H d J J J / / / / / / Q / J ` / J J J d j g c u N N k A A A A C V Z Z k C A k k k c v v d d d J J Q / ^ / ^ / / / / / / K J J g g c u u u N k k k A A A r C C C ",
"Z Z A k k k M 4 h 5 p J J J / / W ` W ` ` J / ^ / J J J j d g v v k l l A A A A A C Z Z C C C k k B v c M d d d J J / / / W ` W Q / W Q W W J W a g H u u u k N l N A A A A C C C ",
"Z Z A k k k y i p d d J J J ^ / / W / / / ^ / / / J J J h h p u u l l l A A A k A A 0 C C C C k k k i c u a d d J J W / W / / ^ / K / / Q ) K W g a g u c c N N N A A A Z A Z r C ",
"~.~.^.h.g.g.w w 2 2 2 H d d ^ ^ ` W / / / / W ` ` p d p 2 2 3 t k d.d.d.~.~.~.^.~.^.^.^.^.~.J.h.h.g.w w k : : : H i ` ^ ` ` W / / / / / / 5 5 h 3 , : k k k g.s.d.~.~.~.~.~.~.~.~.",
"^.^.^.h.g.h.w w : 2 2 d d d / ^ / / / / / / / / / h 5 h 2 < 2 t k d.d.d.~.~.^.^.~.~.~.~.~.~.^.f.h.h.q e w < 2 : H 5 / ` ^ ^ / W ) / / / ` h d i 3 ; 3 k k k E s.d.~.^.^.^.^.~.~.~.",
"^.^.^.h.g.f.w w : : : d d d / _ ` / Q / / ` K ` / i h p 3 3 3 t k d.d.d.~.~.~./.^.^.~.~.~.~.~.f.h.h.w w w 2 2 : p H / J / / / ` ) / / / / p d H ; 3 & k k u s.s.d.^.^.^.^.^.~.~.~.",
"|.|. X_._.].U U B B B v y 5 p i 5 4 5 5 4 i 4 4 4 4 y M V V v R R J.J.J.{.}.}.}.|.|.{.{. X X X)._._.Y T U B N V N 5 5 5 5 4 5 5 5 5 4 4 5 y n n N N N R R R H.H.G.}.}. X}.}. X{.|.",
"{.|.|.]._._.U U B B B v u t 5 i 5 4 4 5 5 5 4 4 4 l p y B v B R R J.F.J.}.}.}.}.|. X{.{. X X X]._._.T T U B B N 5 t 5 5 5 4 5 5 5 i p 4 4 y c u N N N R R R H.H.(.}.}.}.}. X X{.|.",
"|.{. X]._._.T T B B B y p l 4 5 5 4 4 5 5 5 4 4 5 l y i B N y U R H.J.(. X{.}.}. X X X X X X X].].J.Y Y U k B B y p 5 5 5 4 4 4 p d 4 4 4 l y l n y k R R R H.H.J. X X}. X X{.{.{.",
"Q.U.Q.K.Y.K.D.D.p.p.p.t y y + + + + + + + + + + % k y N p.p.p.S.H.!.J.K.Q.Q.!.!.!.U.U.Q.Q.U.I.Y.J.!.D.~.D.p.p.p.y l + + + + + + + + o o % y V B d.p.p.S.J.S.U.J.I.Q.Q.Q.!.U.!.!.U.",
"U.U.Q.Y.K.K.D.D.p.p.p.k y y + + + + + + + + + + + V N N p.p.R G.H.J.K.K.!.!.U.!.U.U.Q.Q.U.Q.U.Y.K.K.D.D.~.p.E E t t + + + + + + + + o + % N B k p.p.p.S.S.J.Q.J.K.Q.Q.Q.U.U.!.!.U.",
"Q.!.Q.Y.K.K.D.D.p.p.p.k y y + + + + + + + + + + % V k k p.p.p.S.S.U.K.K.Q.U.!.!.!.].Q.Q.Q.Q.U.I.K.K.D.D.~.E d.d.t t + + + + + + % o % + % N N B =.p.p.S.J.S.J.T.I.Q.Q.Q.Q.E.!.!.U.",
"x.x.x.n.n.n.E.E.C.C.C.D D D - - - - - - - - - - - P P P b.b.b.E.Q.M.B.M.x.x.x.x.v.x.x.k.x.x.x.n.n.n.].E.].j.C.C.D D - - - - - - - - - - 2 P P P j.j.b.Y.E.Y.N.N.B.x.x.x.z.x.l.l.l.",
"x.x.x.n.n.n.E.E.C.Z.C.D D D - - - - - - - - - - 7 L P P b.b.b.E.Y.M.N.B.z.z.x.x.v.i.l.l.x.x.x.M.n.n.].].E.C.C.C.D D - - - - - - - - - - : P P P Z.Z.b.].Y.E.N.M.N.i.x.x.z.l.l.l.l.",
"$.@.@.+.+.+.,.1.7.7.7.3.3.3.2.2.4.4.4.4.4.4.4.4.2.5.2.3.1.1.7.,.:.+.=.+.#.#.#.#.@.*.@.$.$.@.@.+.$.=.,.,.9.1.7.7.:.4.2.2.4.4.4.4.4.4.5.2.3.3.:.:.0.7.7.0.>.>.>.*.*.$.+.@.$.@.$.@.*.",
"$.$.@.+.+.=.0.0.7.7.7.3.3.3.2.2.4.4.4.4.4.4.4.4.3.:.:.3.7.7.1.,.9.+.+.+.#.#.#.$.$.$.$.@.$.$.@.+.>...,.,.0.0.7.7.:.:.2.2.4.4.4.4.4.4.2.6.3.3.:.:.1.1.7.0.,.0.+.+.>.@.*.$.$.$.@.@.=.",
"$.@.$.>.=.=.0.0.0.1.7.3.:.:.5.3.2.4.4.4.5.<.5.5.3.:.:.:.1.1.7.1.0.*.=.$.@.+.$.$.=.@.@.@.@.+.+.+.o.=.0.0.1.:.1.1.<.3.5.3.2.5.3.2.7.5.5.<.3.3.:.:.7.7.1.0.,.,.$.=.+...+.@.$.@.@.$.=.",
"/ / K / Q W W W } } } r.r.r.i.i.l.i.i.i.z.z.l.z.l.r.r.r.o.o.o.^ / / ` W / / / K / ` / ` / / ` W ^ ^ / ^ ^ } } } r.t.z.i.x.l.i.i.i.i.x.i.x.r.9.r.o.|  ./ W / ` ` / / / Q ` ` / / / ",
"K / ` / / / / / } } } r.r.r.z.z.z.i.i.i.z.z.z.x.i.q.0.q.o.o.o./ K K ` / / Q / ` / W W / / / W / / Q / / /  . .| r.r.l.i.i.i.i.i.l.i.l.z.x.e.9.q.o.o.o.^ / / / W / / / W / ` / / K ",
"` / ` K / ` J ` } } } r.t.t.z.i.z.i.i.i.i.i.l.z.i.r.q.q.o.o.o./ / / / ` / W / / ^ / Q / / / ` / ^ / K / J  . . .r.r.i.i.i.i.i.i.z.z.i.l.x.r.q.r.o.o.o./ W / W / ` / / / / W / / / ",
"/ Q / Q / ` / W { [ [  . . .*.*.*.*.$.$.%.%.+.%.*.|  . .[ [ [ ^ ` J / ` K ` / W / ^ / / ` / ` W / ^ / W / [ [ [ @.| *.*.*.*.+.*.%.%.%.*.+. . .} [ ^ { W W ` / ` / Q ` W W / W / / ",
"` / ` / W / ` W [ [ [  . . .*.*.*.*.+.$.%.%.*.+.*.|  . .[ [ [ / / / / W ` / / ` W / W ` ) Q ` / W / / ` ^ [ [ [ ..} *.*.*.*.$.+.%.%.%.%.$. . .+.[ | [ _ / / / W / / / / / Q / ^ / ",
") ` ) / / W W W [ { [  . . .*.*.*.*.+.*.%.%.%.*.*.| .. .[ [ [ / ^ / / / / / W / / / / K ) ) ` / W W ^ / / [ [ [  . .*.*.*.*.*.+.@.+.*.*.$... . .` [  .J W Q / ` / W ` / / / W ` / ",
"s 4 s 5 h H W W / / / / / ^ / W / / / / / / / / ` / / / / / J J W H h h 5 p 5 5 i p 5 s s 5 5 H 5 H W W J / ^ / / / / / / / / / / / / / W / ^ / / / / J J W h h H 5 5 5 v i i p u ",
"u i d h d d W W ^ / / ^ / ` ^ / J / / ` / / / / / ^ W / / / / / W p h h d p i i a a a a u a d d d d / W W / / ^ / / W ` / J ` / ` / / ^ / W Q / J ^ / J J J j g h d i a i a u c a ",
"+ + . < < < H H / / / / Q W / W ` Q / W J / ^ ^ W / Q / ^ / / d h < 2 2 + + + + @ @ o o o   + < & < H h H W / / / Q / ^ Q / / ^ J / / / / ` / ` ` / / H d g 2 2 2 + @ @ + + + + + ",
"o o + = < < H H / ^ J ` / J / / / ^ ^ / / ^ / / ` / ` / / W / d d 2 2 2 @ @ + + @ @ o @ o o o < < < H H H / / / ^ / ^ / / / J ` / / ^ / ^ ` / W / / J H j d 2 2 2 + + @ + + + + + ",
"o o % < < < H H W / / ^ / ` ` W W / / ^ / / ^ / / ^ W / ^ / / g h 2 2 2 @ @ @ + @ @ o + o o o = < < H H H / / / / W / W / / ^ / ` W / / / J / / / / ( p d d 2 2 2 + + @ @ + + o + ",
"7 7 7 8 q 9 c M H d j J W W ` / ` / J ` W ` / / / J W J j j j v c w w w 8 7 7 7 7 7 7 8 7 7 7 9 9 e i M M h g g K J / / Q ` / ^ / ^ / ^ ' j / ( H h j M v v w w k 7 7 7 7 7 7 7 8 ",
"7 7 8 8 7 q v M H h H / W W / / / ^ / / / / J / ^ J h W j j j c y w w w 7 7 7 7 7 7 8 8 7 7 7 9 e 7 4 s v h g g ^ Q Q / / J W / J / W / / J J j h h j 4 M v w w w 7 7 7 7 7 8 0 8 ",
"7 7 8 w w 9 v v g j g J / J / / / / / W / / / / ' j ` J g g g u i w w w 8 7 8 7 7 7 7 7 7 7 7 9 9 9 y y v h g g J / ^ / ^ / ` / / ^ / / / / j / j h j y n u 9 w w 8 7 7 7 7 8 8 7 ",
"'.'.'.j.j.j.t w : : = j d M / / ^ ^ ` ` / / / / / d p d ; : : k k h.g.g.'.'.'.'.'.'.'.'.'.'.'.j.j.j.y w N * : : 5 H / J / ` ^ ` / / / / / i a a 2 2 2 e z k g.g.g.'.'.'.'.'.'.'.'.",
"'.'.'.j.j.j.w w = 2 2 p d d ' / / ^ / ` / K ` / / s u a & 3 3 w w f.f.f.'.'.'.'.'.'.'.'.'.'.'.j.j.b.w w w : < < p H / ^ / ^ ^ _ ` ` K ) / s a a ; ; 2 w w k g.g.d.'.'.'.'.'.'.'.'.",
"'.'.'.j.j.j.q q 2 3 = h d d / j / ` ` ` / / W / / s a a ; ; & w k g.f.f.'.'.'.'.'.'.'.'.'.'.'.j.j.f.q t q : 2 3 p p / ( / ^ _ / ` ` / ) K s u s ; : : w w w h.g.g.'.'.'.'.'.'.'.'.",
"|.|.|._._._.I I N N k u u v d a 5 p i p t j p i u l u y l l y Y Y J.F.J..X.X|.|.|.|.|.|.|.|.|._._._.I I I k N N v M i i v 4 p d 5 t i p s 4 u y k l k Y R Y J.J.(..X|.|.|.|.|.|.|.",
"|.|.|._._._.I I k N N y v v d u i 5 d t 5 M i p s y c c w k y Y Y J.G.~. X X|.|.|.|.|.|.|.|.|._._._.I I I k N N v M i i d i a i j i p 5 4 y u c w y w Y Y Y (.J.(. X|.|.|.|.|.|.|.",
"}.}.|.H._._.I I e k N 4 5 y H M p i p y 5 5 5 p p k 5 4 k k k Y Y /.H.H.|.|.{.}.|.|.|.|.|.|.{._._._.I I I k N k i y d M d i i p v H t 5 p c c c k y t U R Y (.J.(. X|.|.|.|.|.|.|.",
"!.!.!.J.K.K.H.H.d.d.d.N y k X X + . % X % % + + O B V V a.s.E H.H.K.L.L.U.U.U.U.!.!.!.!.U.!.!.U.K.K.H.H.(.d.d.d.N k X O X . X o X X % X X V B B a.a.a.J.(.(.K.J.K.!.U.U.U.U.U.!.U.",
"!.U.!.Q.Q.K.(.(.d.d.d.y y y + X + . X X X X . X   B V B a.a.d.H.(.J.!.L.U.!.!.!.!.!.!.!.U.Q.!.K.!.J.H.(.J.d.d.d.y y X X X X X X X X X X X k z z a.s.a.J.~.H.Q.J.K.!.!.!.U.!.!.!.U.",
"l.l.x.n.n.M.].].C.Z.Z.S S S # = # = = # # # = = = L D L b.Z.b.E.E.B.B.B.l.v.l.v.x.x.x.x.k.x.l.M.M.n.].].W.j.Z.Z.S S # - # # # # # # $ = $ P G G b.b.b.E.!.].B.B.B.x.x.v.x.x.x.x.x.",
"v.v.l.M.M.M.].].b.b.b.S S S $ $ $ $ $ # # # = = = G G G b.b.b.E.].B.B.B.v.x.v.x.v.x.v.x.l.v.v.n.M.M.Q.].].C.C.A.S S $ $ $ $ $ $ # # # = = G G G b.b.b.].Q.].n.B.M.v.x.v.v.x.v.v.z.",
"l.v.v.M.M.M.].].A.C.C.S S S $ $ $ # $ # # # = # = G G G b.Z.b.E.Q.B.B.B.x.v.x.v.x.v.x.v.v.v.z.n.M.M.].].].C.b.b.S S $ $ $ $ $ $ # # # # = G G G b.b.b.E.E.E.B.B.B.x.v.x.x.v.x.z.v.",
"........@.@.>.>.7.1.1.e.6.3.y.y.8.y.6.y.y.y.y.y.y.6.6.6.<.<.:.=.,.+.@.%...o.@.@.o.....@.......+.+.o.:.=.>.:.:.1.6.6.y.8.8.6.y.6.y.y.y.y.y.6.6.6.<.<.3.=.=.=.$.$.+.@.o.@...@. .@.@.",
"......+.o.=.>.=.7.3.:.3.6.6.8.8.8.8.y.y.y.y.6.y.6.6.6.6.<.0.0.=.=.+.$.+...@...| @.| } ......@.+.$.+.>.>.,.,.,.,.6.2.8.8.8.y.y.y.y.y.y.8.y.6.6.6.<.<.3.=.=.>.$.$.$.$...@.o...$.....",
"....| o.*.o.:.,.<.:.3.6.6.3.8.8.6.8.y.y.y.y.y.5.y.6.:.e.:.9.:.>.=.*...*.+...| o...@.o.........o...$.3.1.=.,.;.;.6.3.8.6.8.6.y.8.8.y.y.2.6.w.5.5.<.<.3.,.=.=.+.$.$.@.o.........@...",
"( ( / / [ ^ / _  .X.o.e.e.e.x.k.u.u.u.k.k.k.u.i.u.e.q.q.} .. ./ j / ( ( / _ / [ ' / _ / / [ / ^ / / / _ K  .o.o.e.e.x.u.k.x.x.k.k.k.k.i.x.e.e.q. ...o./ ` K ` / / / / ` _ _ ` / / ",
"/ / _ [ / / / / o. .o.q.e.q.k.i.u.u.x.k.k.k.l.i.k.9.q.q.o.} o./ [ / ^ [ / _ _ _ _ _ / ^ / ^ ^ ` / _ / / _ o.o.} e.e.u.u.u.u.u.u.k.k.u.u.x.e.q.q.} o.} / ` ` ` ` ^ _ / { _ _ ( ( ` ",
"/ / / ^ / [ ^ _ } o.o.e.e.q.u.u.u.u.u.k.k.k.k.k.l.e.q.q. .o.X./ / ^ / / / / / _ _ _ / [ ` ` ^ / ^ / ] ^ _ ..o.o.e.e.u.u.u.u.u.u.k.u.u.u.u.9.q.q.} o.o.K ` ` ` ` _ / / ^ ( ` / ` / ",
"/ / J / / / W / { { ^ o. .} ..+.$.$.@.$.@...@.$.| }  . .[ [ [ ` / / / K / / / / W ` / ` / / / / / / / / / { { { } } *.o.=.$.$.$.$.$.@.$.o...} } [ [ [ / / / / / / / / W / / ^ / Q ",
"/ / / / / / / / { { [  .} } +.o.@.@...+.+.o.$.| @.}  .} [ [ [ W ` W / ( / / / Q / / / W ' j / / / / / ` / { { ' } } o.o.@.o...@.@.@.$.$.o.} }  .[ [ [ / / / / / ^ / / W / Q / W ` ",
"5 5 i d p d W W / / / / / / j ' / Q Q ` ( / / / / / Q / / / Q W J p H p 5 5 y 5 4 4 5 5 4 5 5 d 5 p j W W / / / / / / ^ / / / / ) K Q Q j / / / W Q / J J J d d p 5 5 5 5 5 t 5 5 ",
"5 5 p d d p / h / / / / / / / / / ` / Q / / / W / ^ / / Q W W J J 5 p d 5 5 5 5 4 4 5 5 p 5 5 p d h W J W / / / / / W / / ` _ / ` W ` W [ / W / ^ / W J J J p d d 5 5 5 5 5 5 5 5 ",
"5 5 5 5 p d / / / / ` J / / W ` W ` W Q J ` / / / ^ / / W / ^ J J p p 5 5 s 4 4 4 4 5 5 5 5 5 d p d J / W / / ` / ` ^ / W Q ` ` W Q ` / W / ` W / / / J j / d i u 4 d u 4 4 5 5 t ",
"+ + + < < < h j ^ / / / / / / / / ^ ` / ` / / ` ^ / / ` / ^ / H j 2 2 2 % % + + + + % % + + + < & 2 j h h / / W W W / ` ` / J / / ` / / ` ^ / / W ` W H h h 2 2 3 + + % % % % % % ",
"+ + + < < < h H / J / Q ^ / W ` ` / / ` / / ^ ^ ^ / ^ / / / / h d 2 3 2 + + + + + + % % + + + < < < j j H Q W / / W / W / ` ` / / W / W ` / / W / ` Q h g h 3 3 3 + % o + % % % % ",
"+ + + < < < j H / ` ` W / W / / W / W W / ^ ` / ^ ^ / J / / / j j 2 3 3 + + + + + + % + + + + < < < j j H / ` ^ / ` W / W / W / ^ / / ` ^ ^ ` W / W / h j j : 3 3 o + % X % % % % ",
"r 0 0 r r r l 4 g d g / / J / / / / ^ W Q Q Q / W W J J h h h y y y y y e 0 0 0 0 0 0 0 0 0 0 r r r v v v H d j H W ` / / / / Q Q Q Q W ` J J J h h h 5 5 v t t t 0 0 0 0 0 0 0 0 ",
"0 0 0 r r r v c d g d j / j ` W J ` ` Q Q Q ` / W J J J h h h 5 4 y y y 0 0 0 0 0 0 0 0 0 0 0 r r r v v M H g d W J Q / ` W ` W Q Q Q / / J J J h h h y v v t t t t 0 0 0 0 0 0 0 ",
"0 r 0 r t e M M g d p ` / / / / W / W W Q Q / ` ` J J J h h h u y y t y 0 r 0 r 0 0 0 0 r 0 r e r r v v v g d g / W / ` / W Q / Q _ W / / W J J j j h v v v t t e t 0 0 r r r w 0 ",
"~.~.~.f.g.g.e t 2 : 2 j d d / / ` ^ / ` W / / W / H 5 5 2 < 2 t t d.d.d.~.~.~.~.^.^.^.^.~.~.~.h.f.g.e q w : : : p H / W / / / / / J Q ` / 5 5 H 3 < 2 t t t d.d.f.~.~.~.~.~.~.~.~.",
"~.~.~.g.g.g.q q 2 2 = d p H W / / W / / J ` W / / s s s 3 3 3 t y d.d.d.^.^.^.~.^.^.~.~.~.~.~.h.g.g.w w w 2 : : h h ` / / ^ / / ` K / ` / p d d 3 3 3 y t t d.d.d.~./.~.~.^.~.~.~.",
"~.~.~.g.g.g.q q 2 2 2 j H H / / W ` / ` ^ / ` ` / s s s 3 3 3 t N d.d.d.^.^.^.~.^.^.~.~.^.~.~.h.g.f.w w w : : 2 h H / / W / Q W / / / ` Q p d i 3 < 3 y t t d.d.f.~.~.~.^.^.~.~.^.",
"}. X|.(._._.T T B B B M y M 5 5 5 5 5 5 5 5 5 i 4 u i y V k V R R J._.G. X X}.}.|.|.{.[.{.{.{._.]._.U Y U B k B v M 5 5 5 5 5 5 y 4 5 5 p v l 4 k V V R R R J.J.G. X X{. X{.{.{.|.",
"}.}.|._.]._.U T B B B v M M 5 5 5 5 5 5 5 5 5 p p v y y V N V R R J.J.G.}. X X}.|.{.{.{.{.{.{./._._.U R R B B B n n 5 5 5 5 5 5 5 5 i p p 4 y l N V V R R R J.G./.|.{.{. X X{.{.|.",
"I.Q.Q.I.K.K.S.S.E s.E z t t X + + O + O + O + O + k V V p.p.E S.G.Y.Y.Y.!.!.!.!.!.!.!.!.!.!.Q.K.K.U.D.F.F.E E f.k k +   + + o + % % + + X B k V p.E E G.G.G.K.Y.T.!.!.!.!.!.!.!.I.",
"Q.Q.Q.I.K.K.S.S.E E d.k t t + + O + O + O + O + O B k V p.p.p.S.J.K.Y.Y.!.!.!.Q.!.!.!.!.!.!.!.K.J.I.S.S.(.E E E k e + + . + + X % % + + % k B V E E E G.G.G.Y.Y.I.!.!.!.!.!.!.!.I.",
"Q.Q.Q.I.K.K.F.F.p.p.E k k t + + + O % + + O + O % k k V p.p.p.G.J.K.K.T.!.Q.Q.Q.!.!.Q.!.!.!.U.K.K.K.S.S.F.E E d.t k O + + + + + + % + X % V B k p.p.E G.J.G.I.T.T.!.!.!.!.!.!.!.Q.",
"x.x.x.M.n.n.E.E.Z.C.Z.D D D , , - - = 2 9 > > , 9 L P P h.j.d.K.T.N.N.N.l.l.l.x.l.v.z.l.z.z.l.n.n.n.E.E.E.Z.Z.Z.F D , > : 8 = - > > & 6 > L L L g.C.j.T.E.T.N.N.N.x.x.x.x.x.x.x.i.",
"x.x.z.M.M.n.E.E.Z.Z.Z.L S S , , , > > , 2 - > > > L L L M.N.j.T.T.N.N.N.x.x.x.x.l.x.x.x.z.v.l.n.m.m.].].].b.Z.Z.F F , , , , - : 9 * 7 : > L L L Z.h.b.E.T.T.N.N.N.x.x.x.z.x.x.x.z.",
"x.x.z.M.n.n.E.E.Z.Z.Z.D S L : 3 , > : 8 6 - > , > L L L j.j.j.T.E.B.N.N.x.x.x.x.z.x.x.x.l.l.l.N.m.m.Q.E.Y.C.Z.C.F F , : , - - - > - , - > L L P Z.Z.C.T.Y.G.N.B.N.x.x.x.l.l.x.x.v.",
"$.$.$.*.&.+.3.0.0.7.7.3.2.:.-.-.-.;.3.;.;.;.-.-.3.:.:.:.r.0.t.0.9.&.&.>.$.$.$.$...*.+.$.$.$.o.>.@.+.4.0.,.7.7.7.<.:.:.;.2.-.-.;.3.-.-.;.2.:.:.:.0.9.5.0.:.9.*.+.*.+.$.+.$.$.$.+.*.",
"+.$.$.+.+.+.<.7.<.7.7.3.:.:.-.-.-.-.-.-.;.:.-.:.:.:.<.0.0.0.0.0.9.&.&.&.$.$.$.*.@.+.$.$.+.@.+.*.+.+.9.1.1.1.7.7.:.:.:.;.-.-.;.;.:.-.-.:.-.:.:.:.r.0.e.0.0.9.=.+.&.$...*.$.$.$.@.+.",
"o.=.@.=.+.=.1.0.7.1.1.:.:.3.:.5.-.-.;.;.5.:.:.2.-.:.3.3.<.7.5.0.,.=.+.>.$.$.=.@.+.@.$.$.=.@.$.+.=.>.1.0.1.1.1.1.:.<.-.:.-.-.-.>.;.:.-.-.:.2.:.5.3.9.:.9.9.9.+.=.>.$.$.$.o.*.=. .+.",
"/ / / ^ ` Q / / o. . .t.t.r.v.v.v.v.v.x.i.v.v.z.v.r.t.r.o... ./ / / ` / / / / / / W / ` ` J / / / ^ / W J  .o. .r.t.v.v.v.v.v.v.v.v.x.v.v.r.r.t.$...@.W W / / / / / / / Q / / / / ",
"/ / W / / / / /  . . .t.t.t.v.v.v.v.v.v.v.v.v.v.v.t.r.t.@. ...W J / / / / / W / / / / / Q / / ^ / J / / / |  . .t.t.v.v.v.v.v.v.v.l.v.v.i.r.r.r...@...W W ` / / / Q / / ^ / ^ / ` ",
"` W / / / W ^ / [ [ [ | | | @.@. . ...}  . . . .} } } [ [ [ [ / / Q / ` / / ` W W ` W / / ` W / / / / / ( [ [ [  . . ...@.} =.| @. .@. .@.} | ..[ ' ' ` W / ^ / / / / ` ^ Q / J / ",
"/ Q / / ` / ^ ` [ _ [  . .|  .@.+. . .+. . . . .....| [ / ^ { ` W Q ` W ` W / ^ _ Q / ^ / / / W W / j ' W [ [ ` | |  . .| =. . .o.o.@.o. . .[ | / [ [ / Q / ^ ` / / ^ ^ ^ ^ ^ / / ",
"/ W / Q J / / J _ [ [ |  . . .| |  . .}  . .+.}  .| |  .[ [ [ / / / / / / / ^ ^ ^ ^ / _ / ^ ^ / ` / ` / / [ [ [ | | @.|  . . . .| @.o.@. .} | | [ [ [ / / / / W / W / Q ^ ^ / / / ",
"/ Q / / / Q ^ / / / / / / J / / ` / W / ` / W ` ` / / Q W / / ` ` / / ^ W / W ` ^ Q / W / W / W W / / W / W / ^ / / ` ` ` / / / ^ / / / / ` ` K ` W / W ` Q Q / / / ^ ` / / ^ ^ / ",
"J / ` W ` W / W / / / J Q / W ` ` / ` / ` ` / W J / Q / / / / / W ` W / ` W / W / / J _ ^ / ^ / ` / / ` ^ / W / / / / ` W / Q / / W / ^ W / / / / / ` Q / Q / ` / W / W W ` / / J ",
"` / ^ / W ` / ^ / ^ / / ^ / / W ` J / / / ` W ` ` / / W ` / / W W ` / ^ / W ` / / ^ / / ^ / Q W / W / W ` / / / / / ^ / J / ^ / W ` / ^ / W ` / / / Q / ^ ^ / W ^ / / ^ / / / / / "
};
