/* XPM */
static char *_4e6e0a544d542e8a2fc1e651ebf4a4bNidekKZXQT9RyOus[] = {
/* columns rows colors chars-per-pixel */
"89 89 116 2 ",
"   c #D27D00",
".  c #D17E00",
"X  c #D47C00",
"o  c #BA953D",
"O  c #BB963E",
"+  c #BC943D",
"@  c #DC8600",
"#  c #DD8700",
"$  c #DE8600",
"%  c #E3950D",
"&  c #E3950F",
"*  c #F09601",
"=  c #F09602",
"-  c #F19702",
";  c #F49900",
":  c #F59A01",
">  c #F49902",
",  c #FB9F00",
"<  c #FC9E00",
"1  c #FFA001",
"2  c #FEA200",
"3  c #FFA200",
"4  c #FFA300",
"5  c #FEA201",
"6  c #FEA509",
"7  c #FFA708",
"8  c #FFA60A",
"9  c #FFA70B",
"0  c #FFA60C",
"q  c #FEAC1C",
"w  c #FFAD1D",
"e  c #FFAC1E",
"r  c #FEAD1E",
"t  c #C6952E",
"y  c #C9952F",
"u  c #CA972E",
"i  c #C99530",
"p  c #FFAC20",
"a  c #FDAF27",
"s  c #FFAE27",
"d  c #FFAF28",
"f  c #FFAE2A",
"g  c #FFB027",
"h  c #FEB127",
"j  c #FDB128",
"k  c #FEB028",
"l  c #FEB63D",
"z  c #FFB73E",
"x  c #FFB83C",
"c  c #B1AC6A",
"v  c #B0AD6A",
"b  c #B2AD6B",
"n  c #B1AE6B",
"m  c #FDBA47",
"M  c #FEBB46",
"N  c #FEBB48",
"B  c #FFC258",
"V  c #FFC15A",
"C  c #FDC25A",
"Z  c #FFC15C",
"A  c #FDC564",
"S  c #FDC765",
"D  c #FEC665",
"F  c #FDCD79",
"G  c #FFCD78",
"H  c #FFCC79",
"J  c #FFCC7B",
"K  c #4090C1",
"L  c #4192C1",
"P  c #4193C3",
"I  c #4292C3",
"U  c #4191C4",
"Y  c #4496C6",
"T  c #469DC8",
"R  c #479EC9",
"E  c #49A2CA",
"W  c #49A2CC",
"Q  c #4AA3CD",
"!  c #53B2D2",
"~  c #54B7D6",
"^  c #59C3DB",
"/  c #59C3DD",
"(  c #5AC4DC",
")  c #67CEDF",
"_  c #68CFDE",
"`  c #7FDDDC",
"'  c #68CFE0",
"]  c #71DDE7",
"[  c #72DEE8",
"{  c #B4C388",
"}  c #A9DBB5",
"|  c #A9DDB6",
" . c #AADCB6",
".. c #AADCB7",
"X. c #ADDDB7",
"o. c #FFCF83",
"O. c #FED083",
"+. c #FFD084",
"@. c #FED698",
"#. c #FFD799",
"$. c #FFD79A",
"%. c #FFDB9F",
"&. c #FEDAA0",
"*. c #FFDAA3",
"=. c #FEDBA3",
"-. c #FFDCA2",
";. c #9BDBC1",
":. c #9ADCC1",
">. c #9CDCC2",
",. c #9CDCC4",
"<. c #81DDDC",
"1. c #84E8EA",
"2. c #85E9EB",
"3. c #91F5ED",
"4. c #91F4EF",
"5. c #92F5F0",
/* pixels */
"3 3 3 k k k J G %.%.=.%.=.%.=.%.=.%.=.=.=.=.=.%.=.%.=.%.%.=.%.%.%.&.=.%.J J G a f h 3 , 3 3 3 3 3 3 3 3 3 k k k J J %.=.%.=.%.=.-.-.-.=.%.J G J s a a < 3 3 3 3 3 k f J J J %.-.-.",
"3 3 3 k k k J J =.%.%.=.%.=.%.=.%.=.%.=.-.%.%.=.%.=.%.=.=.%.=.%.&.&.=.=.J J J a a a 3 3 3 , 3 3 3 3 3 3 3 k k k J J =.%.=.%.=.%.-.-.-.%.%.J G G s a f 3 3 3 3 3 3 k h J J J =.%.&.",
"3 3 3 k k k J J %.-.%.%.=.%.=.%.=.%.=.=.-.-.-.%.=.%.=.%.%.=.%.=.&.&.=.&.J J G a f f 3 3 3 3 , 3 3 3 3 3 3 f f f J J =.=.%.=.%.=.-.-.-.=.=.J G J a a a 3 3 3 3 3 3 k k J J J %.=.-.",
"k k k N M M O.O.=.=.=.-.%.=.%.=.%.=.%.%.-.%.%.=.%.=.%.=.=.%.=.#.#.o.o.o.V A N e r r 3 3 3 3 3 8 8 8 e e p N N N O.o.=.=.=.%.=.%.#.#.#.o.o.S S S l z z k k k k k k M M O.O.O.=.%.&.",
"k k k N N N O.O.-.-.=.%.=.%.=.%.%.=.%.=.%.=.%.=.=.%.=.%.=.%.=.#.#.o.O.o.V C C r e e 3 3 3 3 3 8 8 8 p e e N N N o.o.*.*.=.%.=.%.#.#.#.o.o.A S A z x l a a a a a h M M O.O.J -.-.-.",
"k k k N N N O.O.-.-.-.=.%.=.%.=.=.%.=.%.=.%.=.%.%.=.%.=.%.=.&.#.#.o.o.o.C C V r e e 3 3 3 3 3 8 8 8 p s e N N N o.o.*.*.*.=.%.=.#.%.#.O.o.S A A x l l a a a a a a M M O.O.O.-.-.&.",
"J J J o.o.o.#.#.-.%.=.%.=.%.=.%.=.%.%.=.%.=.%.=.=.%.%.&.=.%.=.o.o.N N N e e r 0 8 8 3 3 3 3 3 e e e N A N +.o.o.#.#.=.%.=.%.=.%.O.O.O.m M z l z S S S G J G G G J o.o.#.#.#.%.=.-.",
"J J J o.o.o.#.#.%.=.%.=.%.=.%.=.=.=.$.%.=.%.=.=.%.=.%.*.%.=.%.o.o.N M M e e r 8 0 0 3 3 3 < 3 e e e S N A +.o.o.#.#.%.=.%.=.%.=.O.O.O.m m l l z S S S G J J J G G o.o.#.#.#.=.%.&.",
"%.=.&.&.%.%.=.%.=.%.%.%.=.%.=.%.=.%.=.#.#.$.o.o.o.J J G J G J V V e e e 7 7 7 e e e a h h a h M N N o.o.o.%.=.%.%.=.#.#.#.o.o.o.A S A z z M M M o.o.o.%.%.%.=.%.%.%.%.%.&.-.&.-.&.",
"=.%.=.&.&.%.%.=.%.%.%.=.%.=.%.=.%.=.%.#.#.$.o.o.o.G G G G J G V V r e e 7 7 7 r e e h a h a h M N M o.o.o.=.%.=.=.%.#.#.#.o.o.o.S A S z z M M M o.o.o.%.%.=.%.=.%.=.%.=.-.&.-.&.-.",
"%.=.=.%.&.&.=.%.%.%.%.%.=.%.=.%.=.%.=.#.#.#.o.o.o.G J J G J J V V e e e 8 7 8 e e r h h a h h M N N o.o.o.=.=.%.%.=.#.#.#.o.o.o.A S S z z M M M o.o.o.%.%.%.=.%.%.%.*.*.&.-.&.-.&.",
"=.%.%.=.%.=.%.=.%.=.%.=.%.=.=.%.*.=.=.o.o.o.M N m s a a s a a e e 8 8 8 e e e V V B G J J G J o.o.o.#.#.@.=.%.=.=.%.o.o.o.N N M z z z S A o.o.o.#.#.#.=.%.=.%.=.=.=.%.=.-.&.-.&.-.",
"%.=.%.=.=.$.=.=.=.%.=.*.=.%.=.=.*.*.*.o.o.o.N N M a a f f h a e e 8 8 8 r r e V V V J J G G G o.o.o.#.#.#.=.%.=.=.$.o.o.o.N N N z z z S A o.o.o.#.#.#.%.=.$.=.%.%.=.&.&.&.-.&.-.&.",
"=.%.=.%.*.$.=.=.%.=.*.$.%.=.*.*.*.=.=.o.o.o.N N M f a a a f f r e 8 8 8 e e e V V V J J G J J o.o.o.#.#.#.%.$.=.=.*.o.o.o.N N N z z z S A o.o.o.#.#.#.=.=.$.=.=.=.%.&.%.-.&.-.&.-.",
"J G J J J G J J J J G G J G J J J J o.N N S p p e 6 8 8 r r p k f k k k N N N o.o.O.%.=.%.=.%.=.%.=.=.=.$.=.#.#.o.o.S S S z z z l l l S A J J G G G J G G G F G J o.o.@.@.@.&.-.&.",
"G J G J G G J G G G J G G G J J J J J A A N p p p 6 6 6 p p p k k k k k N N N o.O.O.=.%.-.%.=.%.=.%.=.%.=.#.#.#.o.o.S S S z z z l l l S A J G G J J G J J G F J J o.o.@.@.@.-.&.-.",
"G J J J J J J J J J G J G J J J G G J N A N f a p 8 8 8 e e f f a a a a N M M o.o.o.=.%.=.=.=.$.%.=.=.%.%.#.#.#.o.o.S S S z z z l l l S A J J G J G G J J G G J J O.O.#.@.#.=.%.%.",
"s s a a a a a a h f a a a a f a a a s e p p 0 8 0 e e e A N N J J J J J o.o.o.#.#.#.%.=.%.=.=.*.%.%.%.=.=.o.o.o.m m z z z S S S S A A z z a a f a a s s a a a a k M M O.o.o.%.=.=.",
"a a f f a a a a a a f k a f a a a a s e e r 8 0 8 e e e N N A o.G G G G o.o.o.#.#.#.=.%.=.%.=.=.*.=.=.%.*.o.o.o.m N x z z A S A S S S z z a a a s s s s a a f a k N N O.O.O.-.%.=.",
"a a a a f f a a f a h f a a a f a a s e e r 9 9 8 e e e A A N +.G J J J o.o.o.#.#.#.%.=.%.=.=.$.$.%.%.=.%.o.o.o.N N x M z S A S S S S M z f f a s s s s f a h f k N M O.O.J %.-.%.",
"3 3 3 3 3 3 3 3 9 9 9 r e e a a k k a h f k k k f z z z S S S G G G J G J G G G J J G J J G G G J J J G G S S A z z N N M o.o.o.O.O.O.N N a h a a a k p p r 8 8 8 e e V B B J G J ",
"3 3 3 3 3 3 3 3 8 8 9 r e e a a k a h a h k k k a z z z S S S J J G J G J J J G J G G G G J J G J J G J J S A S z z N N N o.o.o.O.O.O.N N h a a a a f p e r 8 8 8 r r V B V J G J ",
"3 3 3 3 3 3 3 3 e e e V V V G G J J G G G G J J G A A S z z z f f a s s a a f a a a s s f a a f f f h a a z l z A S o.o.o.@.#.@.#.#.#.o.o.J G J J G J A Z Z e e r 8 8 e e p f a a ",
"3 3 3 3 3 3 < 3 e e e V V V G J G J G G G G J J J A S S z z z a a a s s f a a a f f a a a h f f f a a f a M l z S A o.o.o.@.@.@.#.#.#.o.o.J G J J G G N Z Z e e e 8 8 e e e a a f ",
"3 3 3 3 3 3 3 3 e e e V V V J J G J J J J J G J G S S S z z z f a f f a a f a a f a a f h a f a f a f a f z z z A S o.o.o.#.#.#.@.#.#.o.o.J J J J J J Z V V e e e 8 8 e p e f h f ",
"3 3 3 8 8 8 r r M M N o.o.o.%.%.%.%.%.@.#.#.o.o.o.V Z V e e e 3 3 3 3 3 3 3 3 3 3 3 3 3 3 3 3 8 8 8 e e e m m M o.o.=.%.%.=.*.%.=.%.%.-.%.#.#.#.O.o.o.V V V e e e 3 3 3 3 3 3 3 3 ",
"3 3 3 8 8 8 e p M M M O.o.o.%.=.-.%.=.@.#.#.o.o.o.V Z Z e e e 3 3 3 3 3 < 3 3 3 3 3 3 3 3 3 3 8 8 8 e e e m M N o.o.=.=.=.%.$.=.%.=.%.=.=.#.#.#.o.o.o.V V V e e e 3 3 3 2 2 2 2 3 ",
"3 3 3 8 8 8 p e M M M o.o.o.=.%.=.-.%.@.#.#.o.o.o.S Z Z e e e 3 3 3 3 3 3 3 , 3 3 3 3 3 3 3 3 0 8 8 e e e m M M o.o.=.=.%.=.%.=.=.%.=.%.%.#.#.#.o.o.o.V V V r r e 3 3 3 2 2 2 2 3 ",
"3 3 3 e e e V V o.o.O.#.#.#.%.=.=.%.=.o.o.o.N N N e e e 8 8 8 3 3 3 3 3 3 3 3 3 3 3 3 3 3 3 3 e e e N A Z o.o.o.#.#.=.%.=.%.=.%.%.=.%.-.-.o.o.o.M M N r r r 8 7 0 3 3 3 2 2 2 2 3 ",
"3 3 3 e e e V V o.o.O.@.#.#.=.=.%.=.%.o.o.o.N M N e e e 8 8 8 3 3 3 3 3 3 3 3 3 3 3 < 3 3 3 3 e e e Z Z Z o.o.o.#.#.%.=.%.=.%.=.=.%.=.=.-.o.o.o.M M M e r r 8 9 8 3 3 3 2 2 2 2 3 ",
"3 3 3 r e e V V o.o.o.@.#.@.%.%.=.%.%.o.o.o.M M N e e e 8 8 8 3 3 3 3 3 3 3 3 3 3 3 3 3 3 , 3 e e q Z Z A o.o.o.#.#.%.%.%.=.=.%.%.=.=.-.-.o.o.O.N N N e r r 8 8 8 3 3 3 3 3 2 2 3 ",
"f h f x z z S S J J J J J G J G J G J V V V e e e 3 3 3 3 3 3 8 8 e e r k f a f a f e e 8 8 8 q q e V V N J G G J J J G J J J J G J J J J Z Z Z e e e 3 2 2 2 2 2 3 3 3 3 3 3 3 3 ",
"a a a z z z A S G J J J G J J J J J J V V V e e e 3 3 3 3 3 3 0 0 e e e f h a h s a e p 0 8 8 q q q V V V J J J J G J J G J G G J J G J J V V Z e e e 3 3 3 3 3 3 3 3 3 3 3 3 3 , ",
"J J G S S S l z a a h a a a h f a a a r e e 8 8 8 3 3 3 3 3 3 e e V V V J J G J G G N A e e e 7 7 7 e e r h a a a a s a s s s s h f a a a e e e 8 8 8 3 3 3 3 3 3 3 3 3 3 3 3 3 3 ",
"J J J S S S z z h a a a a a a a h a f r e e 8 8 8 3 3 3 3 3 3 e e V V V G G G J G J V V e e e 8 7 7 e e e f k k a f a a a f a a a a f a h e e e 8 8 8 3 3 3 3 3 3 3 3 3 3 3 3 3 3 ",
"J J G S S S M z a h h f a a f f h a a e e e 8 8 8 3 3 3 3 3 3 e e V V V J J G G G J V V e e e 8 7 7 e e r k k a a a a a a a a f f a h h a r e e 8 8 8 3 3 3 3 3 3 3 3 3 3 3 3 3 3 ",
"J G J N V V e e 3 < 3 3 3 3 3 3 3 3 3 8 9 9 r e e a a a f a a l l A A A G G G H J G V V e e e 3 3 3 3 3 3 2 2 2 3 3 3 3 < 3 3 3 3 3 3 3 3 3 3 3 3 3 2 2 2 2 3 3 3 3 3 3 3 3 3 3 3 ",
"J G J A V V e e 3 3 3 3 3 3 3 3 3 3 3 0 9 9 r e e k a a a s f z l A A A G J H H G G V V e e e 3 3 3 3 3 2 2 2 2 3 3 3 3 3 3 3 3 3 3 3 3 3 3 3 3 3 3 2 3 2 2 3 3 , 3 3 3 3 3 3 3 3 ",
"J J J V V V p p < 3 3 3 3 3 3 3 3 3 3 8 8 8 e e e j a a s s s M l A A A G J H H J J V V e e e 3 3 3 3 3 2 2 2 2 3 3 3 3 3 3 3 3 3 3 3 3 3 3 3 3 3 3 3 3 2 2 3 3 3 3 3 3 3 3 3 3 3 ",
"a a a r e r 0 0 3 < < 3 3 3 3 3 3 3 3 r e e V V V F F J H H H S A z z l s s s s a f e e 8 8 8 3 3 3 3 3 2 2 2 2 3 3 3 3 3 3 3 3 3 3 3 3 3 3 3 3 3 3 3 3 2 2 3 3 3 3 3 3 3 3 3 3 3 ",
"a a a r e e 8 0 < 3 < 3 3 3 3 3 3 3 3 p e h V B S J J F J G J S S z z z a h a f a h e e 8 8 8 3 3 3 3 3 3 3 3 3 3 3 3 3 3 3 3 3 5 5 5 5 5 5 3 3 5 5 5 5 5 5 5 5 3 3 3 3 3 3 3 3 3 ",
"f a f r e e 0 0 3 < 3 3 3 3 3 3 3 3 3 e p e V V M J J G G J J D S z z z h f h a a f e e 8 8 8 3 3 3 3 3 3 3 3 3 3 3 3 3 3 < 3 < 5 5 5 5 5 5 3 3 5 5 5 5 5 5 5 5 3 3 3 3 3 3 3 3 3 ",
"3 3 3 3 3 3 3 3 3 3 3 3 3 3 8 6 8 e e z z z S S A J J J G G H A N e e e 3 3 3 3 3 3 3 3 3 3 3 3 3 3 3 3 3 3 3 < < 3 3 3 3 3 3 3 5 5 5 5 5 5 5 3 5 5 5 5 5 5 5 5 3 3 3 3 3 3 3 3 3 ",
"3 3 3 3 3 3 3 3 3 3 3 3 3 3 6 6 8 e e z z z S S S J J J J G H N A e e e 3 3 3 3 3 3 3 3 3 3 3 3 3 3 3 3 3 3 3 3 3 3 3 3 3 3 3 3 5 5 5 5 5 5 5 5 5 5 5 5 5 5 5 5 3 3 3 3 3 3 3 3 3 ",
"3 3 3 3 3 3 3 3 3 3 3 3 3 3 6 6 0 p e N z z S S S J G J J J J Z N f r r 3 3 3 3 3 3 3 3 3 3 3 3 3 3 3 3 3 3 3 < 3 3 3 3 3 3 3 3 5 5 5 5 5 5 5 5 5 5 5 5 5 5 5 5 3 3 3 3 3 3 3 3 3 ",
"3 3 3 3 3 3 3 3 3 3 3 3 3 < e e e A M S S S z z z a a a k k k p p 0 8 8 3 3 3 3 3 3 < 3 3 3 3 3 3 3 < 3 3 3 3 3 3 3 3 3 3 3 3 3 5 5 5 5 5 5 5 5 5 5 5 5 5 5 5 5 3 3 3 3 3 3 3 3 3 ",
"3 3 3 3 < 3 3 3 3 3 3 3 3 3 p e e N A A A S z z M f f k f f j p p 0 0 8 3 3 3 3 3 3 3 3 3 3 3 3 3 3 3 3 < 3 3 3 3 3 3 3 3 3 3 3 5 5 5 5 5 5 5 5 5 5 5 5 5 5 5 5 3 3 3 3 3 3 3 3 3 ",
"3 3 3 3 3 3 3 3 3 3 3 3 3 3 p p p A S N A M e e p , 3 3 3 3 2 3 3 3 3 3 3 3 3 3 3 3 3 3 3 3 3 3 3 3 3 3 3 3 3 3 3 3 3 3 3 3 3 3 5 5 5 5 5 5 5 5 5 5 5 5 5 5 5 5 3 3 3 3 3 3 3 3 3 ",
"3 3 3 3 2 2 2 2 2 2 2 2 2 2 e e e V V V V V p p p 3 3 3 3 3 3 3 3 3 3 3 3 3 3 3 3 3 3 3 3 3 3 3 3 3 3 3 3 3 3 3 3 3 3 3 3 3 3 3 2 2 2 2 2 2 2 2 2 2 2 2 5 5 5 5 3 3 3 3 3 3 3 3 3 ",
"3 3 3 3 2 2 2 2 2 2 2 2 2 2 e e e V C V V V p r p 3 3 < 5 5 3 3 3 3 3 3 3 3 3 3 3 3 3 3 3 3 3 3 3 3 3 3 3 3 3 3 3 3 3 3 3 3 3 3 2 2 2 2 2 2 2 2 2 2 2 2 5 5 5 5 3 3 3 3 3 3 3 3 3 ",
"3 3 3 3 2 2 3 3 2 2 2 2 3 3 8 0 8 e e e e e 8 8 0 3 3 3 5 < , 3 3 3 3 3 3 3 3 3 3 3 3 3 3 3 3 3 3 3 3 < 3 3 3 3 3 3 3 3 3 3 3 3 2 2 2 2 2 2 2 2 2 2 2 2 5 5 5 5 3 3 3 3 3 3 3 3 3 ",
"3 3 3 3 2 2 3 3 2 2 2 2 3 3 9 9 8 e e e e e 8 8 0 3 3 3 < 5 < 3 3 3 3 3 3 3 3 3 3 3 3 3 3 3 3 3 3 3 3 3 < 3 3 3 3 3 3 < < 3 3 3 2 2 2 2 2 2 2 2 2 2 2 2 5 5 5 5 3 3 3 3 3 3 3 3 3 ",
"3 3 3 3 3 3 3 3 3 3 3 3 3 3 8 8 8 e e e w w 9 9 0 3 3 3 3 3 3 3 3 3 3 3 3 3 3 3 3 3 3 3 3 3 3 3 3 3 3 3 3 3 3 3 3 3 3 < 3 3 3 3 2 2 2 2 3 3 3 3 2 2 3 3 3 3 5 5 3 3 3 3 3 3 3 3 3 ",
"* - - > > > , , 3 3 3 3 3 3 3 3 3 3 3 , 5 5 5 5 3 3 3 3 3 3 5 , 3 - > - - - - * - * * * - - - > > - , , , 3 3 3 3 3 3 3 3 3 3 3 2 2 2 2 3 3 3 3 2 2 3 , , , > > > * * * * * * * = ",
"* * * - > > , , 3 3 3 3 3 3 3 3 3 3 3 3 5 5 5 5 3 3 3 3 3 5 5 , 3 > > > - - - * * * * * - - - > > > , , , 3 3 3 3 3 3 3 3 3 3 3 2 2 2 2 2 2 3 3 2 2 2 2 , , * > > * * * * * * * * ",
"* * * - > > , , 3 3 3 3 3 3 3 3 3 3 3 3 5 3 5 5 3 3 3 3 3 3 5 , , > > > - - - * * * * * - - - > > > , , , 3 3 3 3 3 3 3 3 3 3 3 2 2 2 2 2 2 3 3 2 2 2 3 , , = - > * * * * * * * * ",
"      # # # > - 3 3 3 3 3 3 3 3 5 5 5 5 5 5 5 5 3 3 3 3 3 3 3 > - # @ @         X X           # # # > > > 5 5 5 3 3 3 3 3 3 3 3 3 3 3 3 3 3 3 3 3 3 3 > > > # # @       X X       ",
"      # # # > - 3 3 3 3 3 3 3 3 5 5 5 5 5 5 5 5 3 3 3 3 3 3 3 > - @ @ @       X X X           # # # > > > 5 5 5 3 3 3 3 3 3 3 3 3 3 3 3 3 3 3 3 3 3 3 > > > # # @       X X       ",
"o o o y u y & & = : - 3 , , 3 3 5 5 5 5 5 5 5 4 3 , , , > > > & & i i i o o o o o o o o o o o i u u & & % : : : < < 3 3 2 2 3 3 3 3 3 3 3 , , , > > > & & & i u u o o o o o o O o ",
"o o o y y y & & = - : 5 , 2 3 3 5 5 5 5 5 5 5 5 3 , , 3 > > - & & u i i o o o o o o o o o o o y u u % % % : : : < < 3 3 2 3 3 3 3 3 3 3 3 , , , > > > & & & u i u o o o o o O O o ",
"o o o y y y & & > - - 5 , 2 3 3 5 5 5 5 2 3 3 3 3 3 , , > > > & & i u y o o o o + o o o o o o y i i & & & > > > 5 5 5 5 2 3 3 5 3 3 3 3 3 , , 2 > > > & & & i u i O O O o o o O o ",
"X.X.X.{ { { y y # # # > * - 2 3 5 5 5 5 2 3 3 3 3 - - - $ $ $ y u { { { ....} | } } ..} ..} } { { { i i u # # # > : 5 5 2 2 5 5 3 3 3 3 3 > - > # # # u u u { { { } } ..| | ..| ..",
"X.X.X.{ { { i u # # @ - > > 2 2 2 5 2 2 2 2 3 3 3 > > > $ $ # y i { { { } ....} } } } ......| { { { i t u # # # - > 5 5 5 4 5 5 3 3 3 3 3 > > > # # # u u u { { { } ..| ..........",
"X.X.X.{ { { y u @ # # > > - 2 2 2 2 2 2 2 2 3 3 3 > > > $ $ # y i { { { | } ..} } } | ......| { { { y i u # # # > > 5 5 5 5 5 5 3 3 3 3 3 > > > # # # u y i { { { ......} ......} ",
"3.3.3.>.:.:.v v y y y & & & - * * * * * * * * * * & % % y t t c v >.>.>.5.3.4.4.4.4.4.4.5.5.5.;.;.;.b b b i i i & & * * * * = = * * * * * & & & y y y v n n >.>.>.3.5.5.5.5.3.4.4.",
"3.3.3.:.:.:.c c y y y & & & - - * * * * * * * * * & % % t t t v v >.>.>.5.5.4.5.4.4.4.4.5.5.5.;.>.,.n n b i i i & & * * * * = = * * * * * & & & y i y v n n >.>.>.5.3.5.3.5.4.4.4.",
"3.3.3.>.;.;.c c y y y & & & - - * * * * * * * - * & & & t t t v v :.:.:.5.5.3.5.4.4.4.4.5.5.5.;.>.>.n n b i i i & & * * * * = = * * * * * & & & y u y v n n >.>.,.5.5.5.3.5.5.3.4.",
"] ] ] <.` <.;.;.{ { { y y y X                     y y y { { { ;.,.` ` ` [ [ [ [ [ [ ] ] ] ] [ <.<.<.;.;.;.{ { { i i           .           i i i { { { ,.,.,.<.` ` ] ] ] [ [ ] ] ] ",
"] ] ] <.<.<.;.;.{ { { i i u                       y i y { { { ;.,.` ` ` [ [ [ [ [ [ ] ] ] ] ] ` <.<.;.;.;.{ { { i i     . .               i t i { { { ,.,.,.` ` ` ] [ [ [ [ ] ] ] ",
"] ] ] <.<.<.;.;.{ { { i y y                       i u i { { { ;.,.` ` ` [ [ [ [ [ [ ] ] ] ] ] ` <.<.;.;.;.{ { { i i     . @               i y y { { { ,.,.,.` ` ` [ [ [ [ [ ] ] ] ",
"^ ^ ^ ' ' ' 2.2.>.>.;.c v v o o o o o o o + o o o v v v >.>.;.2.1.' ' ' ( ( ( ^ ^ ^ ^ ^ ^ ^ ^ ' ' ' 2.2.2.>.;.,.v v o o o o o o o o o o o v c c >.>.;.1.2.2.' ' ' / / ^ ^ ^ ^ ^ ~ ",
"^ ^ ^ ' ' _ 2.2.>.>.;.c c v o o o o o o o + o o o v v v >.;.;.1.1.' ' ' ( ( ( ^ ^ ^ ^ ^ ^ ^ ^ ' ' ' 2.2.2.>.>.>.v v o o o o o o + o o o o v v c >.>.>.1.1.1._ _ ' / ^ ^ ^ ^ ^ ^ / ",
"W W W ! ! ! _ ' ` ` ` ;.>.>.} ........| ....} } | ;.>.>.<.` ` _ _ ! ! ! W W W W W W W W W W E ! ! ! ' ' ' ` ` ` >.>.} } } } } } } } ......:.>.>.` ` ` _ _ _ ! ! ! W W W W W W W W ",
"W W W ! ! ! ' ' ` ` ` ;.>.>.....} ....| ..} } } } >.>.>.` ` ` _ _ ! ! ! W W W W W W W W W W W ! ! ! ' ' ' ` ` ` >.>.X.} } } X.} } } ......,.>.>.` ` ` _ _ _ ! ! ! W W W W W W W W ",
"W W W ! ! ! ) ) ` ` ` :.;.,.} } ..} } | ....} } } ;.>.;.` ` ` _ ) ! ! ! W W W Q W W W W W W E ! ! ! ' ' ' <.<.<.>.,.} } } } } } } } ....| ;.:.;.` ` ` _ ) ) ! ! ! W W W W W Q W W ",
"I I I R R R ~ ~ ' ' ' 2.1.2.5.5.5.3.4.5.5.5.4.4.5.2.2.1.) ' ' ~ ~ R R R K I K K P K I K I U I T R R ~ ~ ~ ' ' ' 2.2.5.5.5.5.5.4.5.4.5.5.3.2.2.1.) ' ' ~ ~ ~ R R E K K P P K K I U ",
"I I I R R R ~ ~ ' ' ' 1.1.1.5.5.5.3.5.5.5.4.4.4.3.1.1.1.) ) ) ~ ~ R R R I K K P K K K P I I I E R R ~ ~ ~ ' ' ' 1.1.5.5.5.3.5.5.5.4.4.4.4.1.1.1.) ) ) ~ ~ ~ R R R K K P K P I K U ",
"I I I R R R ~ ~ ' ' ' 2.1.1.5.5.5.3.4.5.3.5.4.4.5.1.1.1.) ) ) ~ ~ R R R K I K P P P K K I I I T R R ~ ~ ~ ' ' ' 1.1.5.5.5.5.3.5.4.4.4.4.4.1.1.2.) ) ) ~ ~ ~ R R R K U K K K K I I ",
"I I K Y Y Y R R ! ! ! ' ' ' [ ] ] ] ] ] ] ] ] ] ] ' ' ' ! ! ! R R Y Y Y I K I K I K K K K I K Y Y Y R R R ! ! ! ' ' [ ] ] ] ] ] ] ] ] ] ] ) ) ' ! ! ! R R R Y Y Y K K P I K K K I ",
"I I I Y Y Y R R ! ! ! ' ' ' ] ] ] ] ] ] ] ] ] ] ] ' ' ' ! ! ! R E Y Y Y K I K I K P K K I K I Y Y Y R R R ! ! ! ' ' ] ] ] ] ] ] ] ] ] ] ] ) _ ' ! ! ! R R R Y Y Y I K I K I K K K ",
"K K I Y Y Y R R ! ! ! ' ' ' ] ] ] ] ] ] ] ] ] ] ] _ ' ' ! ! ! R E Y Y Y U I K I K P K K K I K Y Y Y R R R ! ! ! ' ' ] ] ] ] ] ] ] ] ] [ ] ' ) ) ! ! ! T T E Y Y Y K I K P K K K K ",
"I Y K U U U U U R R R ~ ~ ~ ^ ^ ^ ^ ^ ^ ^ ^ / / / ~ ~ ~ R R R I K I K K I I I I P K I K P P P I U U U U U R R R ~ ~ ^ ^ ^ ^ ^ ^ ^ ^ ^ / ( ~ ~ ~ T T T I K K I K I I I P K I I K I ",
"P P I U U U U U R R R ~ ~ ~ ^ ^ ^ / ^ ^ ( / / / / ~ ~ ~ R R T K I K I K I I I K I I K I P P P K U U U U U R R R ~ ~ ^ ^ ^ ^ ^ ^ ^ ^ ( / ( ~ ~ ~ T T T K I K K I I P I I K I K I K ",
"I K K I I I U U Y Y Y R R R E E E W W W W W W W W R R R Y Y Y K K I K I K I K I I K I K I K I I I I U U U Y Y Y R R E E E W W W W W W W W R R R Y Y Y I K I I K I K I K I K I K I ",
"K I K Y I I U U Y Y Y R R R E E E E W W Q Q W W E R R R Y Y Y K I K I K K I K Y K I K I K I I I I I U U U Y Y Y R R E E E W W W Q Q Q W E E R R Y Y Y I K I K I K I I K I K K I K ",
"I K K I I I U U Y Y Y R R E E E E W W W Q Q W W W R R R Y Y Y K K I K I I K K K I K I K I K K I I I U U U Y Y Y R R E E E W W W Q Q Q W E T R R Y Y Y K I K I K I K P K K I I I I ",
"K I K I I I K I K I K K I K I K K I K I I I K I K U K I K K K K K K K P K P P K K I I I K I K I I I I K I K I K I K I K I K I K K I I I I K I K K K K I K I K I K K P K I K P I I ",
"I K I I I I I K I K I U K I K I U K I K I K I K I K I K K K K I K Y K K K P P K I K I I I K I I I I K I K I K I K I K I K I K I I K I K K I K I K K K K I K I K I K P K K I I I I ",
"K I K I I I I K I K I K I K I K K I K I K I K I K I K I K K K K K I K I K K P K I K I I I K I I I I I K I K I K I K I K I K I K K I K I K I K I K K K I K I K I K P K K I K I I I "
};
