/* XPM */
static char *_4b0ee86d4ed4aa893f3b279360d0d4bXLHE88v8CqNxGCTw[] = {
/* columns rows colors chars-per-pixel */
"89 89 182 2 ",
"   c #26151C",
".  c #2B181F",
"X  c #2D1B21",
"o  c #271E29",
"O  c #281F29",
"+  c #311E25",
"@  c #2E2B21",
"#  c #29222C",
"$  c #362327",
"%  c #34242A",
"&  c #3A262C",
"*  c #372C28",
"=  c #353022",
"-  c #383222",
";  c #37372D",
":  c #2A2635",
">  c #2E2E3C",
",  c #3D2B30",
"<  c #372F3C",
"1  c #30323F",
"2  c #412E2F",
"3  c #442F36",
"4  c #443034",
"5  c #43363B",
"6  c #4B353A",
"7  c #4F393D",
"8  c #513C3E",
"9  c #32452C",
"0  c #284531",
"q  c #294831",
"w  c #3E4A3C",
"e  c #2B5738",
"r  c #2C5839",
"t  c #365639",
"y  c #3A6737",
"u  c #3B623C",
"i  c #356B3A",
"p  c #3B743B",
"a  c #43552D",
"s  c #4A413F",
"d  c #54413D",
"f  c #49683D",
"g  c #457A3B",
"h  c #437E3B",
"j  c #54773B",
"k  c #637735",
"l  c #657A36",
"z  c #2B2E43",
"x  c #2D3343",
"c  c #2C3943",
"v  c #2D3649",
"b  c #2D394D",
"n  c #363B46",
"m  c #333A4A",
"M  c #2E3D5B",
"N  c #523B40",
"B  c #384348",
"V  c #3B454B",
"C  c #364659",
"Z  c #3A505B",
"A  c #2F4465",
"S  c #354A63",
"D  c #3A5162",
"F  c #365469",
"G  c #314F76",
"H  c #345876",
"J  c #375A76",
"K  c #355A7A",
"L  c #3A6179",
"P  c #48444A",
"I  c #5A4743",
"U  c #5E4B44",
"Y  c #514B4C",
"T  c #45574B",
"R  c #5E504B",
"E  c #565254",
"W  c #614D46",
"Q  c #68534E",
"!  c #695752",
"~  c #715D52",
"^  c #566F4E",
"/  c #447241",
"(  c #5F754C",
")  c #5C6D52",
"_  c #776258",
"`  c #7A655A",
"'  c #7D695B",
"]  c #687855",
"[  c #7B745F",
"{  c #455762",
"}  c #43657C",
"|  c #446D7C",
" . c #557779",
".. c #806B5E",
"X. c #836F60",
"o. c #8A7565",
"O. c #8E7A68",
"+. c #927D6B",
"@. c #45813B",
"#. c #4D843C",
"$. c #51873C",
"%. c #52893C",
"&. c #5E8D3C",
"*. c #668D3D",
"=. c #71833F",
"-. c #64943D",
";. c #6F983D",
":. c #739D3E",
">. c #7B9F3E",
",. c #7DA13F",
"<. c #4F8043",
"1. c #6E8256",
"2. c #80A53F",
"3. c #97826F",
"4. c #98836F",
"5. c #9A8571",
"6. c #345D8A",
"7. c #396689",
"8. c #38698E",
"9. c #356192",
"0. c #396D94",
"q. c #376C9E",
"w. c #3E7593",
"e. c #3C729A",
"r. c #376CA0",
"t. c #3C7AA2",
"y. c #3B78A4",
"u. c #4C7D9E",
"i. c #447DA1",
"p. c #487EA2",
"a. c #417FAE",
"s. c #3E81AD",
"d. c #3E82B3",
"f. c #3F89B7",
"g. c #3E86B8",
"h. c #3F8DBE",
"j. c #498C9E",
"k. c #628584",
"l. c #4183A6",
"z. c #4880A3",
"x. c #4081AD",
"c. c #4F8EAD",
"v. c #4D9AAE",
"b. c #408EBF",
"n. c #4592B9",
"m. c #5E9AB2",
"M. c #609AB2",
"N. c #4FA2B7",
"B. c #62B5BF",
"V. c #3F91C1",
"C. c #418FC0",
"Z. c #4191C2",
"A. c #479FC7",
"S. c #489CC5",
"D. c #4496C8",
"F. c #479EC9",
"G. c #529FC1",
"H. c #4AA3CC",
"J. c #56AACE",
"K. c #58AFCD",
"L. c #53B0C7",
"P. c #55B2CC",
"I. c #59B0CE",
"U. c #54B7D6",
"Y. c #53B8D6",
"T. c #72B7C6",
"R. c #71B8C6",
"E. c #57C4DB",
"W. c #59C3DB",
"Q. c #7CC8C5",
"!. c #69C9D0",
"~. c #65CCDF",
"^. c #75C7D3",
"/. c #75C9D4",
"(. c #7FD7DB",
"). c #67CCE0",
"_. c #73DCE5",
"`. c #7EDBE3",
"'. c #80D0CD",
"]. c #84D5D9",
"[. c #91F4EF",
"{. c #92F5F0",
/* pixels */
"Z.Z.D.Z.Z.Z.Z.Z.Z.Z.Z.Z.Z.Z.Z.Z.Z.Z.Z.Z.Z.Z.Z.Z.Z.Z.Z.V.Z.Z.D.V.Z.Z.Z.Z.Z.Z.Z.V.Z.Z.Z.Z.Z.D.Z.Z.Z.Z.Z.Z.Z.Z.Z.Z.Z.Z.Z.Z.Z.Z.Z.Z.Z.Z.C.Z.Z.Z.Z.Z.Z.V.Z.V.Z.V.Z.Z.Z.Z.Z.Z.Z.Z.Z.V.C.",
"Z.Z.Z.Z.Z.C.Z.Z.C.Z.Z.Z.Z.Z.Z.Z.Z.Z.Z.Z.Z.Z.Z.Z.Z.Z.Z.Z.Z.V.V.V.V.Z.Z.Z.Z.Z.Z.Z.Z.Z.Z.Z.Z.Z.D.Z.Z.Z.Z.Z.Z.Z.Z.Z.Z.Z.Z.Z.Z.Z.Z.Z.Z.Z.Z.Z.Z.Z.Z.Z.Z.Z.Z.Z.V.V.Z.Z.Z.Z.Z.Z.Z.Z.Z.Z.D.",
"Z.Z.Z.Z.C.C.C.C.Z.Z.Z.Z.Z.Z.V.Z.Z.Z.Z.Z.Z.Z.Z.C.Z.Z.Z.C.Z.Z.Z.Z.V.Z.Z.Z.D.D.Z.Z.Z.Z.Z.D.Z.D.D.D.Z.Z.V.Z.Z.Z.Z.Z.Z.Z.Z.Z.Z.Z.Z.Z.Z.Z.Z.Z.Z.Z.Z.C.Z.Z.D.V.Z.Z.C.C.Z.D.D.V.Z.D.Z.Z.D.",
"x.d.d.g.g.g.C.h.Z.Z.Z.Z.Z.Z.Z.Z.Z.Z.Z.Z.Z.Z.Z.Z.Z.C.Z.C.Z.Z.Z.b.Z.g.g.g.y.y.V.y.g.g.y.g.y.g.y.h.g.g.h.h.h.D.C.C.Z.Z.Z.Z.Z.Z.Z.h.Z.Z.Z.Z.Z.Z.C.C.V.Z.C.V.C.C.g.g.g.y.y.V.y.g.g.y.a.",
"g.g.g.g.g.g.h.C.Z.Z.Z.Z.Z.Z.Z.Z.Z.Z.Z.Z.Z.Z.Z.Z.Z.Z.Z.Z.Z.Z.Z.h.Z.g.g.g.V.y.g.g.a.g.a.g.g.a.a.g.g.g.h.h.h.D.D.Z.Z.Z.Z.Z.Z.Z.Z.Z.Z.Z.Z.Z.Z.Z.C.Z.Z.Z.V.V.C.V.g.g.g.d.g.g.g.d.d.d.a.",
"b.y.a.g.g.g.C.C.Z.Z.Z.Z.Z.Z.Z.Z.Z.Z.Z.Z.Z.Z.Z.Z.Z.Z.Z.Z.Z.Z.Z.h.C.g.g.a.y.V.y.g.g.a.g.y.a.g.a.a.g.g.Z.Z.h.Z.C.Z.Z.Z.D.Z.Z.Z.Z.Z.Z.Z.Z.Z.Z.Z.Z.C.Z.Z.D.V.V.C.g.g.g.a.g.y.g.d.d.d.p.",
"9.9.9.q.q.q.g.g.Z.Z.Z.Z.Z.Z.Z.Z.C.Z.Z.Z.Z.C.Z.Z.Z.Z.Z.Z.Z.Z.Z.g.g.r.r.r.9.9.r.9.9.9.9.9.9.9.9.r.r.r.y.g.g.Z.Z.Z.Z.Z.Z.h.Z.Z.Z.Z.Z.Z.Z.Z.Z.Z.Z.Z.Z.Z.Z.y.y.g.r.r.r.9.9.9.9.9.9.9.6.",
"9.9.9.q.q.q.g.g.Z.Z.Z.Z.Z.Z.V.Z.C.Z.Z.Z.Z.C.Z.Z.Z.Z.Z.Z.Z.Z.Z.g.g.r.r.r.9.9.9.9.9.9.9.9.9.9.6.u.r.r.h.g.g.Z.Z.Z.Z.Z.Z.Z.h.Z.Z.Z.Z.C.Z.Z.Z.Z.Z.Z.Z.Z.Z.V.V.g.r.r.r.9.9.9.9.9.9.9.6.",
"u.u.u.p.p.p.a.a.V.y.V.Z.C.V.C.C.Z.Z.Z.Z.Z.Z.Z.V.C.h.h.h.g.g.g.a.y.p.p.p.u.u.u.u.u.u.u.u.u.u.u.u.p.p.a.a.a.g.V.C.h.h.Z.C.Z.Z.C.Z.Z.V.Z.Z.Z.V.h.h.g.g.V.a.x.x.p.p.a.u.u.u.u.u.u.u.u.",
"u.u.u.p.p.p.a.a.V.C.y.C.V.C.Z.Z.Z.Z.Z.Z.Z.V.Z.Z.C.h.h.h.g.g.g.a.a.a.p.p.u.u.u.u.u.u.u.u.u.u.u.u.p.p.a.a.a.V.y.y.h.h.C.Z.Z.Z.Z.Z.Z.Z.Z.Z.Z.h.h.h.y.g.g.y.x.y.p.p.p.u.u.u.u.u.u.u.u.",
"u.u.p.p.p.p.a.a.y.V.g.C.V.D.Z.Z.Z.Z.Z.Z.Z.Z.Z.Z.Z.V.h.h.g.g.g.a.a.p.p.p.u.u.u.u.u.u.u.u.u.u.u.u.p.p.a.a.a.g.a.b.h.Z.Z.Z.Z.V.Z.Z.Z.Z.Z.Z.C.V.g.V.C.V.V.a.x.a.p.p.u.u.p.u.u.u.u.u.u.",
"].].].T.T.T.p.p.r.r.r.g.V.y.Z.Z.V.Z.Z.Z.Z.Z.Z.Z.C.g.g.g.q.q.q.p.p.T.T.T.].].].].].].].].].].].T.T.T.p.p.p.r.r.r.g.g.Z.Z.Z.Z.Z.Z.Z.Z.Z.Z.Z.g.g.g.r.r.r.p.p.p.T.T.T.].].].].].].].].",
"].].].T.T.T.p.p.r.r.r.g.y.g.V.V.D.V.V.Z.Z.Z.Z.Z.C.g.g.g.q.q.q.p.p.T.T.T.].].].].].].].'.].].].T.T.T.p.p.p.r.r.r.g.g.Z.V.Z.Z.Z.C.Z.Z.Z.Z.C.g.y.V.r.q.q.p.p.p.T.T.T.].].].].].].].].",
"].].].T.T.T.p.p.r.r.r.a.V.g.D.V.V.D.Z.Z.Z.Z.Z.D.Z.g.g.g.q.q.q.p.p.T.T.T.].].].].].].].].].].].T.T.T.p.p.p.r.r.r.g.g.Z.V.Z.Z.Z.Z.Z.Z.Z.Z.Z.V.C.y.r.q.q.p.p.i.T.T.T.].].].].].].].].",
"[.[.[.].(.(.M.M.p.p.p.a.a.a.y.g.V.y.g.a.g.a.b.y.g.a.a.a.p.p.i.m.M.].].`.[.[.[.[.[.[.[.[.{.[.[.].(.`.M.M.M.p.p.p.y.a.g.g.g.g.y.g.a.g.g.a.y.a.a.a.p.p.p.m.m.m.(.(.].[.[.[.[.[.[.[.[.",
"[.[.[.].(.(.M.M.p.p.a.a.a.a.g.g.y.V.y.C.y.g.y.b.y.a.a.a.p.i.p.m.M.].`.].[.[.[.[.[.[.[.[.{.{.[.'.(.].M.M.M.p.p.a.a.a.g.y.g.y.g.g.g.a.g.g.g.a.a.a.p.p.p.m.m.m.].(.].{.[.[.[.[.[.[.[.",
"[.[.[.(.(.].m.m.p.p.p.x.a.a.d.d.d.d.d.g.d.g.d.y.d.a.a.a.p.p.j.m.m.].`.`.{.{.{._.{.{.{.{.{.{.{.].(.].M.M.M.a.p.p.a.a.a.a.C.y.g.y.g.g.d.d.d.a.a.a.p.p.p.m.m.m.(.(.`._.{.{.{.[.{.{.{.",
"_.(._._._._.].].T.T.T.p.p.p.9.9.9.9.9.9.9.9.9.9.9.p.p.p.R.R.R.].(._._._._._._._._._._._._._._._._._.(.].].T.T.T.p.p.9.9.9.9.9.r.9.9.9.9.9.p.p.p.R.R.R.(.].(._.(._._._._._._._._._.",
"_._._._.`._.(.(.T.T.T.z.p.p.9.9.9.9.9.9.9.9.9.9.9.p.p.p.R.B.T.].]._._._._._._._._._._._._._._._.`._.].(.].T.T.T.p.p.9.9.9.9.9.9.9.9.9.9.9.p.p.p.T.B.R.(.(.]._.(._._._._._._._._._.",
"_._._._._._.(.].T.T.T.u.p.p.9.9.9.9.9.9.9.9.9.9.9.p.p.p.R.R.R.].]._._._._._._._._._._._._._._.]._._.(.].].T.T.T.p.p.9.9.9.9.9.9.9.9.9.6.9.p.p.p.R.R.R.].(.(._._._._._._._._._._._.",
"W.W.W.).~.~.].`.^.^.^.c.c.c.e.e.0.e.e.e.y.e.e.e.e.c.c.c.^.^.^.`.`.).~.~.E.E.E.E.E.E.E.E.W.W.W.).).).`.`.`.)././.c.c.e.e.r.q.i.0.e.e.e.e.e.c.c.c.^.^.^.`.`.`.~.~._.E.E.E.E.E.W.W.E.",
"W.W.W.).~.~.`.`.^.^.^.c.c.c.e.e.e.e.e.e.e.e.e.e.e.c.c.c.^.^.^.`.`.).~.~.E.E.E.E.E.E.E.E.U.~.W.).).).].].]./././.c.c.e.e.r.i.e.0.e.e.e.e.e.c.c.c.^.^./.].`.`.~.~.~.E.E.E.E.E.W.W.E.",
"H.F.H.H.J.H.J.J.I.I.I.P.L.P.P.P.P.P.P.P.P.P.P.P.P.K.K.P.I.I.I.J.P.H.H.H.H.H.H.H.H.H.H.H.H.H.H.H.F.G.J.J.U.I.I.I.L.P.P.P.P.P.K.K.P.P.P.P.P.K.P.K.I.I.I.J.K.J.H.J.H.H.H.H.H.F.H.H.H.",
"H.H.F.J.H.H.J.J.I.I.I.L.P.P.P.P.P.P.P.P.P.P.P.P.P.P.P.P.I.I.K.J.J.J.H.H.H.H.H.H.H.H.H.H.F.H.H.H.H.H.J.J.J.J.I.I.L.P.P.P.P.P.P.P.P.P.P.P.P.P.K.P.I.I.I.J.J.J.H.H.H.H.H.H.H.F.H.H.H.",
"F.H.F.J.H.H.J.J.I.I.I.I.U.K.P.P.P.P.P.P.P.P.P.P.P.P.P.K.P.U.P.J.J.H.H.J.H.H.H.H.H.H.H.H.H.F.H.H.H.H.J.J.J.K.U.J.P.P.P.P.P.P.P.P.P.L.P.P.P.P.P.P.I.I.I.J.J.J.H.H.H.H.H.H.H.F.H.H.H.",
"Z.Z.Z.Z.Z.Z.D.C.F.F.F.Y.Y.Y.W.W.W.W.W.W.W.W.W.W.E.U.U.U.H.V.F.Z.h.V.Z.Z.V.Z.Z.V.Z.Z.b.Z.Z.Z.Z.Z.D.Z.Z.Z.Z.F.F.F.U.U.W.W.E.W.E.E.W.W.E.E.E.Y.U.U.F.F.F.Z.Z.Z.Z.Z.V.V.V.Z.V.D.V.V.Z.",
"Z.Z.Z.Z.Z.C.Z.Z.F.F.F.Y.Y.Y.W.W.W.W.W.W.E.W.W.W.W.U.U.U.A.A.H.V.V.Z.Z.Z.Z.Z.Z.Z.Z.Z.Z.Z.Z.Z.Z.b.Z.Z.Z.C.Z.F.F.F.U.Y.W.W.W.W.W.W.W.W.E.E.W.U.U.U.F.F.F.Z.Z.Z.Z.Z.D.V.V.Z.V.Z.D.V.Z.",
"C.Z.Z.Z.Z.Z.Z.Z.F.H.F.Y.Y.Y.W.E.W.W.W.W.W.W.W.E.W.U.U.U.A.H.H.h.V.Z.Z.Z.V.Z.Z.Z.Z.Z.Z.Z.Z.Z.Z.Z.Z.Z.Z.Z.Z.F.F.H.Y.Y.W.W.W.W.W.W.W.W.W.E.W.U.U.U.F.F.F.Z.Z.Z.Z.Z.V.D.D.V.Z.Z.Z.Z.Z.",
"Z.Z.Z.C.Z.Z.Z.Z.D.D.D.F.F.F.H.H.H.H.H.H.H.H.H.F.H.F.A.A.e.s.H H H H H H K H H H H H H H H H H H H H H H H H H K L L L L L w.w.H.H.H.H.H.H.A.H.H.D.D.D.b.Z.V.Z.Z.Z.Z.C.Z.Z.Z.Z.Z.Z.",
"Z.Z.Z.C.Z.Z.C.Z.D.D.D.F.F.F.H.F.H.H.H.H.H.F.H.H.H.F.H.H.l.e.H H H H H K K H H H H H H H H H H H H H H H H L L K L L L L L w.w.H.H.H.H.H.H.A.A.H.D.D.D.Z.V.V.Z.Z.Z.Z.Z.C.Z.Z.Z.Z.Z.",
"Z.Z.Z.C.Z.Z.Z.Z.D.D.D.F.F.F.H.H.H.H.H.H.F.H.F.S.x.s.s.s.F F @ @ - - - - = = * = @ @ = - - - - - - - - @ @ @ @ - = - - - - V V l.l.H.H.H.H.h.n.s.t.t.e.e.y.e.e.y.y.y.y.x.V.D.Z.Z.Z.",
"a.a.g.g.g.g.C.C.Z.Z.Z.Z.C.Z.Z.Z.V.Z.Z.Z.V.V.V.h.e.t.w.e.F D @ @ - - - - - = = = @ = = - - - - - - - - = = @ @ - - - - - - B B s.e.h.f.h.h.f.f.t.e.t.t.e.e.e.e.0.q.0.q.y.y.y.g.y.x.",
"d.a.d.g.g.g.C.C.Z.Z.Z.Z.Z.Z.Z.Z.V.D.V.V.Z.V.s.e.o #     9 9 #.#.>.>.,.2.,.1.,.,.@.-.:.,.,.,.,.,.,.,.,.&.&.%.#.>.>.>.,.,.,.k k . o t.t.Z.Z.8.8.  o     o   X   .   o   K K d.s.d.x.",
"9.9.9.q.q.q.g.g.Z.Z.Z.Z.Z.Z.Z.Z.Z.V.V.h.h.h.e.s.o X .   9 q #.#.>.>.,.,.,.,.;.;.@.:.;.,.,.,.,.,.,.,.,.&.&.%.$.,.,.,.,.,.,.k k X o t.y.D.Z.8.8.o                       A A 9.9.9.9.",
"9.9.9.r.q.q.g.g.Z.Z.Z.Z.Z.b.Z.Z.Z.Z.F G B c w B k k *.k $.j %.%.,.,.2.2.,.,.,.,.:.,.,.2.,.,.2.2.2.2.2.,.,.;.,.2.2.2.2.2.,.*.*.q 0 c c v v P P ' ` ` ` ` ` ` ` ` ` ` ` s P M A 6.6.",
"9.9.9.q.q.q.g.g.Z.Z.Z.b.Z.Z.Z.Z.Z.Z.G F b b B B k k l l k $.%.%.,.,.2.2.2.,.,.,.:.,.,.2.,.,.2.2.2.2.2.:.,.:.:.2.2.2.2.2.,.*.*.0 0 c c v v P P ' ` ` ` _ ` ` ` ` ` ` ` P P b A 9.7.",
"u.u.p.p.p.p.x.a.f.g.g.h.C.b.x.f.K K T f a a a a ,.,.,.,.:.:.<.-.2.,.2.2.2.2.2.2.2.2.2.2.2.2.2.2.2.2.2.2.2.2.2.2.2.2.2.2.2.*.*.e e , * 7 7 ~ ~ 5.5.5.5.5.5.5.5.5.5.5.5.d 7 n m u.u.",
"u.u.u.p.p.p.a.a.f.g.f.h.b.b.f.g.K H a T a a a a ,.,.2.2.:.:.:.-.2.2.2.2.2.2.2.2.2.,.2.2.2.2.2.2.2.2.,.,.2.2.2.2.2.2.2.2.2.*.*.e e ; ; 6 8 ~ ~ 5.5.5.5.5.5.5.5.5.5.5.5.8 s n m u.u.",
"u.u.u.p.p.p.a.a.g.g.g.h.a.d.7.7.% % l l -.-.#.%.,.,.2.2.,.:.:.:.2.2.2.2.2.2.,.,.,.,.2.2.2.2.2.2.2.2.2.,.,.;.,.,.2.2.2.2.2.*.*.e e s N ` ` 5.5.5.5.5.5.5.5.5.5.5.5.5.5.d d m m u.j.",
"].].].T.T.T.p.p.q.q.q.g.y.y.7.6.: % l l -.-.#.%.,.,.2.2.,.,.:.:.2.2.2.2.2.2.,.,.1.,.,.2.2.2.2.2.2.2.2.,.,.,.;.,.2.2.2.2.2.*.*.e e s P ` ` 5.5.5.5.5.5.5.5.5.5.5.5.5.5.d d { { ].].",
"].].].T.T.T.u.u.q.q.q.g.K K X X N N l =.=.;.#.#.,.,.2.2.-.-.#.%.,.,.2.2.2.2.>.:.@.;.;.,.2.2.2.2.2.2.,.*.-.&.%.2.2.2.2.2.2.*.*.r r s s ' ' 5.5.5.5.5.5.5.5.5.5.5.5.5.5.d d { { ].].",
"].].].T.T.T.p.u.q.q.q.x.K G X X N 6 2.] ;.*.$.#.,.,.2.2.-.-.%.%.,.2.2.2.2.2.:.:.@.;.:.2.2.2.2.2.2.2.,.&.&.%.%.,.2.2.2.2.2.-.*.r r s s ` ` 5.5.5.5.5.5.5.5.5.5.5.5.5.4.8 d { { ].].",
"[.[.[.].].].M.M.p.i.C S x < 6 6 N 6 / f #.#.@.@.%.%.%.%.#.#.@.@.%.%.-.%.$.%.g #.y h @.%.%.%.%.%.%.%.%.g g i i %.%.%.%.%.%.g h t r s s ` ` 5.5.5.5.5.5.5.5.5.5.+.O.N 7 1.k.'.(.[.{.",
"[.[.[.].].].M.M.p.i.S S < < 6 3 N N f j #.#.@.@.%.%.%.%.#.#.@.@.%.%.%.%.$.$.#.@.y #.@.%.%.%.%.%.%.%.%.p g i p %.%.%.%.%.%.h @.e r s s ` ` 5.5.5.5.5.5.5.5.5.5.+.3.N P k.k.'.Q.{.{.",
"[.[.[.].].].m.m.u.u.m m X X & & & 2 - a f f ] [ 1.1.<.<.p p i p @.@.@.@.@.@.p p e i i i i p / 1.1.1.1.] ] ^ ^ i i i i i y u y w w , , 8 8 U W W U W U W U W U R R  . .Q.Q.{.{.{.[.",
"_._._.`._._.`.].T.T.Z v X X & & & & 9 9 f f 1.1.1.1.<.<.g p p i h @.@.@.h @.p p e i i i i g / ] 1.1.1.] ] ^ ^ i i i i i i y y w w , , s 7 W U W U U U U W R W R R  . .P.B._._._.`.",
"_._._._._._.].(.B.T.} S % # . . 2 2 2 2 Q Q 5.5.5.5.( ( u u t t p p y y y y 9 y 0 0 0 t t ) ) 5.5.5.5.5.5.[ [ q q t t B t w w N 7 X . o o > > > n n B V V V B { Z !.!._._._._._._.",
"E.E.U.).).).`.`.^.^. .F % : . . 2 2 2 2 Q Q 5.5.5.5.( ( t f w B p f y a y y y r 0 0 q t t ) ) 5.5.5.5.5.5.[ [ q q e q t t w V 6 8 X X # # > 1 1 V V V V V V B Z Z L.L.E.E.E.W.W.W.",
"E.W.W.).~.~.`.`.^.^.^.c.F F * * +.+.5.5.5.5.5.5.5.5.! ! N N N N 8 N X %               W W 5.5.5.5.5.5.5.5.` `     6 6 8 7 N N 7 N X X S A c.c.c.^.^.^.`.`.`.~.~.).W.E.W.W.W.W.W.W.",
"E.E.E.).~.~.`.`.^.^. .Z Y Y X.X.5.+.5.5.5.5.5.5.5.5.Q Q N N N N N 7 % X Z Z v.v.v.c 1 W W 5.5.5.5.5.5.5.5.` `     4 6 8 N N N 7 7 X X A C c.c.c.^.^.^.`.`.`.~.~.~.W.W.W.W.W.W.E.W.",
"H.H.F.H.H.J.J.J.I.I.} L Y E X.X.5.5.5.5.5.5.5.5.5.+.Q Q N N N N N N # X C C l.l.l.> > W U 5.5.5.5.5.5.5.5.` `     6 6 8 N N N 7 7 X @ | 7.P.P.P.K.K.I.J.J.J.H.J.H.H.H.H.H.H.H.F.H.",
"H.H.H.H.H.H.G.G.} L E E ` ` 5.5.5.5.5.5.5.5.+.+..._ W I N N 3 N & & Z Z l.l.n.n.F E E ' ' 5.5.5.5.5.5.5.5.....& 2 6 6 8 N N N N 6 X X | | P.P.P.K.K.P.J.J.K.H.H.H.H.H.H.H.H.H.H.H.",
"H.H.H.H.H.H.m.G.} | E E ` ` 5.5.5.5.5.5.5.+.+.+._ _ I I N N N N & & D D s.u.f.n.F E E ' ' 5.5.5.5.5.5.5.5.' ..2 2 6 6 N N N N N N X X 7.| P.P.I.K.K.J.J.J.J.H.H.H.H.H.H.H.F.H.H.H.",
"V.V.Z.Z.0.e.7.7.5 5 ' ' 5.5.5.5.5.5.5.5.+.+.X.` N N N N N N < < v v y.y.Z.Z.e.e.  ' ' 5.5.5.5.5.5.5.5.o.o.~ ! 8 N N N N N 6 6 3 3 B m j.j.U.U.U.F.F.H.Z.Z.C.Z.C.V.V.V.V.Z.V.Z.Z.C.",
"Z.Z.Z.V.0.0.7.7.5 s ` ..5.5.5.5.5.5.5.5.+.+.` ` N N N N N N < N v v e.t.Z.Z.e.e.  ' ' 5.5.5.5.5.5.5.5.o.o.! ~ 8 N N N N N N N 3 4 V m j.j.U.U.U.F.F.F.Z.Z.Z.Z.Z.Z.Z.D.V.V.C.Z.Z.Z.",
"Z.Z.Z.Z.    $ $ O.O.5.5.5.5.5.5.5.5.+.+.` ` 7 N N N N N & & z z h.h.Z.Z.V.V.e.e.  ` ' 5.5.5.5.5.5.5.4.I I $ $ 7 N N N N N 3 3 O # N.N.W.W.U.U.U.F.F.F.Z.Z.Z.Z.Z.Z.Z.V.V.C.V.Z.Z.Z.",
"Z.Z.Z.Z.    $ $ O.O.5.5.5.5.5.5.5.5.5.5.~ ` 7 N N N N N , , x v b.b.Z.Z.Z.Z.e.e.  ' ' 5.5.5.5.5.5.3.3.U I + + N N N N N 8 3 3 O O x.x.H.H.F.F.F.D.D.D.Z.Z.Z.Z.Z.Z.Z.Z.Z.V.Z.Z.Z.Z.",
"V.Z.Z.V.    $ $ O.O.5.5.5.5.5.5.5.5.I I & & X X X X X X C C s.t.n.b.Z.C.C.Z.e.e.  ' ` 5.5.5.5.5.5.d 8 + + + + N N N N 2 2 n n a.a.D.S.H.H.F.F.F.Z.D.D.Z.Z.Z.Z.V.Z.Z.D.D.Z.Z.Z.Z.Z.",
"d.d.g.g.    $ $ O.O.5.5.5.5.5.5.+.5.I R + $ + X X X X X C C t.y.b.g.g.g.d.d.8.8.  ` ' 5.5.5.5.5.5.8 N + + + + N N N N 3 2 v m e.i.g.C.Z.Z.Z.Z.Z.Z.Z.C.C.C.C.g.g.g.g.g.g.a.g.y.g.g.",
"d.s.y.s.    . X d d d U U d W d I I { D K K H H H H H H e.e.Z.V.C.g.g.g.d.d.8.8.  ' ' 5.5.o.o.U I D D x x . . & + & + M m 8.0.C.Z.Z.C.Z.Z.Z.Z.Z.Z.Z.C.C.C.C.g.g.g.y.g.y.g.g.g.y.y.",
"d.s.d.g.    . X d d I I U I I d I I D { H K H K H H H H e.e.V.h.V.g.g.g.d.d.8.9.  ` ` 5.5.o.o.I I D { x x X X % % & % V C 8.8.C.Z.Z.Z.D.Z.Z.Z.Z.Z.Z.Z.C.V.V.y.V.g.d.g.y.y.y.g.g.g.",
"9.9.9.q.z z v v b b b b b b b B b b e.e.C.Z.C.V.V.V.V.V.V.V.h.f.g.q.q.q.9.9.G G   W W _ _ ! E z z 6.e.6.K b b b b b b 8.7.Z.Z.Z.C.Z.C.C.Z.V.Z.C.C.C.D.y.g.g.r.r.r.9.9.9.r.9.9.9.9.",
"9.9.9.r.z z v b b b b b b b b b m b e.y.C.D.C.Z.Z.Z.V.C.V.V.V.g.g.q.r.q.9.9.G G   I R ~ _ ! ! z z 6.e.K 6.b b b b b b 8.8.Z.Z.Z.Z.Z.Z.Z.Z.Z.Z.Z.V.V.Z.V.g.g.r.r.r.9.9.9.9.9.9.9.9.",
"9.9.9.r.r.r.g.g.Z.Z.Z.Z.Z.Z.V.V.C.Z.C.Z.Z.C.Z.Z.Z.Z.Z.Z.V.V.V.g.g.q.r.r.9.9.G G         X : : r.r.r.g.g.g.C.Z.Z.Z.C.V.Z.Z.n.Z.Z.Z.Z.Z.Z.Z.Z.Z.C.C.V.V.g.g.g.r.r.r.9.9.9.9.9.9.9.9.",
"u.u.u.p.p.p.a.a.g.y.C.V.g.C.Z.Z.Z.V.Z.Z.Z.Z.Z.Z.Z.h.Z.h.g.g.g.a.a.p.p.p.u.u.} } .         < : p.p.p.a.a.a.d.g.g.g.V.V.Z.Z.V.Z.V.Z.Z.Z.Z.V.C.V.C.g.g.g.a.y.x.z.z.z.u.u.u.u.u.u.u.u.",
"u.u.u.u.p.p.a.a.a.b.C.V.V.V.Z.Z.Z.V.V.Z.Z.Z.Z.Z.Z.h.h.h.g.g.g.a.a.p.a.p.u.u.} }           < < p.p.p.a.a.a.g.g.g.V.V.C.Z.Z.Z.Z.Z.Z.Z.Z.C.Z.V.C.g.g.g.g.a.x.x.z.z.z.p.u.u.u.u.u.u.u.",
"u.u.u.u.p.p.a.a.y.C.b.C.g.V.C.C.Z.Z.V.Z.Z.Z.Z.Z.Z.h.Z.Z.g.a.g.a.a.p.p.p.u.u.} }         . & & u.p.p.a.a.a.d.g.g.V.g.Z.Z.Z.Z.V.Z.Z.Z.Z.Z.C.C.C.V.g.g.g.a.x.x.z.z.u.u.u.u.u.u.u.u.u.",
"].].].T.T.T.p.p.q.q.q.g.g.g.C.C.C.D.Z.Z.Z.Z.Z.Z.Z.g.d.g.r.r.r.a.p.T.T.T.].].].].'.].].'.].].].T.T.T.p.p.p.r.r.r.V.g.Z.Z.Z.Z.Z.Z.Z.Z.Z.Z.Z.g.g.g.q.q.q.p.p.p.T.T.T.].].].].'.].].].",
"].].].T.T.T.p.p.r.r.r.x.g.g.Z.Z.Z.Z.Z.Z.Z.Z.Z.Z.Z.g.g.C.r.r.r.p.p.T.T.T.].].].(.].].].].].].].T.T.T.p.p.p.r.r.r.V.y.D.Z.Z.Z.n.b.Z.Z.Z.Z.Z.g.g.g.q.q.q.p.p.p.T.T.T.].].].].].].].].",
"].].].T.T.T.p.p.r.r.q.b.g.g.Z.C.Z.Z.Z.D.Z.Z.Z.Z.Z.g.g.y.r.r.r.p.a.T.T.T.].].].`.].].].].].].].T.T.T.p.p.p.r.r.r.g.g.V.Z.Z.Z.Z.D.Z.Z.Z.D.Z.g.g.g.q.q.q.p.p.p.T.R.T.].].].].].].].].",
"{.{.{.(.].].M.M.p.p.a.a.y.x.b.a.y.g.a.g.g.d.d.d.y.g.a.a.p.p.p.M.m.].].].[.[.{.{.[.[.[.[.{.{.{.].].].M.M.M.p.u.p.a.a.y.C.x.x.d.d.y.g.g.g.y.a.a.a.p.p.p.m.m.m.(.].].{.{.{.[.[.[.[.{.",
"{.{.{.].`.].M.M.p.p.p.a.x.x.y.g.g.g.g.y.a.d.d.d.a.a.a.a.u.p.p.m.m.(.].].[.[.{.{.[.[.[.[.{.{.{.].(.(.M.M.M.p.p.p.a.a.C.y.g.g.d.d.g.g.y.g.g.a.a.a.p.p.p.m.m.m.].].].{.{.{.[.[.[.[.{.",
"_._._.`._._.].(.T.T.T.p.p.p.9.9.9.9.9.9.9.9.9.9.9.a.p.p.T.T.T.].]._._.`._._._._._._._._._._._._.)._.].].].T.T.T.b.p.9.9.9.9.9.9.9.9.9.9.9.p.p.p.R.R.R.(.(.(._._._._._._._._._._.].",
"_._._._.`._.].].T.T.T.p.p.p.9.9.9.9.9.9.9.9.9.9.9.p.p.p.T.T.T.].].`._._._._._._._._._._._._._._.`._.].].].T.T.T.p.p.9.9.9.9.9.9.9.9.9.9.9.p.p.p.R.R.T.(.].(._.`._._._._._._._._.`.",
"_._._._._._.`.].T.T.T.p.p.p.9.9.9.9.9.6.9.9.9.9.9.u.p.p.T.T.T.`.`.)._._._._._._._._._._._._._._._._.].].].T.T.T.p.p.9.9.9.9.9.9.9.9.9.9.9.p.p.p.T.R.T.(.(.(.(._._._._._._._._._._.",
"W.W.U.).).).`.`./././.c.c.c.e.e.e.e.8.u.e.e.e.0.i.a.c.c.^.^.^.`.`.).).).W.W.W.W.E.E.W.W.E.E.W.).).).`.`.]./././.c.c.r.i.e.e.e.e.i.9.i.q.e.c.c.c.^.^.^.`.`.`.~.~.~.E.E.E.E.E.W.W.U.",
"W.W.E.).).).`.`./././.c.c.c.e.e.e.e.e.e.e.e.e.e.e.c.c.c.^.^.^.`.`.).).).W.W.E.E.E.E.E.E.W.W.W.).).).`.`.`.)././.c.c.e.e.e.e.e.e.9.e.e.0.e.c.c.c.^.^./.`.`.`.~.~.~.E.E.E.W.W.W.W.~.",
"W.W.E.).).).`.`./././.c.c.c.e.e.e.e.e.e.0.e.e.e.e.c.c.c.^.^.^.`.`.).).).W.W.E.E.E.E.E.E.W.W.W.).).).].].]./././.c.c.e.e.e.e.e.e.i.e.e.e.e.c.c.c.^.^./.].`.`.~.~.~.E.E.E.W.E.W.W.U.",
"H.H.H.H.H.H.J.J.I.I.I.I.U.P.P.P.L.P.K.P.P.P.U.P.P.K.P.K.K.K.J.J.J.H.H.H.H.H.H.H.H.H.H.H.H.H.H.H.H.H.J.J.U.I.I.I.J.I.P.P.P.P.P.P.J.L.K.P.P.P.K.K.J.K.K.J.J.J.H.J.H.H.H.H.H.H.H.H.H.",
"H.H.H.H.H.J.J.J.I.I.I.I.P.K.P.P.L.P.P.P.P.P.P.P.P.P.P.I.K.K.U.J.U.H.H.H.H.H.H.H.H.H.H.H.H.H.H.H.H.H.J.J.J.I.I.I.J.I.P.P.P.P.P.P.L.J.P.P.P.P.P.P.U.K.I.J.J.J.H.H.H.H.H.H.H.H.H.H.H.",
"H.H.H.H.H.H.J.J.I.I.I.P.K.P.P.P.P.P.P.P.U.P.P.P.P.I.P.P.K.K.K.J.J.H.H.H.H.H.H.H.H.H.H.H.H.H.H.H.H.H.J.J.J.P.K.P.P.P.P.L.P.P.P.P.P.P.P.P.P.P.K.P.I.J.J.J.J.J.F.F.H.H.H.H.D.H.H.F.H.",
"D.Z.Z.Z.Z.Z.Z.Z.F.A.F.U.U.U.W.W.E.W.W.E.W.W.W.W.W.U.U.U.F.F.F.Z.Z.Z.Z.Z.Z.Z.Z.Z.V.V.V.V.Z.Z.V.V.Z.Z.Z.Z.C.A.A.S.U.Y.W.W.W.W.W.W.W.W.W.W.W.U.U.U.F.F.H.Z.Z.Z.D.Z.V.D.V.V.Z.Z.D.V.Z.",
"C.C.Z.Z.Z.Z.Z.Z.F.H.A.U.U.U.W.W.W.W.E.W.W.W.U.W.W.U.U.U.F.S.F.Z.Z.Z.C.Z.Z.Z.Z.Z.Z.Z.C.Z.V.Z.Z.Z.Z.Z.Z.Z.Z.F.S.H.U.U.W.W.W.W.W.W.W.W.W.W.W.U.U.U.F.F.D.Z.Z.Z.Z.Z.V.D.V.V.Z.Z.Z.Z.Z.",
"Z.C.Z.Z.Z.Z.Z.D.D.Z.D.F.F.S.H.H.H.H.H.H.H.H.H.H.H.A.A.A.D.D.D.Z.Z.Z.Z.Z.Z.Z.Z.Z.V.V.Z.Z.Z.Z.Z.Z.Z.Z.Z.Z.Z.D.D.D.F.F.H.H.H.H.F.H.H.H.H.F.H.A.A.A.D.D.D.Z.Z.Z.Z.V.V.V.D.V.V.V.Z.Z.Z.",
"Z.Z.Z.Z.Z.Z.Z.Z.D.D.D.A.F.F.H.H.H.H.H.H.H.H.H.H.H.A.A.S.D.D.D.b.Z.Z.Z.V.Z.Z.Z.V.V.V.Z.Z.Z.C.Z.Z.Z.Z.Z.Z.Z.D.D.D.F.F.H.H.H.H.H.H.H.H.H.F.H.F.S.A.D.D.D.Z.Z.Z.Z.Z.Z.Z.Z.V.V.V.Z.Z.Z.",
"Z.Z.Z.Z.Z.Z.Z.Z.Z.S.D.F.F.F.H.H.H.H.H.H.H.H.H.H.H.A.A.H.D.D.S.b.Z.Z.Z.Z.Z.Z.Z.V.V.V.Z.Z.Z.Z.Z.Z.Z.Z.D.Z.Z.D.D.D.F.F.H.H.F.H.H.H.H.H.H.H.H.F.F.H.D.Z.S.Z.Z.Z.Z.Z.Z.Z.Z.V.V.V.Z.V.Z.",
"Z.Z.C.Z.Z.Z.Z.Z.V.Z.h.Z.C.Z.Z.Z.Z.Z.b.Z.V.V.Z.Z.V.h.h.Z.Z.Z.Z.Z.Z.C.Z.Z.Z.C.Z.Z.Z.Z.Z.V.Z.Z.Z.Z.Z.C.Z.D.D.C.Z.Z.Z.Z.Z.Z.Z.C.Z.Z.Z.C.V.V.C.C.C.C.Z.Z.C.Z.Z.Z.Z.Z.Z.Z.Z.Z.Z.Z.Z.Z.Z.",
"Z.Z.Z.Z.Z.Z.Z.D.Z.Z.Z.Z.Z.Z.Z.Z.Z.Z.Z.Z.V.V.Z.Z.Z.V.Z.b.Z.Z.Z.Z.Z.Z.Z.Z.Z.Z.Z.C.C.Z.Z.Z.Z.Z.V.Z.Z.b.D.Z.Z.Z.Z.C.Z.Z.Z.Z.D.C.Z.Z.V.Z.V.Z.D.C.C.C.Z.Z.Z.Z.Z.Z.V.Z.Z.Z.V.Z.Z.Z.Z.Z.Z.",
"Z.Z.C.Z.Z.Z.Z.Z.Z.Z.Z.Z.C.Z.Z.Z.Z.Z.Z.Z.Z.Z.Z.Z.Z.Z.Z.b.Z.Z.Z.Z.Z.Z.Z.Z.Z.Z.Z.Z.Z.C.Z.Z.Z.Z.Z.Z.Z.Z.D.C.D.C.C.C.Z.Z.D.C.Z.C.Z.Z.Z.Z.Z.Z.Z.C.C.Z.Z.Z.Z.Z.Z.Z.Z.Z.Z.V.Z.Z.Z.Z.Z.Z.Z."
};
